<?xml version="1.0" encoding="utf-8"?>
<!-- Generator: Adobe Illustrator 19.1.0, SVG Export Plug-In . SVG Version: 6.00 Build 0)  -->
<svg version="1.1" id="Layer_1" xmlns="http://www.w3.org/2000/svg" xmlns:xlink="http://www.w3.org/1999/xlink" x="0px" y="0px"
	 viewBox="94 97 245 30" xml:space="preserve" width="245" height="30">
<style type="text/css">
	.st0{fill:#5EC1EC;}
	.st1{fill:#5BBBE6;}
	.st2{fill:#FFFFFF;}
	.st3{fill:#56B1D9;}
	.st4{fill:#5565AF;}
	.st5{opacity:4.000000e-002;fill:#FFFFFF;enable-background:new    ;}
	.st6{fill:#EA564B;}
	.st7{fill:#E9D419;}
	.st8{fill:#FFF9F0;}
	.st9{fill:#414042;}
	.st10{fill:#E6A124;}
	.st11{opacity:8.000000e-002;fill:#FFFFFF;enable-background:new    ;}
	.st12{fill:#F3F4F4;}
	.st13{fill:#6B6B6B;}
	.st14{fill:#424143;}
	.st15{opacity:0.5;fill:#FFFFFF;}
</style>
<g>
	<path class="st0" d="M139,123.3c0,2.1-1.7,3.8-3.8,3.8H97.8c-2.1,0-3.8-1.7-3.8-3.8v-22.5c0-2.1,1.7-3.8,3.8-3.8h37.5
		c2.1,0,3.8,1.7,3.8,3.8V123.3z"/>
	<path class="st1" d="M137.9,98.1c0.7,0.7,1.1,1.6,1.1,2.6V112v11.3c0,1-0.4,2-1.1,2.6c-0.7,0.7-1.6,1.1-2.6,1.1h-18.8H97.8
		c-1,0-2-0.4-2.6-1.1L137.9,98.1z"/>
	<g>
		<path class="st2" d="M107.2,115.7l-0.3-1.3h-2.3l-0.4,1.3h-2.1l2.3-7h2.5l2.3,7H107.2z M106.4,112.8l-0.3-1.1
			c-0.1-0.3-0.2-0.6-0.3-1c-0.1-0.4-0.2-0.7-0.2-0.9c0,0.2-0.1,0.4-0.2,0.8s-0.3,1.1-0.6,2.2L106.4,112.8L106.4,112.8z"/>
		<path class="st2" d="M113,115.7l-1.4-5h0c0.1,0.9,0.1,1.5,0.1,2v3H110v-7h2.5l1.5,4.9h0l1.4-4.9h2.5v7h-1.7v-3.1
			c0-0.2,0-0.3,0-0.5s0-0.7,0.1-1.4h0l-1.4,5L113,115.7L113,115.7z"/>
		<path class="st2" d="M123.3,115.7h-4.1v-7h4.1v1.5h-2.3v1.1h2.1v1.5h-2.1v1.3h2.3V115.7z"/>
		<path class="st2" d="M130.8,115.7h-2.2l-1.4-2.2l-1.3,2.2h-2.1l2.3-3.6l-2.2-3.4h2.1l1.3,2.2l1.2-2.2h2.1l-2.2,3.5L130.8,115.7z"
			/>
	</g>
	<g>
		<path class="st2" d="M107.2,115.7l-0.3-1.3h-2.3l-0.4,1.3h-2.1l2.3-7h2.5l2.3,7H107.2z M106.4,112.8l-0.3-1.1
			c-0.1-0.3-0.2-0.6-0.3-1c-0.1-0.4-0.2-0.7-0.2-0.9c0,0.2-0.1,0.4-0.2,0.8s-0.3,1.1-0.6,2.2L106.4,112.8L106.4,112.8z"/>
		<path class="st2" d="M113,115.7l-1.4-5h0c0.1,0.9,0.1,1.5,0.1,2v3H110v-7h2.5l1.5,4.9h0l1.4-4.9h2.5v7h-1.7v-3.1
			c0-0.2,0-0.3,0-0.5s0-0.7,0.1-1.4h0l-1.4,5L113,115.7L113,115.7z"/>
		<path class="st2" d="M123.3,115.7h-4.1v-7h4.1v1.5h-2.3v1.1h2.1v1.5h-2.1v1.3h2.3V115.7z"/>
		<path class="st2" d="M130.8,115.7h-2.2l-1.4-2.2l-1.3,2.2h-2.1l2.3-3.6l-2.2-3.4h2.1l1.3,2.2l1.2-2.2h2.1l-2.2,3.5L130.8,115.7z"
			/>
	</g>
	<path class="st3" d="M116.5,97"/>
</g>
<g>
	<path class="st4" d="M289,123.3c0,2.1-1.7,3.8-3.8,3.8h-37.5c-2.1,0-3.8-1.7-3.8-3.8v-22.5c0-2.1,1.7-3.8,3.8-3.8h37.5
		c2.1,0,3.8,1.7,3.8,3.8V123.3z"/>
	<path class="st5" d="M287.9,98.1c0.7,0.7,1.1,1.6,1.1,2.6V112v11.3c0,1-0.4,2-1.1,2.6c-0.7,0.7-1.6,1.1-2.6,1.1h-18.8h-18.8
		c-1,0-2-0.4-2.6-1.1L287.9,98.1z"/>
	<path class="st3" d="M266.5,97"/>
	<g>
		<path class="st6" d="M266.5,107c-1.4-1.6-3.4-2.5-5.6-2.5c-4.1,0-7.5,3.4-7.5,7.5c0,4.1,3.4,7.5,7.5,7.5c2.2,0,4.3-1,5.6-2.6
			c-1.2-1.3-1.9-3-1.9-4.9S265.3,108.4,266.5,107z"/>
		<path class="st6" d="M266.5,107c-1.2,1.3-1.9,3.1-1.9,5s0.7,3.6,1.9,4.9c1.2-1.3,1.9-3,1.9-4.9S267.7,108.4,266.5,107z"/>
	</g>
	<path class="st7" d="M272.1,104.5c-2.2,0-4.3,1-5.6,2.5c-0.3,0.4-0.6,0.8-0.9,1.2h1.7c0.3,0.5,0.5,1,0.7,1.5h-3
		c-0.2,0.5-0.3,1-0.3,1.5h3.7c0,0.2,0.1,0.5,0.1,0.8c0,0.3,0,0.5,0,0.8h-3.7c0.1,0.5,0.2,1,0.3,1.5h3c-0.2,0.5-0.4,1-0.7,1.5h-1.7
		c0.2,0.4,0.5,0.8,0.9,1.2c1.4,1.6,3.4,2.6,5.6,2.6c4.1,0,7.5-3.4,7.5-7.5C279.6,107.9,276.3,104.5,272.1,104.5z"/>
</g>
<g>
	<path class="st8" d="M189,123.3c0,2.1-1.7,3.8-3.8,3.8h-37.5c-2.1,0-3.8-1.7-3.8-3.8v-22.5c0-2.1,1.7-3.8,3.8-3.8h37.5
		c2.1,0,3.8,1.7,3.8,3.8V123.3z"/>
	<g>
		<path class="st9" d="M155.4,112c0,0.8-0.2,1.3-0.6,1.7c-0.4,0.4-1,0.6-1.9,0.6h-1.3v-4.6h1.4c0.7,0,1.3,0.2,1.7,0.6
			C155.1,110.7,155.4,111.3,155.4,112z M154.3,112c0-1-0.4-1.5-1.3-1.5h-0.5v3h0.4C153.9,113.5,154.3,113,154.3,112z"/>
		<path class="st9" d="M156.2,114.3v-4.6h1v4.6H156.2z"/>
		<path class="st9" d="M161,113c0,0.4-0.1,0.7-0.4,1c-0.3,0.2-0.7,0.4-1.2,0.4c-0.5,0-0.9-0.1-1.3-0.3v-0.9c0.3,0.1,0.6,0.2,0.8,0.3
			c0.2,0.1,0.4,0.1,0.6,0.1c0.2,0,0.4,0,0.5-0.1c0.1-0.1,0.2-0.2,0.2-0.4c0-0.1,0-0.2-0.1-0.2c0-0.1-0.1-0.1-0.2-0.2
			c-0.1-0.1-0.3-0.2-0.6-0.3c-0.3-0.1-0.5-0.3-0.6-0.4c-0.1-0.1-0.3-0.3-0.3-0.4s-0.1-0.3-0.1-0.6c0-0.4,0.1-0.7,0.4-1
			c0.3-0.2,0.7-0.3,1.1-0.3c0.2,0,0.5,0,0.7,0.1c0.2,0.1,0.4,0.1,0.7,0.2l-0.3,0.8c-0.2-0.1-0.4-0.2-0.6-0.2c-0.2,0-0.3-0.1-0.5-0.1
			c-0.2,0-0.3,0-0.4,0.1c-0.1,0.1-0.1,0.2-0.1,0.3c0,0.1,0,0.2,0.1,0.2c0,0.1,0.1,0.1,0.2,0.2c0.1,0.1,0.3,0.2,0.6,0.3
			c0.4,0.2,0.7,0.4,0.9,0.6C160.9,112.5,161,112.7,161,113z"/>
		<path class="st9" d="M163.7,110.5c-0.4,0-0.6,0.1-0.8,0.4c-0.2,0.3-0.3,0.7-0.3,1.1c0,1,0.4,1.5,1.1,1.5c0.3,0,0.7-0.1,1.2-0.2
			v0.8c-0.4,0.2-0.8,0.2-1.3,0.2c-0.7,0-1.2-0.2-1.5-0.6c-0.4-0.4-0.5-1-0.5-1.7c0-0.5,0.1-0.9,0.3-1.2c0.2-0.4,0.4-0.6,0.7-0.8
			c0.3-0.2,0.7-0.3,1.1-0.3c0.4,0,0.9,0.1,1.3,0.3l-0.3,0.8c-0.2-0.1-0.3-0.2-0.5-0.2C164.1,110.5,163.9,110.5,163.7,110.5z"/>
		<path class="st9" d="M172.7,109.7h1l-1.6,4.6H171l-1.5-4.6h1l0.9,2.7c0,0.2,0.1,0.3,0.1,0.6c0,0.2,0.1,0.4,0.1,0.4
			c0-0.2,0.1-0.5,0.2-1L172.7,109.7z"/>
		<path class="st9" d="M176.8,114.3h-2.6v-4.6h2.6v0.8h-1.7v1h1.5v0.8h-1.5v1.2h1.7V114.3z"/>
		<path class="st9" d="M178.8,112.5v1.8h-1v-4.6h1.3c0.6,0,1.1,0.1,1.4,0.3c0.3,0.2,0.4,0.6,0.4,1c0,0.3-0.1,0.5-0.2,0.7
			c-0.1,0.2-0.4,0.4-0.6,0.5c0.7,1,1.1,1.7,1.3,2h-1.1l-1.1-1.8L178.8,112.5L178.8,112.5z M178.8,111.7h0.3c0.3,0,0.5-0.1,0.7-0.2
			c0.1-0.1,0.2-0.3,0.2-0.5c0-0.2-0.1-0.4-0.2-0.5s-0.4-0.1-0.7-0.1h-0.3L178.8,111.7L178.8,111.7z"/>
		<circle class="st10" cx="167.3" cy="112" r="2.3"/>
	</g>
	<path class="st10" d="M189,117.6v5.6c0,0.5-0.1,1-0.3,1.5c-0.2,0.4-0.5,0.9-0.8,1.2s-0.7,0.6-1.2,0.8c-0.4,0.2-0.9,0.3-1.5,0.3
		h-16.8h-16.8L189,117.6z"/>
	<path class="st11" d="M187.9,98.1c0.7,0.7,1.1,1.6,1.1,2.6V112v11.3c0,1-0.4,2-1.1,2.6c-0.7,0.7-1.6,1.1-2.6,1.1h-18.8h-18.8
		c-1,0-2-0.4-2.6-1.1L187.9,98.1z"/>
</g>
<path class="st10" d="M238.3,119.5v3.8c0,2.1-1.7,3-3.8,3h-36c-2.1,0-3.8-0.9-3.8-3v-3.8"/>
<g>
	<path class="st12" d="M239,123.3c0,2.1-1.7,3.8-3.8,3.8h-37.5c-2.1,0-3.8-1.7-3.8-3.8v-22.5c0-2.1,1.7-3.8,3.8-3.8h37.5
		c2.1,0,3.8,1.7,3.8,3.8V123.3z"/>
	<path class="st4" d="M194,104.5v-3.8c0-2.1,1.7-3.8,3.9-3.8h37.2c2.1,0,3.9,1.7,3.9,3.8v3.8"/>
	<g>
		<path class="st4" d="M207,114.5c0.3-0.9,0.5-1.4,0.6-1.7l2.5-5.2h1.9l-4.4,8.6h-2l-0.7-8.6h1.7l0.3,5.2c0,0.2,0,0.4,0,0.8
			C207,114.1,207,114.4,207,114.5L207,114.5z"/>
		<path class="st4" d="M211.3,116.3l1.8-8.6h1.8l-1.8,8.6H211.3z"/>
		<path class="st4" d="M220.4,113.8c0,0.8-0.3,1.5-0.9,1.9c-0.6,0.5-1.4,0.7-2.3,0.7c-0.9,0-1.6-0.2-2.1-0.5v-1.6
			c0.8,0.4,1.5,0.6,2.1,0.6c0.4,0,0.8-0.1,1-0.2c0.2-0.2,0.4-0.4,0.4-0.7c0-0.2,0-0.3-0.1-0.4c-0.1-0.1-0.1-0.2-0.2-0.4
			c-0.1-0.1-0.3-0.3-0.7-0.6c-0.5-0.4-0.9-0.8-1.1-1.1c-0.2-0.4-0.3-0.8-0.3-1.2c0-0.5,0.1-1,0.4-1.4c0.2-0.4,0.6-0.7,1-0.9
			c0.4-0.2,1-0.3,1.5-0.3c0.8,0,1.6,0.2,2.3,0.6l-0.6,1.4c-0.6-0.3-1.2-0.4-1.7-0.4c-0.3,0-0.6,0.1-0.8,0.3
			c-0.2,0.2-0.3,0.4-0.3,0.7c0,0.2,0.1,0.4,0.2,0.6c0.1,0.2,0.4,0.4,0.9,0.7c0.5,0.3,0.8,0.7,1.1,1
			C220.3,112.8,220.4,113.3,220.4,113.8z"/>
		<path class="st4" d="M226.1,114.2h-2.8l-1,2h-1.9l4.5-8.6h2.2l0.9,8.6h-1.7L226.1,114.2z M226,112.7l-0.2-2.1c0-0.5-0.1-1-0.1-1.5
			V109c-0.2,0.5-0.4,1-0.6,1.5l-1.1,2.3H226z"/>
	</g>
	<path class="st2" d="M216.5,97"/>
	<path class="st5" d="M237.9,98.1c0.7,0.7,1.1,1.6,1.1,2.6V112v11.3c0,1-0.4,2-1.1,2.6s-1.6,1.1-2.6,1.1h-18.8h-18.8
		c-1,0-2-0.4-2.6-1.1L237.9,98.1z"/>
</g>
<g>
	<g>
		<path class="st13" d="M339,123.3c0,2.1-1.7,3.8-3.8,3.8h-37.5c-2.1,0-3.8-1.7-3.8-3.8v-22.5c0-2.1,1.7-3.8,3.8-3.8h37.5
			c2.1,0,3.8,1.7,3.8,3.8V123.3z"/>
	</g>
	<rect x="294.3" y="101.7" class="st14" width="44.3" height="6"/>
	<rect x="299.8" y="110.7" class="st15" width="27" height="6"/>
	<rect x="302.1" y="113" class="st14" width="21.8" height="1.5"/>
	<rect x="329.1" y="110.7" class="st15" width="6" height="6"/>
	<rect x="329.8" y="113" class="st14" width="4.5" height="1.5"/>
</g>
</svg>
