<?xml version="1.0"?>
<!--Icons from directory ""-->
<svg xmlns="http://www.w3.org/2000/svg" width="300" height="983" viewBox="0 0 300 983"><svg xmlns:xlink="http://www.w3.org/1999/xlink" id="arrowbig" xml:space="preserve" viewBox="-79 171.2 30 45" height="45" width="30" version="1.1" y="0" x="0px"><style type="text/css">	.icon001{fill:#FFFFFF;}</style>	<path class="icon001" d="m-59.2 194.5l-7.7 7.7c-0.5 0.5-1.3 0.5-1.8 0s-0.5-1.3 0-1.8l6.8-6.8-6.8-6.8c-0.5-0.5-0.5-1.3 0-1.8s1.3-0.5 1.8 0l7.7 7.7c0.2 0.2 0.4 0.6 0.4 0.9-0.1 0.4-0.2 0.7-0.4 0.9z"/></svg><svg viewBox="-206 298.8 34 18" height="8" width="34" id="arrowdown" y="45"><style type="text/css">.icon002{fill:#3a3a3a;}</style><polygon class="icon002" points="-172,299.7 -189,316.8 -206,299.7 -205.1,298.8 -189,314.8 -172.9,298.8"/></svg><svg xmlns:xlink="http://www.w3.org/1999/xlink" id="arrowsmall" xml:space="preserve" viewBox="-79 171.2 26 26" height="26" width="26" version="1.1" y="53" x="0px"><style type="text/css">	.icon001{fill:#FFFFFF;}</style>	<path class="icon001" d="m-61.8 184.9l-6.9 6.9c-0.4 0.4-1.1 0.4-1.6 0-0.4-0.4-0.4-1.1 0-1.6l6.1-6.1-6.1-6.1c-0.4-0.4-0.4-1.1 0-1.6 0.4-0.4 1.1-0.4 1.6 0l6.9 6.9c0.2 0.2 0.3 0.5 0.3 0.8 0.1 0.3 0 0.6-0.3 0.8z"/></svg><svg xmlns:xlink="http://www.w3.org/1999/xlink" id="bigicon001" xml:space="preserve" viewBox="0 0 148 158" height="158" width="148" version="1.1" y="79" x="0px"><style type="text/css">	.icon003{fill:#F1D094;}</style><rect y="0" x="1" height="158" class="icon003" width="14"/><path class="icon003" d="m23 5.1v80.2s12-8.9 32.3-7.2 51 16.6 69.3 16.5c18.3-0.1 21.7-2.4 21.7-2.4s-18.3-13.2-25.9-24.2c-7.7-11-9.7-18-9.7-18s21.3-20.7 28-29.7 7.7-15.3 7.7-15.3-17.4 6.7-41.7 5c-23.6-1.7-25-10-53.3-10-24.7 0-28.4 5.1-28.4 5.1z"/></svg><svg xmlns:xlink="http://www.w3.org/1999/xlink" id="bigicon002" xml:space="preserve" viewBox="0 0 107 158" height="158" width="107" version="1.1" y="237" x="0px"><style type="text/css">	.icon003{fill:#F1D094;}</style><path class="icon003" d="m64.4 101.1c-0.8-0.8-1.6-1.5-1.6-1.5s0.8-0.7 1.6-1.5c0.4-0.4 0.8-0.8 1-1.2 0.3-0.3 0.4-0.6 0.4-0.6s-0.2-0.2-0.6-0.4c-0.4-0.2-0.8-0.6-1.3-0.8-0.5-0.3-1-0.5-1.3-0.7 0.2-0.3 0.5-0.8 0.8-1.2l1-2s-0.3-0.1-0.7-0.3c-0.4-0.1-1-0.3-1.5-0.5s-1-0.3-1.4-0.4c0.1-0.4 0.3-0.9 0.5-1.4s0.3-1.1 0.4-1.5 0.1-0.7 0.1-0.7-1.2-0.2-2.3-0.2h-1.5c0.1-0.4 0.1-0.9 0.1-1.5v-2.3s-0.3 0-0.7 0.1c-0.4 0.1-1 0.2-1.6 0.3-0.5 0.1-1 0.2-1.4 0.3-0.1-0.4-0.1-0.9-0.2-1.4s-0.2-1.1-0.3-1.5-0.2-0.7-0.2-0.7-1.1 0.4-2.1 0.8c-0.5 0.2-1 0.5-1.3 0.7-0.1-0.4-0.3-0.9-0.6-1.4-0.5-1-1.1-2-1.1-2s-0.2 0.2-0.6 0.4c-0.4 0.3-0.8 0.6-1.3 1-0.4 0.3-0.8 0.7-1.1 1-0.2-0.3-0.5-0.7-0.9-1.2-0.3-0.4-0.7-0.9-1-1.2l-0.5-0.5s-0.8 0.9-1.5 1.7c-0.3 0.4-0.6 0.9-0.8 1.2-0.3-0.3-0.7-0.6-1.1-0.9-0.4-0.4-0.9-0.7-1.3-0.9s-0.6-0.4-0.6-0.4-0.1 0.3-0.4 0.6c-0.2 0.4-0.5 0.9-0.7 1.4s-0.4 1-0.5 1.4c-0.4-0.2-0.8-0.5-1.3-0.7-1-0.4-2.1-0.8-2.1-0.8s-0.1 0.3-0.2 0.7-0.2 1-0.3 1.5-0.2 1-0.2 1.5c-0.4-0.1-0.9-0.2-1.4-0.3-0.6-0.1-1.1-0.2-1.6-0.2-0.4 0-0.7-0.1-0.7-0.1s0 0.3 0 0.7v1.6c0 0.5 0.1 1.1 0.2 1.5h-1.5c-1.1 0.1-2.3 0.3-2.3 0.3s0.1 0.3 0.2 0.7c0.1 0.4 0.3 1 0.4 1.5 0.2 0.5 0.3 1 0.5 1.4-0.4 0.1-0.9 0.2-1.4 0.4s-1.1 0.3-1.5 0.5-0.7 0.3-0.7 0.3 0.1 0.3 0.3 0.6c0.2 0.4 0.4 0.9 0.8 1.4 0.3 0.5 0.6 0.9 0.8 1.2-0.4 0.2-0.9 0.4-1.3 0.7-0.9 0.6-1.9 1.3-1.9 1.3s0.2 0.2 0.5 0.6l1.1 1.1c0.4 0.4 0.8 0.7 1.1 1-0.3 0.3-0.7 0.6-1.1 1l-1.1 1.1c-0.3 0.3-0.5 0.6-0.5 0.6s0.9 0.7 1.9 1.3c0.4 0.3 0.9 0.5 1.3 0.7-0.2 0.3-0.5 0.8-0.8 1.2-0.3 0.5-0.6 1-0.8 1.4l-0.3 0.6s0.3 0.1 0.7 0.3c0.4 0.2 0.9 0.4 1.5 0.5 0.5 0.2 1 0.3 1.4 0.4-0.2 0.4-0.3 0.9-0.5 1.4s-0.3 1.1-0.4 1.5-0.2 0.7-0.2 0.7 1.2 0.2 2.3 0.3h1.5c-0.1 0.4-0.1 0.9-0.2 1.5s-0.1 1.1 0 1.6v0.7s0.3 0 0.7-0.1c0.4 0 1-0.1 1.6-0.2 0.5-0.1 1-0.2 1.4-0.3 0 0.4 0.1 0.9 0.2 1.5 0.1 0.5 0.2 1.1 0.3 1.5s0.2 0.7 0.2 0.7 1.1-0.4 2.1-0.8c0.5-0.2 1-0.5 1.3-0.7 0.1 0.4 0.3 0.9 0.5 1.4s0.5 1 0.7 1.4 0.4 0.6 0.4 0.6 0.2-0.2 0.6-0.4c0.4-0.2 0.8-0.5 1.3-0.9 0.4-0.3 0.8-0.7 1.1-0.9 0.2 0.3 0.5 0.8 0.8 1.2 0.7 0.9 1.5 1.7 1.5 1.7s0.2-0.2 0.5-0.5c0.3-0.3 0.7-0.8 1-1.2s0.6-0.8 0.9-1.2c0.3 0.3 0.7 0.6 1.1 1s0.9 0.7 1.3 1c0.4 0.2 0.6 0.4 0.6 0.4s0.6-1 1.1-2c0.2-0.5 0.4-1 0.6-1.4 0.4 0.2 0.8 0.5 1.3 0.7 1 0.5 2.1 0.8 2.1 0.8s0.1-0.3 0.2-0.7c0.1-0.4 0.2-1 0.3-1.5s0.2-1 0.2-1.4c0.4 0.1 0.9 0.2 1.4 0.3s1.1 0.2 1.6 0.3c0.4 0.1 0.7 0.1 0.7 0.1s0.1-1.2 0-2.3c0-0.5-0.1-1.1-0.1-1.5h1.5c1.1 0 2.3-0.2 2.3-0.2s-0.1-0.3-0.1-0.7c-0.1-0.4-0.2-1-0.4-1.5s-0.3-1-0.5-1.4c0.4-0.1 0.9-0.2 1.4-0.4s1.1-0.3 1.5-0.5c0.4-0.1 0.7-0.3 0.7-0.3s-0.5-1.1-1-2c-0.3-0.5-0.6-0.9-0.8-1.2 0.4-0.2 0.8-0.4 1.3-0.7s1-0.6 1.3-0.8c0.4-0.2 0.6-0.4 0.6-0.4s-0.2-0.2-0.4-0.6c-0.2-0.4-0.6-0.8-1-1.2z"/><path class="icon003" d="m43 128.5c-5.5 0-10.6-1.5-14.9-4.2v33.7l15-8.6 15.2 8.6v-33.9c-4.4 2.8-9.7 4.4-15.3 4.4z"/><rect width="11.3" class="icon003" height="135"/><rect y="124.1" width="21.2" class="icon003" height="10.9"/><rect y="124.1" x="65.7" height="10.9" class="icon003" width="41.3"/><rect y="23.2" x="95.6" height="111.8" class="icon003" width="11.4"/><polygon points="85.4 11.3 0 11.3 0 0 80.3 0" class="icon003"/><polygon points="85.4 0 75.2 0 75.2 33.7 107 33.7 107 23.2" class="icon003"/></svg><svg xmlns:xlink="http://www.w3.org/1999/xlink" id="bigicon003" xml:space="preserve" viewBox="-53.9 145.3 116 158" height="158" width="116" version="1.1" y="395" x="0px"><style type="text/css">	.icon003{fill:#F1D094;}</style>			<path class="icon003" d="m52 214.8v-21.6c0-26.4-21.5-47.9-47.9-47.9s-47.9 21.5-47.9 47.9v21.6h-10.2v88.5h116.3v-88.5h-10.3zm-77.7-21.6c0-16.4 13.4-29.8 29.8-29.8s29.8 13.4 29.8 29.8v21.6h-59.6v-21.6zm38.1 85.8h-16.5l2.5-24.3c-3-1.9-5.1-5.3-5.1-9.1 0-6 4.8-10.8 10.8-10.8s10.8 4.8 10.8 10.8c0 3.9-2 7.2-5.1 9.1l2.6 24.3z"/></svg><svg xmlns:xlink="http://www.w3.org/1999/xlink" id="icon001" xml:space="preserve" viewBox="-69 161.4 15 15" height="15" width="15" version="1.1" y="553" x="0px"><style type="text/css">	.icon001{fill:#FFFFFF;}</style>		<path class="icon001" d="m-61.5 162.4c1.7 0 3.4 0.7 4.6 1.9 2.5 2.5 2.5 6.7 0 9.2-1.2 1.2-2.9 1.9-4.6 1.9s-3.4-0.7-4.6-1.9c-2.5-2.5-2.5-6.7 0-9.2 1.2-1.2 2.9-1.9 4.6-1.9m0-1c-1.9 0-3.8 0.7-5.3 2.2-2.9 2.9-2.9 7.7 0 10.6 1.5 1.5 3.4 2.2 5.3 2.2s3.8-0.7 5.3-2.2c2.9-2.9 2.9-7.7 0-10.6-1.5-1.5-3.4-2.2-5.3-2.2z"/></svg><svg xmlns:xlink="http://www.w3.org/1999/xlink" id="icon002" xml:space="preserve" viewBox="-298 389 15 15" height="15" width="15" version="1.1" y="568" x="0px"><style type="text/css">	.icon001{fill:#FFFFFF;}</style>	<g id="icon002-stop">		<path class="icon001" d="m-286.1 392.1v8.8h-8.8v-8.8h8.8m1-1h-10.8v10.8h10.8v-10.8z"/>	</g></svg><svg xmlns:xlink="http://www.w3.org/1999/xlink" id="icon003" xml:space="preserve" viewBox="-267 435 15 15" height="15" width="15" version="1.1" y="583" x="0px"><style type="text/css">	.icon001{fill:#FFFFFF;}</style>			<path class="icon001" d="m-259.5 436.3l6.3 5.2-2.4 7.5h-7.8l-2.4-7.5 6.3-5.2m0-1.3l-7.5 6.2 2.9 8.8h9.3l2.9-8.8-7.6-6.2z"/></svg><svg xmlns:xlink="http://www.w3.org/1999/xlink" id="icon004" style="enable-background:new -298 389 15 15" xml:space="preserve" viewBox="-298 389 15 15" version="1.1" y="598" x="0px" width="15" height="15"><style type="text/css">	.icon001{fill:#FFFFFF;}</style>		<path class="icon001" d="m-290.7 392.4l5.7 9.1h-11.4l5.7-9.1m0-1.9l-7.4 12h15l-7.6-12z"/></svg><svg xmlns:xlink="http://www.w3.org/1999/xlink" id="icon005" xml:space="preserve" viewBox="-98 604 15 15" height="15" width="15" version="1.1" y="630" x="0px"><style type="text/css">	.icon001{fill:#FFFFFF;}</style>		<path class="icon001" d="m-90.5 607.1c0.3 0.9 0.6 1.9 1 2.8l0.2 0.7h0.7c1 0 2 0 3 0.1-0.7 0.6-1.6 1.2-2.4 1.8l-0.5 0.4 0.2 0.7c0.2 1 0.5 2 0.7 2.8-0.8-0.6-1.6-1.2-2.3-1.6l-0.6-0.4-0.6 0.4c-0.8 0.6-1.7 1.2-2.4 1.7 0.3-0.9 0.6-1.9 0.9-2.8l0.2-0.7-0.6-0.4-2.4-1.8c0.9 0 2 0 3-0.1h0.7l0.2-0.7c0.4-1 0.7-2 1-2.9m0-2.8c-0.1 0-1.9 5.2-1.9 5.2s-5.5 0.1-5.6 0.2c0 0.1 4.4 3.4 4.4 3.4s-1.6 5.3-1.5 5.4c0.2 0 4.6-3.1 4.6-3.1s4.4 3.2 4.5 3.2c0.1 0-1.4-5.4-1.4-5.4s4.4-3.3 4.4-3.4c0-0.1-5.6-0.2-5.6-0.2s-1.8-5.3-1.9-5.3z"/></svg><svg xmlns:xlink="http://www.w3.org/1999/xlink" id="icon006" xml:space="preserve" viewBox="-56 646 15 15" height="15" width="15" version="1.1" y="645" x="0px"><style type="text/css">	.icon001{fill:#FFFFFF;}</style>			<path class="icon001" d="m-48.5 647.4l6.1 6.1-6.1 6.1-6.1-6.1 6.1-6.1m0-1.4l-7.5 7.5 7.5 7.5 7.5-7.5-7.5-7.5z"/></svg><svg xmlns:xlink="http://www.w3.org/1999/xlink" id="icon007" style="enable-background:new -298 389 15 15" xml:space="preserve" viewBox="-298 389 15 15" version="1.1" y="660" x="0px" width="15" height="15"><style type="text/css">	.icon001{fill:#FFFFFF;}</style>			<path class="icon001" d="m-287.4 391l3.2 5.5-3.2 5.5h-6.3l-3.2-5.5 3.2-5.5h6.3m0.6-1h-7.5l-3.7 6.5 3.7 6.5h7.5l3.7-6.5-3.7-6.5z"/></svg><svg xmlns:xlink="http://www.w3.org/1999/xlink" id="icon008" xml:space="preserve" viewBox="-62 154.3 15 15" height="15" width="15" version="1.1" y="692" x="0px"><style type="text/css">	.icon001{fill:#FFFFFF;}</style>			<path class="icon001" d="m-48 156.3v5l-6.9 6h-6.1v-5l6.9-6h6.1m1-1h-7.5l-7.5 6.5v6.5h7.5l7.5-6.5v-6.5z"/></svg><svg xmlns:xlink="http://www.w3.org/1999/xlink" id="iconchat" xml:space="preserve" viewBox="-267 359 76 66" height="27" width="27" version="1.1" y="707" x="0px"><style type="text/css">	.icon001{fill:#FFFFFF;}</style><g id="iconchat-_x37_7_Essential_Icons_11_">	<path id="iconchat-Message" d="m-193 359h-72c-1.1 0-2 0.9-2 2v48c0 1.1 0.9 2 2 2h16v12c0 1.8 2.1 2.7 3.4 1.4l13.6-13.4h39c1.1 0 2-0.9 2-2v-48c0-1.1-0.9-2-2-2z" class="icon001"/></g></svg><svg xmlns:xlink="http://www.w3.org/1999/xlink" id="iconclockblack" xml:space="preserve" viewBox="-297 388 17 17" height="18" width="18" version="1.1" y="734" x="0px"><style type="text/css">	.icon002{fill:#3A3A3A;}</style>		<path class="icon002" d="m-280.7 393.2c-0.9-2.1-2.4-3.6-4.5-4.5-1.1-0.4-2.2-0.7-3.3-0.7-1.2 0-2.2 0.2-3.3 0.7-2.1 0.9-3.6 2.4-4.5 4.5-0.4 1-0.7 2.1-0.7 3.3s0.2 2.3 0.7 3.3c0.9 2.1 2.4 3.6 4.5 4.5 1.1 0.5 2.1 0.7 3.3 0.7s2.3-0.2 3.3-0.7c2.1-0.9 3.6-2.4 4.5-4.5 0.5-1.1 0.7-2.2 0.7-3.3 0-1.2-0.2-2.3-0.7-3.3zm-1.3 7c-0.7 1.1-1.6 2.1-2.7 2.7-1.1 0.7-2.4 1-3.7 1-1 0-2-0.2-2.9-0.6s-1.7-0.9-2.4-1.6-1.2-1.5-1.6-2.4-0.6-1.9-0.6-2.9c0-1.3 0.3-2.6 1-3.7s1.6-2.1 2.7-2.7c1.1-0.7 2.4-1 3.7-1s2.6 0.3 3.7 1c1.2 0.7 2.1 1.6 2.7 2.7 0.7 1.1 1 2.4 1 3.7 0.1 1.4-0.3 2.7-0.9 3.8z"/>		<path class="icon002" d="m-288 396.4v-4.8c0-0.3-0.3-0.5-0.5-0.5-0.3 0-0.5 0.2-0.5 0.5v4.9 0.1c0 0.2 0 0.3 0.1 0.4l2.8 2.8c0.2 0.2 0.5 0.2 0.7 0s0.2-0.5 0-0.7l-2.6-2.7z"/></svg><svg xmlns:xlink="http://www.w3.org/1999/xlink" id="iconclockwhite" xml:space="preserve" viewBox="-297 388 17 17" height="18" width="18" version="1.1" y="752" x="0px"><style type="text/css">	.icon001{fill:#FFFFFF;}</style>		<path class="icon001" d="m-280.7 393.2c-0.9-2.1-2.4-3.6-4.5-4.5-1.1-0.4-2.2-0.7-3.3-0.7-1.2 0-2.2 0.2-3.3 0.7-2.1 0.9-3.6 2.4-4.5 4.5-0.4 1-0.7 2.1-0.7 3.3s0.2 2.3 0.7 3.3c0.9 2.1 2.4 3.6 4.5 4.5 1.1 0.5 2.1 0.7 3.3 0.7s2.3-0.2 3.3-0.7c2.1-0.9 3.6-2.4 4.5-4.5 0.5-1.1 0.7-2.2 0.7-3.3 0-1.2-0.2-2.3-0.7-3.3zm-1.3 7c-0.7 1.1-1.6 2.1-2.7 2.7-1.1 0.7-2.4 1-3.7 1-1 0-2-0.2-2.9-0.6s-1.7-0.9-2.4-1.6-1.2-1.5-1.6-2.4-0.6-1.9-0.6-2.9c0-1.3 0.3-2.6 1-3.7s1.6-2.1 2.7-2.7c1.1-0.7 2.4-1 3.7-1s2.6 0.3 3.7 1c1.2 0.7 2.1 1.6 2.7 2.7 0.7 1.1 1 2.4 1 3.7 0.1 1.4-0.3 2.7-0.9 3.8z"/>		<path class="icon001" d="m-288 396.4v-4.8c0-0.3-0.3-0.5-0.5-0.5-0.3 0-0.5 0.2-0.5 0.5v4.9 0.1c0 0.2 0 0.3 0.1 0.4l2.8 2.8c0.2 0.2 0.5 0.2 0.7 0s0.2-0.5 0-0.7l-2.6-2.7z"/></svg><svg viewBox="-127 575 20 20" height="20" width="20" id="iconclose" y="770"><style type="text/css">.icon001{fill:#FFFFFF;}</style><polygon class="icon001" points="-107,577 -109,575 -117,583 -125,575 -127,577 -119,585 -127,593 -125,595 -117,587 -109,595 -107,593 -115,585" id="iconclose-close"/></svg><svg xmlns:xlink="http://www.w3.org/1999/xlink" id="iconnetwork" xml:space="preserve" viewBox="0 703 32 40" height="25" width="20" version="1.1" y="790" x="0px"><style type="text/css">	.icon001{fill:#FFFFFF;}</style>		<path class="icon001" d="m16 724.3c5.9 0 8-5.9 8.6-10.8 0.7-6-2.1-10.5-8.6-10.5s-9.3 4.5-8.6 10.5c0.6 4.9 2.7 10.8 8.6 10.8z"/>		<path class="icon001" d="m32 738.4c-0.1-1.9-0.3-3.8-0.6-5.6-0.4-2.3-0.9-5.6-2.9-7-1.1-0.8-2.6-1.1-3.9-1.6-0.6-0.2-1.2-0.5-1.7-0.8-1.8 2-4.1 3-6.9 3-2.7 0-5.1-1-6.9-3-0.5 0.3-1.1 0.5-1.7 0.8-1.3 0.5-2.8 0.8-3.9 1.6-2 1.5-2.5 4.8-2.9 7-0.3 1.9-0.6 3.8-0.6 5.6-0.1 1.5 0.7 1.7 1.9 2.1 1.5 0.6 3.1 1 4.7 1.3 3.1 0.6 6.2 1.1 9.4 1.2 3.2 0 6.3-0.5 9.4-1.2 1.6-0.3 3.2-0.7 4.7-1.3 1.2-0.4 1.9-0.6 1.9-2.1z"/></svg><svg xmlns:xlink="http://www.w3.org/1999/xlink" id="iconnetworkcolor" xml:space="preserve" viewBox="0 703 32 40" height="25" width="20" version="1.1" y="820" x="0px"><style type="text/css">	.icon006{fill:#0F8DCB;}</style>		<path class="icon006" d="m16 724.3c5.9 0 8-5.9 8.6-10.8 0.7-6-2.1-10.5-8.6-10.5s-9.3 4.5-8.6 10.5c0.6 4.9 2.7 10.8 8.6 10.8z"/>		<path class="icon006" d="m32 738.4c-0.1-1.9-0.3-3.8-0.6-5.6-0.4-2.3-0.9-5.6-2.9-7-1.1-0.8-2.6-1.1-3.9-1.6-0.6-0.2-1.2-0.5-1.7-0.8-1.8 2-4.1 3-6.9 3-2.7 0-5.1-1-6.9-3-0.5 0.3-1.1 0.5-1.7 0.8-1.3 0.5-2.8 0.8-3.9 1.6-2 1.5-2.5 4.8-2.9 7-0.3 1.9-0.6 3.8-0.6 5.6-0.1 1.5 0.7 1.7 1.9 2.1 1.5 0.6 3.1 1 4.7 1.3 3.1 0.6 6.2 1.1 9.4 1.2 3.2 0 6.3-0.5 9.4-1.2 1.6-0.3 3.2-0.7 4.7-1.3 1.2-0.4 1.9-0.6 1.9-2.1z"/></svg><svg xmlns:xlink="http://www.w3.org/1999/xlink" id="prices001" xml:space="preserve" viewBox="-289 381 20 20" height="20" width="20" version="1.1" y="850" x="0px"><style type="text/css">	.icon005{fill:#3A3A3A;}</style>		<path class="icon005" d="m-269 398.8c0 0.7-0.6 1.3-1.3 1.3s-1.3-0.6-1.3-1.3 0.6-2.5 1.3-2.5c0.7 0 1.3 1.8 1.3 2.5zm-1.9-9.4v5.6c0 0.3 0.3 0.6 0.6 0.6s0.6-0.3 0.6-0.6v-5.6c0-0.3-0.3-0.6-0.6-0.6s-0.6 0.2-0.6 0.6zm0.4-1.3l-1.7 0.4v5.3c0 1.7-1.9 3.1-6.9 3.1s-6.9-1.5-6.9-3.1v-5.3l-1.7-0.4c-0.9-0.2-1.5-0.9-1.5-1.8s0.6-1.6 1.5-1.8l8.1-1.9h0.4s0.3 0 0.4 0l8.1 1.9c0.9 0.2 1.5 0.9 1.5 1.8s-0.4 1.6-1.3 1.8zm-2.9 0.7l-5.2 1.2h-0.4s-0.3 0-0.4 0l-5.2-1.2v5c0 0.7 1.9 1.9 5.6 1.9s5.6-1.2 5.6-1.9v-5zm2.7-1.9c0.3-0.1 0.5-0.3 0.5-0.6s-0.2-0.5-0.5-0.6l-8.1-1.9h-0.1-0.1l-8.1 1.9c-0.3 0.1-0.5 0.3-0.5 0.6s0.2 0.5 0.5 0.6l8.1 1.9h0.1 0.1l8.1-1.9z"/></svg><svg xmlns:xlink="http://www.w3.org/1999/xlink" id="prices002" xml:space="preserve" viewBox="-84 176 20 20" height="20" width="20" version="1.1" y="870" x="0px"><style type="text/css">	.icon005{fill:#3A3A3A;}</style>	<path class="icon005" d="m-65.9 181.2h-0.5c-0.2 0-0.5 0.2-0.5 0.5 0 0.2 0.2 0.5 0.5 0.5v13h-10.1c0-0.2-0.2-0.5-0.5-0.5-0.2 0-0.5 0.2-0.5 0.5v0.5c0 0.2 0.2 0.5 0.5 0.5h11.1c0.2 0 0.5-0.2 0.5-0.5v-13.9c0-0.4-0.2-0.6-0.5-0.6z"/>	<path class="icon005" d="m-67.2 193.8v-13.9c0-0.2-0.2-0.5-0.5-0.5h-0.5c-0.2 0-0.5 0.2-0.5 0.5 0 0.2 0.2 0.5 0.5 0.5v13h-10.1c0-0.2-0.2-0.5-0.5-0.5-0.2 0-0.5 0.2-0.5 0.5v0.5c0 0.2 0.2 0.5 0.5 0.5h11.1c0.3-0.1 0.5-0.3 0.5-0.6z"/>	<path class="icon005" d="m-68.9 192.1v-13.9c0-0.2-0.2-0.5-0.5-0.5h-1.5c-0.2 0-0.5 0.2-0.5 0.5 0 0.2 0.2 0.5 0.5 0.5h1v13h-10.1c0-0.2-0.2-0.5-0.5-0.5-0.2 0-0.5 0.2-0.5 0.5v0.5c0 0.2 0.2 0.5 0.5 0.5h11.1c0.3-0.1 0.5-0.3 0.5-0.6z"/>	<path class="icon005" d="m-70.6 190.4v-10.6l-3.3-3.3h-7.7c-0.2 0-0.5 0.2-0.5 0.5v13.9c0 0.2 0.2 0.5 0.5 0.5h11.1c-0.3-0.6-0.1-0.8-0.1-1zm-3.3-12.9l1.8 1.8h-1.8v-1.8zm-7.8 12.4v-13h6.8v2.9c0 0.2 0.2 0.5 0.5 0.5h2.9v9.7h-10.2z"/></svg><svg xmlns:xlink="http://www.w3.org/1999/xlink" id="prices003" xml:space="preserve" viewBox="-289 381.1 20 20" height="20" width="20" version="1.1" y="890" x="0px"><style type="text/css">	.icon005{fill:#3A3A3A;}</style>		<path class="icon005" d="m-272.2 383.5h1.2c0.5 0 0.8-0.4 0.8-0.8v-0.7c0-0.5-0.4-0.8-0.8-0.8h-16.2c-0.5 0-0.8 0.4-0.8 0.8v0.6c0 0.5 0.4 0.8 0.8 0.8h1.2c0.1 3.1 1.3 6 3.2 7.6-2 1.7-3.2 4.6-3.2 7.8h-1.2c-0.5 0-0.8 0.4-0.8 0.8v0.6c0 0.5 0.4 0.8 0.8 0.8h16.2c0.5 0 0.8-0.4 0.8-0.8v-0.6c0-0.5-0.4-0.8-0.8-0.8h-1.2c0-3.2-1.3-6.1-3.2-7.8 1.9-1.6 3.1-4.4 3.2-7.5zm-5.4 8.2l0.3 0.2c2.1 1 3.6 3.8 3.6 6.9h-10.8c0-3.1 1.5-5.9 3.6-6.9l0.3-0.2c0.3-0.1 0.4-0.4 0.4-0.7s-0.2-0.6-0.4-0.7l-0.3-0.1c-2.1-1-3.5-3.7-3.6-6.7h10.8c-0.1 3-1.5 5.7-3.6 6.7l-0.3 0.2c-0.3 0.1-0.4 0.4-0.4 0.7-0.1 0.2 0.1 0.5 0.4 0.6z"/>		<path class="icon005" d="m-282.5 398.1h7.3c-0.2-1.8-1.8-3.2-3.6-3.2-1.9 0-3.4 1.4-3.7 3.2z"/>		<path class="icon005" d="m-276.4 388.5h-5.5c0.7 0.8 1.6 1.2 2.7 1.2 1.2 0 2.2-0.5 2.8-1.2z"/></svg><svg xmlns:xlink="http://www.w3.org/1999/xlink" id="prices004" xml:space="preserve" viewBox="-92 183.5 20 20" height="20" width="20" version="1.1" y="910" x="0px"><style type="text/css">	.icon005{fill:#3A3A3A;}</style>		<path class="icon005" d="m-86.7 188.2h5c0.3 0 0.5-0.2 0.5-0.5s-0.2-0.5-0.5-0.5h-5c-0.3 0-0.5 0.2-0.5 0.5s0.3 0.5 0.5 0.5z"/>		<path class="icon005" d="m-86.7 190.6h6.8c0.3 0 0.5-0.2 0.5-0.5s-0.2-0.5-0.5-0.5h-6.8c-0.3 0-0.5 0.2-0.5 0.5s0.3 0.5 0.5 0.5z"/>		<path class="icon005" d="m-88.6 184.9h10.6v7.4c0.2 0.1 0.3 0.1 0.5 0.2 0.2-0.1 0.5-0.3 0.9-0.3v-7.3c0-0.8-0.6-1.4-1.4-1.4h-10.6c-0.8 0-1.4 0.6-1.4 1.4v15.7c0 0.8 0.6 1.4 1.4 1.4h8.5v-1.4h-8.5v-15.7z"/>		<path class="icon005" d="m-74.4 195.8c-0.1-0.1-0.2-0.2-0.2-0.3v-0.4c0.1-0.2 0.1-0.5 0-0.7s-0.4-0.2-0.7-0.3c-0.1 0-0.3 0-0.4-0.1s-0.1-0.2-0.2-0.3c-0.1-0.2-0.2-0.5-0.4-0.6h-0.1c-0.2 0-0.4 0.1-0.5 0.2s-0.3 0.2-0.4 0.2-0.2-0.1-0.4-0.2-0.3-0.2-0.5-0.2h-0.1c-0.2 0.1-0.3 0.3-0.4 0.6-0.1 0.1-0.1 0.3-0.2 0.3-0.1 0.1-0.2 0.1-0.4 0.1s-0.5 0.1-0.7 0.3c-0.1 0.2-0.1 0.5 0 0.7 0 0.1 0.1 0.3 0 0.4 0 0.1-0.1 0.2-0.2 0.3-0.2 0.2-0.4 0.3-0.4 0.6s0.2 0.4 0.4 0.6c0.1 0.1 0.2 0.2 0.2 0.3v0.4c-0.1 0.2-0.1 0.5 0 0.7s0.4 0.2 0.7 0.3c0.1 0 0.3 0 0.4 0.1s0.1 0.2 0.2 0.3c0.1 0.2 0.2 0.5 0.4 0.6h0.1c0.2 0 0.4-0.1 0.5-0.2s0.3-0.2 0.4-0.2 0.2 0.1 0.4 0.2 0.3 0.2 0.5 0.2h0.1c0.2-0.1 0.3-0.3 0.4-0.6 0.1-0.1 0.1-0.3 0.2-0.3 0.1-0.1 0.2-0.1 0.4-0.1s0.5-0.1 0.7-0.3c0.1-0.2 0.1-0.5 0-0.7 0-0.1-0.1-0.3 0-0.4 0-0.1 0.1-0.2 0.2-0.3 0.2-0.2 0.4-0.3 0.4-0.6s-0.2-0.5-0.4-0.6zm-3 1.8c-0.7 0-1.2-0.5-1.2-1.2s0.5-1.2 1.2-1.2 1.2 0.5 1.2 1.2c0.1 0.6-0.5 1.2-1.2 1.2z"/>		<path class="icon005" d="m-76.2 199.9h-0.2c-0.3 0-0.5-0.1-0.7-0.2-0.1 0-0.1-0.1-0.2-0.1s-0.1 0.1-0.2 0.1c-0.2 0.1-0.4 0.2-0.7 0.2h-0.2c-0.2-0.1-0.4-0.2-0.5-0.4v3.9c0 0.1 0 0.1 0.1 0.2h0.2l1.3-1.2 1.3 1.2 0.1 0.1h0.1c0.1 0 0.1-0.1 0.1-0.2v-3.9c-0.1 0-0.3 0.2-0.5 0.3z"/></svg><svg xmlns:xlink="http://www.w3.org/1999/xlink" id="slideshare" xml:space="preserve" viewBox="0 0 744 132" height="30" width="170" version="1.1" y="930" x="0px"><style type="text/css">	.st0{fill:#5FB1DB;}	.st1{fill:#0F8DCB;}	.st2{fill:#008ED3;}	.st3{fill:#38B5E7;}	.st4{fill:#F6921E;}	.st5{clip-path:url(#slideshare-SVGID_2_);fill:#0072BB;}	.st6{clip-path:url(#slideshare-SVGID_2_);fill:#0073BC;}	.st7{clip-path:url(#slideshare-SVGID_2_);fill:#0075BD;}	.st8{clip-path:url(#slideshare-SVGID_2_);fill:#0076BF;}	.st9{clip-path:url(#slideshare-SVGID_2_);fill:#0077BF;}	.st10{clip-path:url(#slideshare-SVGID_2_);fill:#0079C0;}	.st11{clip-path:url(#slideshare-SVGID_2_);fill:#007AC2;}	.st12{clip-path:url(#slideshare-SVGID_2_);fill:#007BC3;}	.st13{clip-path:url(#slideshare-SVGID_2_);fill:#007CC4;}	.st14{clip-path:url(#slideshare-SVGID_2_);fill:#007DC4;}	.st15{clip-path:url(#slideshare-SVGID_2_);fill:#007FC5;}	.st16{clip-path:url(#slideshare-SVGID_2_);fill:#0080C6;}	.st17{clip-path:url(#slideshare-SVGID_2_);fill:#0080C7;}	.st18{clip-path:url(#slideshare-SVGID_2_);fill:#0081C8;}	.st19{clip-path:url(#slideshare-SVGID_2_);fill:#0081C9;}	.st20{clip-path:url(#slideshare-SVGID_2_);fill:#0082C9;}	.st21{clip-path:url(#slideshare-SVGID_2_);fill:#0083CA;}	.st22{clip-path:url(#slideshare-SVGID_2_);fill:#0084CB;}	.st23{clip-path:url(#slideshare-SVGID_2_);fill:#0085CB;}	.st24{clip-path:url(#slideshare-SVGID_2_);fill:#0085CC;}	.st25{clip-path:url(#slideshare-SVGID_2_);fill:#0086CD;}	.st26{clip-path:url(#slideshare-SVGID_2_);fill:#0087CD;}	.st27{clip-path:url(#slideshare-SVGID_2_);fill:#0088CE;}	.st28{clip-path:url(#slideshare-SVGID_2_);fill:#0088CF;}	.st29{clip-path:url(#slideshare-SVGID_2_);fill:#0089CF;}	.st30{clip-path:url(#slideshare-SVGID_2_);fill:#008AD0;}	.st31{clip-path:url(#slideshare-SVGID_2_);fill:#008BD1;}	.st32{clip-path:url(#slideshare-SVGID_2_);fill:#008CD1;}	.st33{clip-path:url(#slideshare-SVGID_2_);fill:#008CD2;}	.st34{clip-path:url(#slideshare-SVGID_2_);fill:#008DD2;}	.st35{clip-path:url(#slideshare-SVGID_2_);fill:#008DD3;}	.st36{clip-path:url(#slideshare-SVGID_2_);fill:#008ED3;}	.st37{clip-path:url(#slideshare-SVGID_4_);fill:#D8711C;}	.st38{clip-path:url(#slideshare-SVGID_4_);fill:#DC751C;}	.st39{clip-path:url(#slideshare-SVGID_4_);fill:#DE771C;}	.st40{clip-path:url(#slideshare-SVGID_4_);fill:#E07A1D;}	.st41{clip-path:url(#slideshare-SVGID_4_);fill:#E37D1D;}	.st42{clip-path:url(#slideshare-SVGID_4_);fill:#E57F1D;}	.st43{clip-path:url(#slideshare-SVGID_4_);fill:#E6801D;}	.st44{clip-path:url(#slideshare-SVGID_4_);fill:#E8821D;}	.st45{clip-path:url(#slideshare-SVGID_4_);fill:#EA851D;}	.st46{clip-path:url(#slideshare-SVGID_4_);fill:#EB861D;}	.st47{clip-path:url(#slideshare-SVGID_4_);fill:#ED881D;}	.st48{clip-path:url(#slideshare-SVGID_4_);fill:#ED891D;}	.st49{clip-path:url(#slideshare-SVGID_4_);fill:#EE8A1D;}	.st50{clip-path:url(#slideshare-SVGID_4_);fill:#EF8B1D;}	.st51{clip-path:url(#slideshare-SVGID_4_);fill:#F18D1D;}	.st52{clip-path:url(#slideshare-SVGID_4_);fill:#F28E1D;}	.st53{clip-path:url(#slideshare-SVGID_4_);fill:#F38F1D;}	.st54{clip-path:url(#slideshare-SVGID_4_);fill:#F5901E;}	.st55{clip-path:url(#slideshare-SVGID_4_);fill:#F5911D;}	.st56{clip-path:url(#slideshare-SVGID_4_);fill:#F6921E;}	.st57{clip-path:url(#slideshare-SVGID_6_);fill:#F5B257;}	.st58{clip-path:url(#slideshare-SVGID_6_);fill:#F7B457;}	.st59{clip-path:url(#slideshare-SVGID_6_);fill:#FAB758;}	.st60{clip-path:url(#slideshare-SVGID_6_);fill:#FAB858;}	.st61{clip-path:url(#slideshare-SVGID_8_);fill:#0072BB;}	.st62{clip-path:url(#slideshare-SVGID_8_);fill:#0073BC;}	.st63{clip-path:url(#slideshare-SVGID_8_);fill:#0075BD;}	.st64{clip-path:url(#slideshare-SVGID_8_);fill:#0076BF;}	.st65{clip-path:url(#slideshare-SVGID_8_);fill:#0077BF;}	.st66{clip-path:url(#slideshare-SVGID_8_);fill:#0079C0;}	.st67{clip-path:url(#slideshare-SVGID_8_);fill:#007AC2;}	.st68{clip-path:url(#slideshare-SVGID_8_);fill:#007BC3;}	.st69{clip-path:url(#slideshare-SVGID_8_);fill:#007CC4;}	.st70{clip-path:url(#slideshare-SVGID_8_);fill:#007DC4;}	.st71{clip-path:url(#slideshare-SVGID_8_);fill:#007FC5;}	.st72{clip-path:url(#slideshare-SVGID_8_);fill:#0080C6;}	.st73{clip-path:url(#slideshare-SVGID_8_);fill:#0080C7;}	.st74{clip-path:url(#slideshare-SVGID_8_);fill:#0081C8;}	.st75{clip-path:url(#slideshare-SVGID_8_);fill:#0081C9;}	.st76{clip-path:url(#slideshare-SVGID_8_);fill:#0082C9;}	.st77{clip-path:url(#slideshare-SVGID_8_);fill:#0083CA;}	.st78{clip-path:url(#slideshare-SVGID_8_);fill:#0084CB;}	.st79{clip-path:url(#slideshare-SVGID_8_);fill:#0085CB;}	.st80{clip-path:url(#slideshare-SVGID_8_);fill:#0085CC;}	.st81{clip-path:url(#slideshare-SVGID_8_);fill:#0086CD;}	.st82{clip-path:url(#slideshare-SVGID_8_);fill:#0087CD;}	.st83{clip-path:url(#slideshare-SVGID_8_);fill:#0088CE;}	.st84{clip-path:url(#slideshare-SVGID_8_);fill:#0088CF;}	.st85{clip-path:url(#slideshare-SVGID_8_);fill:#0089CF;}	.st86{clip-path:url(#slideshare-SVGID_8_);fill:#008AD0;}	.st87{clip-path:url(#slideshare-SVGID_8_);fill:#008BD1;}	.st88{clip-path:url(#slideshare-SVGID_8_);fill:#008CD1;}	.st89{clip-path:url(#slideshare-SVGID_8_);fill:#008CD2;}	.st90{clip-path:url(#slideshare-SVGID_8_);fill:#008DD2;}	.st91{clip-path:url(#slideshare-SVGID_8_);fill:#008DD3;}	.st92{clip-path:url(#slideshare-SVGID_8_);fill:#008ED3;}	.st93{clip-path:url(#slideshare-SVGID_10_);fill:#3CB1E4;}	.st94{clip-path:url(#slideshare-SVGID_10_);fill:#3BB2E4;}	.st95{clip-path:url(#slideshare-SVGID_10_);fill:#3BB2E5;}	.st96{clip-path:url(#slideshare-SVGID_10_);fill:#3AB3E5;}	.st97{clip-path:url(#slideshare-SVGID_10_);fill:#39B3E6;}	.st98{clip-path:url(#slideshare-SVGID_10_);fill:#39B4E6;}	.st99{clip-path:url(#slideshare-SVGID_10_);fill:#38B5E7;}	.st100{fill:#0072A9;}	.st101{fill:#FAB859;}	.st102{clip-path:url(#slideshare-SVGID_12_);fill:#D8711C;}	.st103{clip-path:url(#slideshare-SVGID_12_);fill:#DC751C;}	.st104{clip-path:url(#slideshare-SVGID_12_);fill:#DF791C;}	.st105{clip-path:url(#slideshare-SVGID_12_);fill:#E27C1D;}	.st106{clip-path:url(#slideshare-SVGID_12_);fill:#E57F1D;}	.st107{clip-path:url(#slideshare-SVGID_12_);fill:#E6801D;}	.st108{clip-path:url(#slideshare-SVGID_12_);fill:#E8821D;}	.st109{clip-path:url(#slideshare-SVGID_12_);fill:#EA851D;}	.st110{clip-path:url(#slideshare-SVGID_12_);fill:#EC871D;}	.st111{clip-path:url(#slideshare-SVGID_12_);fill:#ED881D;}	.st112{clip-path:url(#slideshare-SVGID_12_);fill:#EE8A1D;}	.st113{clip-path:url(#slideshare-SVGID_12_);fill:#EF8B1D;}	.st114{clip-path:url(#slideshare-SVGID_12_);fill:#F18D1D;}	.st115{clip-path:url(#slideshare-SVGID_12_);fill:#F28E1D;}	.st116{clip-path:url(#slideshare-SVGID_12_);fill:#F38F1D;}	.st117{clip-path:url(#slideshare-SVGID_12_);fill:#F5901E;}	.st118{clip-path:url(#slideshare-SVGID_12_);fill:#F5911D;}	.st119{clip-path:url(#slideshare-SVGID_12_);fill:#F6921E;}	.st120{clip-path:url(#slideshare-SVGID_14_);fill:#FAB858;}</style><path class="st0" d="m254.8 84.4c0 1.6-0.3 3.3-0.9 5.3s-1.7 3.8-3.3 5.7c-1.6 1.8-4 3.4-7.2 4.7s-7.2 2-12 2c-4.2 0-7.6-0.4-10-1.3-2.5-0.9-4.6-2.1-6.3-3.6-1.8-1.6-3.3-3.4-4.4-5.4s-1.7-3.9-1.7-5.5c0-0.9 0.4-1.7 1.1-2.3s1.5-0.9 2.3-0.9c0.9 0 1.6 0.3 2 0.9s0.9 1.5 1.4 2.8c2.7 6.5 8.1 9.7 16 9.7 5.1 0 9-1.1 11.7-3.3s4.1-4.7 4.1-7.7c0-3.1-1.1-5.4-3.4-6.8s-4.9-2.5-8-3.4c-2.2-0.6-4.5-1.2-6.8-1.9-2.3-0.6-4.4-1.2-6.1-1.7-1.8-0.5-3.2-1-4.5-1.6-1.2-0.6-2.3-1.2-3.3-1.9-1.6-1.2-2.9-2.7-3.9-4.5s-1.5-3.8-1.5-6.1c0-3.4 1.5-7 4.4-10.7s8.2-5.5 16-5.5c5.8 0 10.2 1 13.4 3s5.3 4.1 6.3 6.3 1.5 3.8 1.5 5c0 0.6-0.2 1.2-0.7 1.9-0.4 0.7-1.3 1-2.5 1-0.8 0-1.4-0.2-1.8-0.7-0.5-0.4-0.9-1.4-1.4-2.8-1.2-3.6-4.2-6-8.7-7.3-2-0.5-3.9-0.8-5.7-0.8-4 0-7.3 0.8-10 2.4s-4 3.9-4 6.9c0 2.2 0.7 4 2.1 5.3 1.4 1.4 3.3 2.5 5.6 3.3s5.4 1.6 9.2 2.5c6.4 1.4 11.5 3.2 15.3 5.5 3.8 2.2 5.7 6 5.7 11.5z"/><path class="st0" d="m275.6 96.4c0 1.8-0.2 3.1-0.5 4.1-0.4 1-1.3 1.5-2.8 1.5s-2.4-0.5-2.8-1.5-0.6-2.4-0.6-4.2v-71.4c0-1.8 0.2-3.2 0.5-4.2 0.4-1 1.3-1.5 2.8-1.5 1.6 0 2.5 0.5 2.9 1.5s0.6 2.4 0.6 4.2v71.5z"/><path class="st0" d="m301.1 25.7c0 1.2-0.4 2.2-1.3 3.1-0.8 0.9-1.9 1.3-3.1 1.3s-2.2-0.4-3.1-1.3-1.3-1.9-1.3-3c0-1.2 0.4-2.3 1.3-3.1s1.9-1.3 3.1-1.3 2.2 0.4 3.1 1.2 1.3 1.9 1.3 3.1zm-0.9 70.7c0 1.8-0.2 3.1-0.5 4.1-0.4 1-1.3 1.5-2.8 1.5s-2.4-0.5-2.8-1.5-0.6-2.4-0.6-4.2v-49.3c0-1.8 0.2-3.2 0.6-4.2s1.3-1.5 2.8-1.5 2.5 0.5 2.8 1.5c0.4 1 0.5 2.4 0.5 4.2v49.4z"/><path class="st0" d="m368.8 96.4c0 1.8-0.2 3.1-0.5 4.1-0.4 1-1.3 1.5-2.8 1.5s-2.4-0.5-2.8-1.6c-0.4-1-0.6-2.4-0.6-4.1v-4.6c-1.7 1.9-3.4 3.5-5 4.8-1.6 1.4-3.8 2.6-6.6 3.7s-6.2 1.7-10.1 1.7c-6.1 0-11-1.5-14.9-4.6s-6.7-7-8.4-11.8c-1.7-4.7-2.6-9.5-2.6-14.4 0-4.8 0.8-9.5 2.5-14s4.4-8.3 8.3-11.3 8.9-4.5 15.1-4.5c5.9 0 10.5 1.1 13.7 3.2s5.8 4.6 8 7.5v-27.3c0-1.7 0.2-3 0.6-4s1.4-1.5 2.8-1.5c1.5 0 2.5 0.5 2.8 1.5 0.4 1 0.5 2.4 0.5 4.1v71.6zm-6.8-25c0-5.9-1.1-10.7-3.3-14.4s-4.9-6.3-8.1-7.8-6.5-2.3-9.6-2.3c-3.6 0-6.9 0.9-9.8 2.8s-5.3 4.7-7 8.4-2.6 8.2-2.6 13.4c0 5.4 0.9 9.9 2.8 13.7s4.3 6.6 7.4 8.4c3 1.8 6.3 2.7 9.7 2.7 5.5 0 10.1-1.7 13.9-5.1 2-1.8 3.6-4.2 4.8-7.2 1.1-2.9 1.8-7.1 1.8-12.6z"/><path class="st0" d="m434.5 67.6c0 2.2-0.5 3.5-1.5 4s-2.6 0.8-4.8 0.8h-38c0.1 3.5 0.5 6.7 1.3 9.6s2 5.4 3.7 7.6 3.7 3.9 6.2 5c2.5 1.2 5.2 1.7 8.3 1.7 2.9 0 6-0.8 9.2-2.4s5.9-5 7.9-10.1c0.6-1.6 1.7-2.5 3.2-2.5 1 0 1.8 0.3 2.4 1 0.6 0.6 1 1.4 1 2.2 0 1.3-0.8 3.3-2.3 6.1s-4.1 5.4-7.7 7.8-8.3 3.6-14 3.6c-8.6 0-15.2-2.8-19.7-8.4s-6.8-12.9-6.8-21.9c0-6.1 1-11.4 3.1-16s5.1-8.1 9-10.6c4-2.5 8.7-3.7 14.4-3.7 7.3 0 12.8 1.9 16.6 5.7 3.7 3.8 6.1 7.7 7 11.6 1 3.8 1.5 6.8 1.5 8.9zm-7.2-0.7c-0.2-1.9-0.4-3.5-0.5-4.7-0.2-1.2-0.6-2.6-1.2-4.2s-1.5-3.2-2.7-4.8c-1.3-1.8-3.2-3.3-5.6-4.5s-5.1-1.8-8.2-1.8c-5.9 0-10.5 2.2-14 6.7-1.7 2.2-2.8 4.3-3.4 6.2s-1.1 4.3-1.5 7h37.1z"/><path class="st1" d="m458.7 56.8c0 1.9 1 3.4 3 4.5s6.5 2.5 13.5 4.2c13.5 3.3 20.3 8.9 20.3 16.9 0 6.3-2.3 11.1-6.8 14.5-4.6 3.4-10.9 5-19.1 5-8.3 0-14.6-1.7-18.8-5.1s-6.3-7.1-6.3-10.9c0-1.6 0.6-3 1.8-4.2s2.6-1.8 4.3-1.8c2.3 0 4.4 1.5 6.1 4.4 2 3.2 4.1 5.3 6.5 6.4 2.4 1 4.9 1.6 7.6 1.6 3 0 5.4-0.7 7.3-2s2.8-3 2.8-5.1c0-1.9-0.8-3.5-2.4-4.9s-5.9-2.9-13-4.5-12.2-3.9-15.5-6.8c-3.2-2.9-4.9-6.4-4.9-10.5 0-4.6 2-8.6 5.9-12.1 4-3.5 9.9-5.3 17.8-5.3 7.3 0 13 1.5 17.3 4.4 4.3 3 6.5 6 6.5 9.2 0 1.7-0.5 3.1-1.6 4.2s-2.6 1.7-4.5 1.7c-2.9 0-5.5-1.7-7.8-5s-5.8-5-10.5-5c-2.5 0-4.7 0.5-6.6 1.5-2 1.3-2.9 2.8-2.9 4.7z"/><path class="st1" d="m560.9 64.3v27.3c0 7-2.5 10.5-7.6 10.5-2.3 0-4.1-0.7-5.4-2.2s-1.9-4.2-1.9-8.2v-24c0-5.7-0.9-9.5-2.7-11.6s-4.3-3.1-7.5-3.1c-2.8 0-5.3 0.8-7.4 2.4s-3.6 3.5-4.4 5.8c-0.9 2.3-1.3 6.3-1.3 12.1v17.3c0 4.7-0.7 7.8-2 9.3s-3.2 2.3-5.6 2.3c-2.3 0-4.1-0.7-5.4-2.2s-2-4.5-2-9.1v-59.5c0-3.6 0.2-6.1 0.5-7.5s1.1-2.6 2.4-3.4c1.2-0.9 2.7-1.3 4.4-1.3 1.9 0 3.5 0.5 4.7 1.5 1.3 1 2.1 2.3 2.4 4 0.3 1.6 0.5 4.3 0.5 8.1v17.6c5-6 11-9 18.2-9 6 0 10.8 1.9 14.5 5.6 3.8 3.5 5.6 9.4 5.6 17.3z"/><path class="st1" d="m623 102c-3 0-6.2-2.8-9.6-8.4-7.1 5.6-14.1 8.4-20.9 8.4-6.5 0-11.4-1.6-14.9-4.9s-5.2-7.3-5.2-12c0-4.1 1.2-7.3 3.5-9.8 2.4-2.5 4.9-4.2 7.7-5.2s7.3-2.1 13.5-3.4c6.3-1.3 11.3-2.5 15.1-3.6 0-4.5-0.9-7.6-2.7-9.2-1.7-1.6-4.4-2.4-8-2.4-6.8 0-11.2 1.9-13.3 5.7-1.2 2.2-2.2 3.7-3.1 4.6s-2.2 1.4-3.9 1.4c-1.6 0-3-0.5-4.3-1.6-1.3-1-1.9-2.4-1.9-4 0-3.9 2.1-7.5 6.3-11s10.8-5.2 19.8-5.2c9.1 0 15.8 1.6 20 4.7 4.2 3.2 6.2 9.5 6 19.1l-0.3 14c-0.1 4.3 0.3 7.9 1.3 10.6s1.6 4.8 1.6 6.3c0 1.6-0.7 3-2.1 4.2-1.3 1.1-2.9 1.7-4.6 1.7zm-10.6-30.1c-2.2 0.9-5.9 1.8-11 2.9-5.1 1-8.7 2.2-10.9 3.5-2.1 1.3-3.2 3.2-3.2 5.8 0 2.2 0.8 4.1 2.5 5.7s4.1 2.5 7.2 2.5c3.3 0 6.3-0.9 9.2-2.7 2.8-1.8 4.6-4 5.2-6.4 0.7-2.6 1-6.3 1-11.3z"/><path class="st1" d="m642.1 89.6v-38.3c0-6.7 2.5-10.1 7.4-10.1 4.7 0 7.1 3.1 7.2 9.3 3.1-6.2 7.4-9.3 12.8-9.3 2.9 0 5.9 0.8 8.9 2.3 3.1 1.5 4.6 3.6 4.6 6.2 0 1.8-0.6 3.3-1.9 4.5-1.2 1.2-2.6 1.8-4 1.8-0.8 0-2.3-0.3-4.3-1-2.1-0.6-3.9-1-5.3-1-3.6 0-6.2 1.8-8 5.4-1.7 3.6-2.6 10.6-2.6 20.9v8.6c0 3.8-0.2 6.4-0.5 7.7s-1.1 2.5-2.4 3.6-2.8 1.6-4.6 1.6c-1.6 0-3.1-0.5-4.4-1.5s-2.2-2.1-2.5-3.4c-0.2-1.1-0.4-3.6-0.4-7.3z"/><path class="st1" d="m730.2 75.3h-29.3c0.1 5.5 1.7 9.7 4.6 12.5s6.4 4.2 10.4 4.2c5 0 9.7-2.2 14.1-6.6 1.8-1.8 3.1-3 4-3.4s1.8-0.7 2.9-0.7c1.3 0 2.5 0.4 3.5 1.3 1 0.8 1.4 1.9 1.4 3.1 0 3.4-2.3 6.9-6.9 10.6s-10.8 5.5-18.6 5.5c-10 0-17.6-2.8-22.7-8.5-5.2-5.6-7.7-12.9-7.7-21.9s2.6-16.4 7.7-22 12.3-8.4 21.5-8.4c8.8 0 15.6 2.6 20.3 7.9 4.8 5.3 7.2 11 7.2 17.3 0 2.7-0.8 4.9-2.4 6.5-1.6 1.8-4.9 2.6-10 2.6zm-15.7-23.7c-7.9 0-12.4 5.1-13.6 15.3h27.1c-0.2-5-1.5-8.8-4.1-11.4-2.5-2.6-5.6-3.9-9.4-3.9z"/><path class="st2" d="m95.9 61.9c0-6.5 3-10.8 12.3-10.4 13.4 0.5 39.8 3.5 69.5-17.7 5.6-3.9 9.2 1.4 5.8 6.5-6.6 8.1-19.3 18.2-38.6 26.2 20.5 69.8-50 80.8-48.9 45.1 0 0.9-0.1-49.7-0.1-49.7"/><path class="st3" d="m106.5 53.8c-5.5 0-7.3 3.5-7.3 3.5s6 1.6 15.7 1.6c2.6 0 5.4-0.1 8.4-0.4 0.4-0.5 0.8-1 1.1-1.5 0.9-1.2 1.8-2.2 2.8-2.8-2.3 0.1-4.7 0.2-7.2 0.2-4 0-8.3-0.2-12.8-0.6h-0.7m73.7-19.1c-12.2 7.7-26 16.6-48 19.1 0.7 0.7 1.2 1.8 1.1 3.3 13.7-2.7 30.2-9 46.9-22.4"/><path class="st4" d="m91 61.9c0-6.5-3-10.8-12.3-10.4-13.4 0.5-39.8 3.5-69.5-17.7-5.6-3.9-9.2 1.4-5.8 6.5 6.6 8.1 19.2 18.2 38.6 26.1-20.5 69.8 50 80.8 48.9 45.1 0 1 0.1-49.6 0.1-49.6"/>	<defs>		<path id="slideshare-SVGID_1_" d="m132.9 60.5c-5.3 20.2-22.2 23-31.2 23-1.5 0-2.8-0.1-3.8-0.2-0.1 12.7-0.2 27.4-0.2 27.4-0.3 13.2 8.9 20.3 19.5 20.3 1.9 0 3.9-0.2 5.8-0.7 6.3-1.5 12.5-5.4 17.2-11.9 7.2-10.1 10.6-26.6 4.4-50.1-1.6-4-6.1-6.5-11.7-7.8m-13-1.4c-8.6 0-16.9 1.6-20.3 3.8 3.6 2 7 3.1 10.2 3.1 4.6 0 8.9-2.2 12.9-6.8-0.8-0.1-1.8-0.1-2.8-0.1"/>	</defs>	<clipPath id="slideshare-SVGID_2_">		<use xlink:href="#slideshare-SVGID_1_"/>	</clipPath>	<polyline points="132.2 131 150.8 101.7 150.8 131 132.2 131" class="st5"/>	<polyline points="131 131 150.8 99.8 150.8 101.7 132.2 131 131 131" class="st5"/>	<polyline points="129.8 131 150.8 97.9 150.8 99.8 131 131 129.8 131" class="st6"/>	<polyline points="128.6 131 150.8 96 150.8 97.9 129.8 131 128.6 131" class="st7"/>	<polyline points="127.4 131 150.8 94.1 150.8 96 128.6 131 127.4 131" class="st8"/>	<polyline points="126.2 131 150.8 92.2 150.8 94.1 127.4 131 126.2 131" class="st9"/>	<polyline points="124.9 131 150.8 90.3 150.8 92.2 126.2 131 124.9 131" class="st10"/>	<polyline points="123.7 131 150.8 88.4 150.8 90.3 124.9 131 123.7 131" class="st11"/>	<polyline points="122.5 131 150.8 86.5 150.8 88.4 123.7 131 122.5 131" class="st12"/>	<polyline points="121.3 131 150.8 84.6 150.8 86.5 122.5 131 121.3 131" class="st13"/>	<polyline points="120.1 131 150.8 82.7 150.8 84.6 121.3 131 120.1 131" class="st14"/>	<polyline points="118.9 131 150.8 80.7 150.8 82.7 120.1 131 118.9 131" class="st15"/>	<polyline points="117.7 131 150.8 78.8 150.8 80.7 118.9 131 117.7 131" class="st16"/>	<polyline points="116.5 131 150.8 76.9 150.8 78.8 117.7 131 116.5 131" class="st17"/>	<polyline points="115.2 131 150.8 75 150.8 76.9 116.5 131 115.2 131" class="st18"/>	<polyline points="114 131 150.8 73.1 150.8 75 115.2 131 114 131" class="st19"/>	<polyline points="112.8 131 150.8 71.2 150.8 73.1 114 131 112.8 131" class="st20"/>	<polyline points="111.6 131 150.8 69.3 150.8 71.2 112.8 131 111.6 131" class="st21"/>	<polyline points="110.4 131 150.8 67.4 150.8 69.3 111.6 131 110.4 131" class="st22"/>	<polyline points="109.2 131 150.8 65.5 150.8 67.4 110.4 131 109.2 131" class="st23"/>	<polyline points="108 131 150.8 63.6 150.8 65.5 109.2 131 108 131" class="st24"/>	<polyline points="106.8 131 150.8 61.7 150.8 63.6 108 131 106.8 131" class="st25"/>	<polyline points="105.5 131 150.8 59.7 150.8 61.7 106.8 131 105.5 131" class="st26"/>	<polyline points="104.3 131 150 59.1 150.8 59.1 150.8 59.7 105.5 131 104.3 131" class="st26"/>	<polyline points="103.1 131 148.8 59.1 150 59.1 104.3 131 103.1 131" class="st27"/>	<polyline points="101.9 131 147.6 59.1 148.8 59.1 103.1 131 101.9 131" class="st28"/>	<polyline points="100.7 131 146.4 59.1 147.6 59.1 101.9 131 100.7 131" class="st29"/>	<polyline points="99.5 131 145.2 59.1 146.4 59.1 100.7 131 99.5 131" class="st29"/>	<polyline points="98.3 131 144 59.1 145.2 59.1 99.5 131 98.3 131" class="st30"/>	<polyline points="97.3 130.6 142.7 59.1 144 59.1 98.3 131 97.3 131 97.3 130.6" class="st30"/>	<polyline points="97.3 128.7 141.5 59.1 142.7 59.1 97.3 130.6 97.3 128.7" class="st30"/>	<polyline points="97.3 126.7 140.3 59.1 141.5 59.1 97.3 128.7 97.3 126.7" class="st31"/>	<polyline points="97.3 124.8 139.1 59.1 140.3 59.1 97.3 126.7 97.3 124.8" class="st31"/>	<polyline points="97.3 122.9 137.9 59.1 139.1 59.1 97.3 124.8 97.3 122.9" class="st31"/>	<polyline points="97.3 121 136.7 59.1 137.9 59.1 97.3 122.9 97.3 121" class="st32"/>	<polyline points="97.3 119.1 135.5 59.1 136.7 59.1 97.3 121 97.3 119.1" class="st33"/>	<polyline points="97.3 117.2 134.3 59.1 135.5 59.1 97.3 119.1 97.3 117.2" class="st33"/>	<polyline points="97.3 115.3 133 59.1 134.3 59.1 97.3 117.2 97.3 115.3" class="st34"/>	<polyline points="97.3 113.4 131.8 59.1 133 59.1 97.3 115.3 97.3 113.4" class="st34"/>	<polyline points="97.3 111.5 130.6 59.1 131.8 59.1 97.3 113.4 97.3 111.5" class="st34"/>	<polyline points="97.3 109.6 129.4 59.1 130.6 59.1 97.3 111.5 97.3 109.6" class="st35"/>	<polyline points="97.3 107.7 128.2 59.1 129.4 59.1 97.3 109.6 97.3 107.7" class="st35"/>	<polyline points="97.3 105.8 127 59.1 128.2 59.1 97.3 107.7 97.3 105.8" class="st35"/>	<polyline points="97.3 103.9 125.8 59.1 127 59.1 97.3 105.8 97.3 103.9" class="st36"/>	<polyline points="97.3 102 124.6 59.1 125.8 59.1 97.3 103.9 97.3 102" class="st36"/>	<polyline points="97.3 100 123.4 59.1 124.6 59.1 97.3 102 97.3 100" class="st36"/>	<polyline points="97.3 98.1 122.1 59.1 123.4 59.1 97.3 100 97.3 98.1" class="st36"/>	<polyline points="97.3 96.2 120.9 59.1 122.1 59.1 97.3 98.1 97.3 96.2" class="st36"/>	<polyline points="97.3 94.3 119.7 59.1 120.9 59.1 97.3 96.2 97.3 94.3" class="st36"/>	<polyline points="97.3 92.4 118.5 59.1 119.7 59.1 97.3 94.3 97.3 92.4" class="st36"/>	<polyline points="97.3 90.5 117.3 59.1 118.5 59.1 97.3 92.4 97.3 90.5" class="st36"/>	<polyline points="97.3 88.6 116.1 59.1 117.3 59.1 97.3 90.5 97.3 88.6" class="st36"/>	<polyline points="97.3 86.7 114.9 59.1 116.1 59.1 97.3 88.6 97.3 86.7" class="st36"/>	<polyline points="97.3 84.8 113.7 59.1 114.9 59.1 97.3 86.7 97.3 84.8" class="st36"/>	<polyline points="97.3 82.9 112.4 59.1 113.7 59.1 97.3 84.8 97.3 82.9" class="st36"/>	<polyline points="97.3 80.9 111.2 59.1 112.4 59.1 97.3 82.9 97.3 80.9" class="st36"/>	<polyline points="97.3 79 110 59.1 111.2 59.1 97.3 80.9 97.3 79" class="st36"/>	<polyline points="97.3 77.1 108.8 59.1 110 59.1 97.3 79 97.3 77.1" class="st36"/>	<polyline points="97.3 75.2 107.6 59.1 108.8 59.1 97.3 77.1 97.3 75.2" class="st36"/>	<polyline points="97.3 73.3 106.4 59.1 107.6 59.1 97.3 75.2 97.3 73.3" class="st36"/>	<polyline points="97.3 71.4 105.2 59.1 106.4 59.1 97.3 73.3 97.3 71.4" class="st36"/>	<polyline points="97.3 69.5 104 59.1 105.2 59.1 97.3 71.4 97.3 69.5" class="st36"/>	<polyline points="97.3 67.6 102.7 59.1 104 59.1 97.3 69.5 97.3 67.6" class="st36"/>	<polyline points="97.3 65.7 101.5 59.1 102.7 59.1 97.3 67.6 97.3 65.7" class="st36"/>	<polyline points="101.5 59.1 97.3 65.7 97.3 59.1 101.5 59.1" class="st36"/><path class="st4" d="m91 22c0 11.6-10 21-22.4 21s-22.4-9.4-22.4-21 10.1-21 22.4-21c12.4 0 22.4 9.4 22.4 21"/>	<defs>		<path id="slideshare-SVGID_3_" d="m49.2 27.1c-1.2-7 1.1-22.2 18.2-23.9 0.6 0 1.1-0.1 1.6-0.1 7.2 0 7.5 5.4-1.4 5.4-14.4 0-18.4 18.6-18.4 18.6m19.6-25.4c-12 0-21.8 9.2-21.8 20.5s9.8 20.5 21.9 20.5 21.9-9.2 21.9-20.5c-0.1-11.3-9.9-20.5-22-20.5"/>	</defs>	<clipPath id="slideshare-SVGID_4_">		<use xlink:href="#slideshare-SVGID_3_"/>	</clipPath>	<polyline points="75 42.7 90.7 33.6 90.7 42.7 75 42.7" class="st37"/>	<polyline points="72.4 42.7 90.7 32.1 90.7 33.6 75 42.7 72.4 42.7" class="st37"/>	<polyline points="69.7 42.7 90.7 30.5 90.7 32.1 72.4 42.7 69.7 42.7" class="st38"/>	<polyline points="67 42.7 90.7 29 90.7 30.5 69.7 42.7 67 42.7" class="st39"/>	<polyline points="64.3 42.7 90.7 27.4 90.7 29 67 42.7 64.3 42.7" class="st40"/>	<polyline points="61.6 42.7 90.7 25.9 90.7 27.4 64.3 42.7 61.6 42.7" class="st41"/>	<polyline points="58.9 42.7 90.7 24.3 90.7 25.9 61.6 42.7 58.9 42.7" class="st42"/>	<polyline points="56.2 42.7 90.7 22.8 90.7 24.3 58.9 42.7 56.2 42.7" class="st43"/>	<polyline points="53.5 42.7 90.7 21.2 90.7 22.8 56.2 42.7 53.5 42.7" class="st44"/>	<polyline points="50.8 42.7 90.7 19.6 90.7 21.2 53.5 42.7 50.8 42.7" class="st45"/>	<polyline points="48.1 42.7 90.7 18.1 90.7 19.6 50.8 42.7 48.1 42.7" class="st46"/>	<polyline points="46.9 41.8 90.7 16.5 90.7 18.1 48.1 42.7 46.9 42.7 46.9 41.8" class="st47"/>	<polyline points="46.9 40.3 90.7 15 90.7 16.5 46.9 41.8 46.9 40.3" class="st48"/>	<polyline points="46.9 38.7 90.7 13.4 90.7 15 46.9 40.3 46.9 38.7" class="st49"/>	<polyline points="46.9 37.1 90.7 11.9 90.7 13.4 46.9 38.7 46.9 37.1" class="st50"/>	<polyline points="46.9 35.6 90.7 10.3 90.7 11.9 46.9 37.1 46.9 35.6" class="st51"/>	<polyline points="46.9 34.1 90.7 8.8 90.7 10.3 46.9 35.6 46.9 34.1" class="st52"/>	<polyline points="46.9 32.5 90.7 7.2 90.7 8.8 46.9 34.1 46.9 32.5" class="st53"/>	<polyline points="46.9 30.9 90.7 5.7 90.7 7.2 46.9 32.5 46.9 30.9" class="st53"/>	<polyline points="46.9 29.4 90.7 4.1 90.7 5.7 46.9 30.9 46.9 29.4" class="st54"/>	<polyline points="46.9 27.8 90.7 2.6 90.7 4.1 46.9 29.4 46.9 27.8" class="st55"/>	<polyline points="46.9 26.3 89.5 1.7 90.7 1.7 90.7 2.6 46.9 27.8 46.9 26.3" class="st56"/>	<polyline points="46.9 24.7 86.8 1.7 89.5 1.7 46.9 26.3 46.9 24.7" class="st56"/>	<polyline points="46.9 23.2 84.1 1.7 86.8 1.7 46.9 24.7 46.9 23.2" class="st56"/>	<polyline points="46.9 21.6 81.4 1.7 84.1 1.7 46.9 23.2 46.9 21.6" class="st56"/>	<polyline points="46.9 20.1 78.8 1.7 81.4 1.7 46.9 21.6 46.9 20.1" class="st56"/>	<polyline points="46.9 18.5 76.1 1.7 78.8 1.7 46.9 20.1 46.9 18.5" class="st56"/>	<polyline points="46.9 17 73.4 1.7 76.1 1.7 46.9 18.5 46.9 17" class="st56"/>	<polyline points="46.9 15.4 70.7 1.7 73.4 1.7 46.9 17 46.9 15.4" class="st56"/>	<polyline points="46.9 13.9 68 1.7 70.7 1.7 46.9 15.4 46.9 13.9" class="st56"/>	<polyline points="46.9 12.3 65.3 1.7 68 1.7 46.9 13.9 46.9 12.3" class="st56"/>	<polyline points="46.9 10.8 62.6 1.7 65.3 1.7 46.9 12.3 46.9 10.8" class="st56"/>	<polyline points="62.6 1.7 46.9 10.8 46.9 1.7 62.6 1.7" class="st56"/>	<defs>		<path id="slideshare-SVGID_5_" d="m69 3.1c-0.5 0-1 0-1.6 0.1-17.1 1.7-19.4 16.9-18.2 23.9 0 0 4-18.6 18.4-18.6 8.9 0 8.6-5.4 1.4-5.4"/>	</defs>	<clipPath id="slideshare-SVGID_6_">		<use xlink:href="#slideshare-SVGID_5_"/>	</clipPath>	<polyline points="74.2 27.1 76.4 25.8 76.4 27.1 74.2 27.1" class="st57"/>	<polyline points="65 27.1 76.4 20.5 76.4 25.8 74.2 27.1 65 27.1" class="st58"/>	<polyline points="55.7 27.1 76.4 15.1 76.4 20.5 65 27.1 55.7 27.1" class="st59"/>	<polyline points="48 26.2 76.4 9.8 76.4 15.1 55.7 27.1 48 27.1 48 26.2" class="st60"/>	<polyline points="48 20.8 76.4 4.4 76.4 9.8 48 26.2 48 20.8" class="st60"/>	<polyline points="48 15.5 69.4 3.1 76.4 3.1 76.4 4.4 48 20.8 48 15.5" class="st60"/>	<polyline points="48 10.1 60.2 3.1 69.4 3.1 48 15.5 48 10.1" class="st60"/>	<polyline points="60.2 3.1 48 10.1 48 3.1 60.2 3.1" class="st60"/><path class="st2" d="m98.4 22c0 11.6 10.1 21 22.4 21 12.4 0 22.4-9.4 22.4-21s-10.1-21-22.4-21c-12.4 0-22.4 9.4-22.4 21"/>	<defs>		<path id="slideshare-SVGID_7_" d="m101.1 27.1c-1.2-7 1.1-22.2 18.2-23.9 0.6-0.1 1.1-0.1 1.6-0.1 7.2 0 7.5 5.4-1.4 5.4-14.4 0-18.4 18.6-18.4 18.6m19.5-25.8c-12.2 0-22 9.3-22 20.6 0 11.4 9.9 20.6 22 20.6 12.2 0 22-9.2 22-20.6 0-11.3-9.9-20.6-22-20.6"/>	</defs>	<clipPath id="slideshare-SVGID_8_">		<use xlink:href="#slideshare-SVGID_7_"/>	</clipPath>	<polyline points="126.9 42.6 142.6 33.5 142.6 42.6 126.9 42.6" class="st61"/>	<polyline points="125.5 42.6 142.6 32.7 142.6 33.5 126.9 42.6 125.5 42.6" class="st61"/>	<polyline points="124.2 42.6 142.6 31.9 142.6 32.7 125.5 42.6 124.2 42.6" class="st62"/>	<polyline points="122.9 42.6 142.6 31.2 142.6 31.9 124.2 42.6 122.9 42.6" class="st63"/>	<polyline points="121.5 42.6 142.6 30.4 142.6 31.2 122.9 42.6 121.5 42.6" class="st64"/>	<polyline points="120.2 42.6 142.6 29.6 142.6 30.4 121.5 42.6 120.2 42.6" class="st65"/>	<polyline points="118.9 42.6 142.6 28.9 142.6 29.6 120.2 42.6 118.9 42.6" class="st66"/>	<polyline points="117.5 42.6 142.6 28.1 142.6 28.9 118.9 42.6 117.5 42.6" class="st67"/>	<polyline points="116.2 42.6 142.6 27.3 142.6 28.1 117.5 42.6 116.2 42.6" class="st68"/>	<polyline points="114.9 42.6 142.6 26.5 142.6 27.3 116.2 42.6 114.9 42.6" class="st69"/>	<polyline points="113.5 42.6 142.6 25.8 142.6 26.5 114.9 42.6 113.5 42.6" class="st70"/>	<polyline points="112.2 42.6 142.6 25 142.6 25.8 113.5 42.6 112.2 42.6" class="st71"/>	<polyline points="110.9 42.6 142.6 24.3 142.6 25 112.2 42.6 110.9 42.6" class="st72"/>	<polyline points="109.5 42.6 142.6 23.5 142.6 24.3 110.9 42.6 109.5 42.6" class="st73"/>	<polyline points="108.2 42.6 142.6 22.7 142.6 23.5 109.5 42.6 108.2 42.6" class="st74"/>	<polyline points="106.9 42.6 142.6 21.9 142.6 22.7 108.2 42.6 106.9 42.6" class="st75"/>	<polyline points="105.5 42.6 142.6 21.2 142.6 21.9 106.9 42.6 105.5 42.6" class="st76"/>	<polyline points="104.2 42.6 142.6 20.4 142.6 21.2 105.5 42.6 104.2 42.6" class="st77"/>	<polyline points="102.9 42.6 142.6 19.6 142.6 20.4 104.2 42.6 102.9 42.6" class="st78"/>	<polyline points="101.5 42.6 142.6 18.9 142.6 19.6 102.9 42.6 101.5 42.6" class="st79"/>	<polyline points="100.2 42.6 142.6 18.1 142.6 18.9 101.5 42.6 100.2 42.6" class="st80"/>	<polyline points="98.9 42.6 142.6 17.3 142.6 18.1 100.2 42.6 98.9 42.6" class="st81"/>	<polyline points="98.6 42 142.6 16.6 142.6 17.3 98.9 42.6 98.6 42.6 98.6 42" class="st82"/>	<polyline points="98.6 41.2 142.6 15.8 142.6 16.6 98.6 42 98.6 41.2" class="st82"/>	<polyline points="98.6 40.4 142.6 15 142.6 15.8 98.6 41.2 98.6 40.4" class="st83"/>	<polyline points="98.6 39.7 142.6 14.3 142.6 15 98.6 40.4 98.6 39.7" class="st84"/>	<polyline points="98.6 38.9 142.6 13.5 142.6 14.3 98.6 39.7 98.6 38.9" class="st85"/>	<polyline points="98.6 38.1 142.6 12.7 142.6 13.5 98.6 38.9 98.6 38.1" class="st85"/>	<polyline points="98.6 37.4 142.6 11.9 142.6 12.7 98.6 38.1 98.6 37.4" class="st86"/>	<polyline points="98.6 36.6 142.6 11.2 142.6 11.9 98.6 37.4 98.6 36.6" class="st86"/>	<polyline points="98.6 35.8 142.6 10.4 142.6 11.2 98.6 36.6 98.6 35.8" class="st86"/>	<polyline points="98.6 35.1 142.6 9.6 142.6 10.4 98.6 35.8 98.6 35.1" class="st87"/>	<polyline points="98.6 34.3 142.6 8.9 142.6 9.6 98.6 35.1 98.6 34.3" class="st87"/>	<polyline points="98.6 33.5 142.6 8.1 142.6 8.9 98.6 34.3 98.6 33.5" class="st87"/>	<polyline points="98.6 32.8 142.6 7.3 142.6 8.1 98.6 33.5 98.6 32.8" class="st88"/>	<polyline points="98.6 32 142.6 6.6 142.6 7.3 98.6 32.8 98.6 32" class="st89"/>	<polyline points="98.6 31.2 142.6 5.8 142.6 6.6 98.6 32 98.6 31.2" class="st89"/>	<polyline points="98.6 30.4 142.6 5 142.6 5.8 98.6 31.2 98.6 30.4" class="st90"/>	<polyline points="98.6 29.7 142.6 4.2 142.6 5 98.6 30.4 98.6 29.7" class="st90"/>	<polyline points="98.6 28.9 142.6 3.5 142.6 4.2 98.6 29.7 98.6 28.9" class="st90"/>	<polyline points="98.6 28.1 142.6 2.7 142.6 3.5 98.6 28.9 98.6 28.1" class="st91"/>	<polyline points="98.6 27.4 142.6 2 142.6 2.7 98.6 28.1 98.6 27.4" class="st91"/>	<polyline points="98.6 26.6 142.3 1.3 142.6 1.3 142.6 2 98.6 27.4 98.6 26.6" class="st91"/>	<polyline points="98.6 25.8 141 1.3 142.3 1.3 98.6 26.6 98.6 25.8" class="st92"/>	<polyline points="98.6 25.1 139.7 1.3 141 1.3 98.6 25.8 98.6 25.1" class="st92"/>	<polyline points="98.6 24.3 138.3 1.3 139.7 1.3 98.6 25.1 98.6 24.3" class="st92"/>	<polyline points="98.6 23.5 137 1.3 138.3 1.3 98.6 24.3 98.6 23.5" class="st92"/>	<polyline points="98.6 22.8 135.7 1.3 137 1.3 98.6 23.5 98.6 22.8" class="st92"/>	<polyline points="98.6 22 134.3 1.3 135.7 1.3 98.6 22.8 98.6 22" class="st92"/>	<polyline points="98.6 21.2 133 1.3 134.3 1.3 98.6 22 98.6 21.2" class="st92"/>	<polyline points="98.6 20.4 131.7 1.3 133 1.3 98.6 21.2 98.6 20.4" class="st92"/>	<polyline points="98.6 19.7 130.3 1.3 131.7 1.3 98.6 20.4 98.6 19.7" class="st92"/>	<polyline points="98.6 18.9 129 1.3 130.3 1.3 98.6 19.7 98.6 18.9" class="st92"/>	<polyline points="98.6 18.1 127.7 1.3 129 1.3 98.6 18.9 98.6 18.1" class="st92"/>	<polyline points="98.6 17.4 126.3 1.3 127.7 1.3 98.6 18.1 98.6 17.4" class="st92"/>	<polyline points="98.6 16.6 125 1.3 126.3 1.3 98.6 17.4 98.6 16.6" class="st92"/>	<polyline points="98.6 15.8 123.7 1.3 125 1.3 98.6 16.6 98.6 15.8" class="st92"/>	<polyline points="98.6 15.1 122.3 1.3 123.7 1.3 98.6 15.8 98.6 15.1" class="st92"/>	<polyline points="98.6 14.3 121 1.3 122.3 1.3 98.6 15.1 98.6 14.3" class="st92"/>	<polyline points="98.6 13.5 119.7 1.3 121 1.3 98.6 14.3 98.6 13.5" class="st92"/>	<polyline points="98.6 12.7 118.4 1.3 119.7 1.3 98.6 13.5 98.6 12.7" class="st92"/>	<polyline points="98.6 12 117 1.3 118.4 1.3 98.6 12.7 98.6 12" class="st92"/>	<polyline points="98.6 11.2 115.7 1.3 117 1.3 98.6 12 98.6 11.2" class="st92"/>	<polyline points="98.6 10.5 114.4 1.3 115.7 1.3 98.6 11.2 98.6 10.5" class="st92"/>	<polyline points="114.4 1.3 98.6 10.5 98.6 1.3 114.4 1.3" class="st92"/>	<defs>		<path id="slideshare-SVGID_9_" d="m120.9 3.1c-0.5 0-1 0-1.6 0.1-17.1 1.7-19.4 16.9-18.2 23.9 0 0 4-18.6 18.3-18.6 8.9 0 8.7-5.4 1.5-5.4"/>	</defs>	<clipPath id="slideshare-SVGID_10_">		<use xlink:href="#slideshare-SVGID_9_"/>	</clipPath>	<polyline points="127.2 27.1 128.4 26.4 128.4 27.1 127.2 27.1" class="st93"/>	<polyline points="122.7 27.1 128.4 23.8 128.4 26.4 127.2 27.1 122.7 27.1" class="st94"/>	<polyline points="118.3 27.1 128.4 21.3 128.4 23.8 122.7 27.1 118.3 27.1" class="st95"/>	<polyline points="113.9 27.1 128.4 18.8 128.4 21.3 118.3 27.1 113.9 27.1" class="st96"/>	<polyline points="109.5 27.1 128.4 16.2 128.4 18.8 113.9 27.1 109.5 27.1" class="st97"/>	<polyline points="105.1 27.1 128.4 13.7 128.4 16.2 109.5 27.1 105.1 27.1" class="st98"/>	<polyline points="100.7 27.1 128.4 11.1 128.4 13.7 105.1 27.1 100.7 27.1" class="st98"/>	<polyline points="99.9 25 128.4 8.6 128.4 11.1 100.7 27.1 99.9 27.1 99.9 25" class="st99"/>	<polyline points="99.9 22.4 128.4 6 128.4 8.6 99.9 25 99.9 22.4" class="st99"/>	<polyline points="99.9 19.9 128.4 3.5 128.4 6 99.9 22.4 99.9 19.9" class="st99"/>	<polyline points="99.9 17.3 124.5 3.1 128.4 3.1 128.4 3.5 99.9 19.9 99.9 17.3" class="st99"/>	<polyline points="99.9 14.8 120.1 3.1 124.5 3.1 99.9 17.3 99.9 14.8" class="st99"/>	<polyline points="99.9 12.2 115.7 3.1 120.1 3.1 99.9 14.8 99.9 12.2" class="st99"/>	<polyline points="99.9 9.7 111.2 3.1 115.7 3.1 99.9 12.2 99.9 9.7" class="st99"/>	<polyline points="111.2 3.1 99.9 9.7 99.9 3.1 111.2 3.1" class="st99"/><path class="st100" d="m95.9 83.1s30 5.5 37.1-23.2c1-5.5-1.8-4.9-4-1.6-2.2 3.2-23 16.8-32.9 17.4l-0.2 7.4"/><path class="st4" d="m124.5 57c-9.7 13.4-21.3 10.9-34.9-1.7-14.1-13.2-4.7 19.6 1 20.9 8.5 2 11.8 3.8 23.3 1.2 10.8-2.5 16.1-10.2 18.3-15.7 3.8-9-2.7-11.6-7.7-4.7"/><path class="st101" d="m6.7 34.7c25.2 20.3 49.9 24.2 65.2 24.2 4.2 0 7.8-0.3 10.4-0.6-0.2-1.7-0.2-3.2 0.1-4.3-0.6-0.1-1.3-0.2-2-0.2h-0.7c-4.5 0.4-8.8 0.6-12.9 0.6-29.3 0-45.8-10.7-60.1-19.7"/><path class="st101" d="m82.4 53.9c-0.3 1.1-0.3 2.6-0.1 4.3 3.4-0.4 5.3-0.9 5.3-0.9s-1.2-2.7-5.2-3.4"/><path class="st101" d="m129 55.4c-0.3 0-0.7 0.2-0.9 0.6-6.7 8.9-12.4 11.8-17.6 11.8-2.1 0-4.2-0.5-6.1-1.3 2.5 1.6 5 2.2 7.4 2.2 9.9 0 18.3-10.6 18.3-10.6 0.8-1.1-0.1-2.7-1.1-2.7"/>	<defs>		<path id="slideshare-SVGID_11_" d="m74.1 60.4c-10.5 0-22.6 2.8-25.5 10.3-0.8 2.1-1.5 4.2-2.2 6.2-4.2 15.6-2.8 31 3.8 42.1-3.3-4.5-5.4-9.3-6.8-14.2 2.8 17.7 15.8 26.1 27.5 26.1 10.7 0 20.2-6.9 19.9-20 0 0-0.2-21.2-0.3-34.6-0.1-6.3-0.1-10.9-0.1-10.9 0-1.9-3.1-3.4-7.7-4.2-2.4-0.5-5.4-0.8-8.6-0.8"/>	</defs>	<clipPath id="slideshare-SVGID_12_">		<use xlink:href="#slideshare-SVGID_11_"/>	</clipPath>	<polyline points="82.4 130.9 91.2 117.1 91.2 130.9 82.4 130.9" class="st102"/>	<polyline points="80.1 130.9 91.2 113.5 91.2 117.1 82.5 130.9 80.1 130.9" class="st102"/>	<polyline points="77.8 130.9 91.2 109.8 91.2 113.5 80.1 130.9 77.8 130.9" class="st103"/>	<polyline points="75.5 130.9 91.2 106.1 91.2 109.8 77.8 130.9 75.5 130.9" class="st104"/>	<polyline points="73.1 130.9 91.2 102.4 91.2 106.1 75.5 130.9 73.1 130.9" class="st105"/>	<polyline points="70.8 130.9 91.2 98.8 91.2 102.4 73.1 130.9 70.8 130.9" class="st106"/>	<polyline points="68.5 130.9 91.2 95.1 91.2 98.8 70.8 130.9 68.5 130.9" class="st107"/>	<polyline points="66.1 130.9 91.2 91.4 91.2 95.1 68.5 130.9 66.1 130.9" class="st108"/>	<polyline points="63.8 130.9 91.2 87.7 91.2 91.4 66.1 130.9 63.8 130.9" class="st109"/>	<polyline points="61.5 130.9 91.2 84.1 91.2 87.7 63.8 130.9 61.5 130.9" class="st110"/>	<polyline points="59.1 130.9 91.2 80.4 91.2 84.1 61.5 130.9 59.1 130.9" class="st111"/>	<polyline points="56.8 130.9 91.2 76.7 91.2 80.4 59.1 130.9 56.8 130.9" class="st112"/>	<polyline points="54.5 130.9 91.2 73 91.2 76.7 56.8 130.9 54.5 130.9" class="st113"/>	<polyline points="52.1 130.9 91.2 69.4 91.2 73 54.5 130.9 52.1 130.9" class="st114"/>	<polyline points="49.8 130.9 91.2 65.7 91.2 69.4 52.1 130.9 49.8 130.9" class="st115"/>	<polyline points="47.5 130.9 91.2 62 91.2 65.7 49.8 130.9 47.5 130.9" class="st116"/>	<polyline points="45.1 130.9 89.9 60.4 91.2 60.4 91.2 62 47.5 130.9 45.1 130.9" class="st116"/>	<polyline points="42.8 130.9 87.5 60.4 89.9 60.4 45.1 130.9 42.8 130.9" class="st117"/>	<polyline points="42.3 128 85.2 60.4 87.5 60.4 42.8 130.9 42.3 130.9 42.3 128" class="st118"/>	<polyline points="42.3 124.3 82.9 60.4 85.2 60.4 42.3 128 42.3 124.3" class="st119"/>	<polyline points="42.3 120.7 80.5 60.4 82.9 60.4 42.3 124.3 42.3 120.7" class="st119"/>	<polyline points="42.3 117 78.2 60.4 80.5 60.4 42.3 120.7 42.3 117" class="st119"/>	<polyline points="42.3 113.3 75.9 60.4 78.2 60.4 42.3 117 42.3 113.3" class="st119"/>	<polyline points="42.3 109.6 73.5 60.4 75.9 60.4 42.3 113.3 42.3 109.6" class="st119"/>	<polyline points="42.3 106 71.2 60.4 73.5 60.4 42.3 109.6 42.3 106" class="st119"/>	<polyline points="42.3 102.3 68.9 60.4 71.2 60.4 42.3 106 42.3 102.3" class="st119"/>	<polyline points="42.3 98.6 66.5 60.4 68.9 60.4 42.3 102.3 42.3 98.6" class="st119"/>	<polyline points="42.3 94.9 64.2 60.4 66.5 60.4 42.3 98.6 42.3 94.9" class="st119"/>	<polyline points="42.3 91.3 61.9 60.4 64.2 60.4 42.3 94.9 42.3 91.3" class="st119"/>	<polyline points="42.3 87.6 59.5 60.4 61.9 60.4 42.3 91.3 42.3 87.6" class="st119"/>	<polyline points="42.3 83.9 57.2 60.4 59.5 60.4 42.3 87.6 42.3 83.9" class="st119"/>	<polyline points="42.3 80.2 54.9 60.4 57.2 60.4 42.3 83.9 42.3 80.2" class="st119"/>	<polyline points="54.9 60.4 42.3 80.2 42.3 60.4 54.9 60.4" class="st119"/><path class="st101" d="m44.7 67.2c-2.6 10.6-4.9 24.4-1.2 37.6-1.2-7.6-0.5-16.9 3-28 0.7-2.7 1.6-5.3 2.6-8l-4.4-1.6"/>	<defs>		<path id="slideshare-SVGID_13_" d="m46.4 76.9c-3.5 11.1-4.1 20.4-3 28 1.4 4.9 3.5 9.7 6.8 14.2-6.5-11.3-7.9-26.6-3.8-42.2"/>	</defs>	<clipPath id="slideshare-SVGID_14_">		<use xlink:href="#slideshare-SVGID_13_"/>	</clipPath>	<polyline points="49.8 119 50.3 118.3 50.3 119 49.8 119" class="st120"/>	<polyline points="42.3 118.2 50.3 105.6 50.3 118.3 49.8 119 42.3 119 42.3 118.2" class="st120"/>	<polyline points="42.3 105.6 50.3 93 50.3 105.6 42.3 118.2 42.3 105.6" class="st120"/>	<polyline points="42.3 92.9 50.3 80.3 50.3 93 42.3 105.6 42.3 92.9" class="st120"/>	<polyline points="42.3 80.2 44.4 76.9 50.3 76.9 50.3 80.3 42.3 92.9 42.3 80.2" class="st120"/>	<polyline points="44.4 76.9 42.3 80.2 42.3 76.9 44.4 76.9" class="st120"/></svg></svg>
