<?xml version="1.0" encoding="utf-8"?>
<!-- Generator: Adobe Illustrator 19.1.0, SVG Export Plug-In . SVG Version: 6.00 Build 0)  -->
<svg version="1.1" id="Слой_1" xmlns="http://www.w3.org/2000/svg" xmlns:xlink="http://www.w3.org/1999/xlink" x="0px" y="0px"
	 viewBox="-239 378 133 40" xml:space="preserve" height="40" width="133">
<style type="text/css">
	.st0{fill:#FFFFFF;}
	.st1{fill:#0F8DCB;}
	.st2{fill:#EBBC65;}
	.st3{fill:#46C6F9;}
</style>
<g>
	<path class="st0" d="M-196,407.5c-0.7,0-1.2,0.2-1.7,0.5s-0.9,0.8-1.1,1.3v4.8h-1.3v-7.8h1.2v1.8c0.3-0.5,0.6-1,1.1-1.3
		c0.4-0.4,0.9-0.5,1.4-0.5c0.1,0,0.2,0,0.3,0s0.1,0,0.2,0L-196,407.5L-196,407.5z"/>
	<path class="st0" d="M-194.7,404.9v-1.7h1.3v1.7H-194.7z M-194.7,414.2v-7.8h1.3v7.8H-194.7z"/>
	<path class="st0" d="M-187.2,413.8c-0.1,0-0.2,0.1-0.3,0.1c-0.1,0.1-0.3,0.1-0.4,0.2c-0.2,0.1-0.3,0.1-0.5,0.1s-0.4,0.1-0.6,0.1
		c-0.5,0-0.9-0.1-1.2-0.4c-0.4-0.3-0.5-0.7-0.5-1.2v-5.3h-1.1v-1h1.1v-2.6h1.3v2.6h1.8v1h-1.8v4.9c0,0.3,0.1,0.5,0.3,0.6
		s0.4,0.2,0.6,0.2c0.3,0,0.5,0,0.7-0.1s0.4-0.2,0.4-0.2L-187.2,413.8z"/>
	<path class="st0" d="M-186.1,404.9v-1.7h1.3v1.7H-186.1z M-186.1,414.2v-7.8h1.3v7.8H-186.1z"/>
	<path class="st0" d="M-175.9,414.2h-1.3v-4.4c0-0.8-0.1-1.5-0.4-1.8c-0.3-0.4-0.6-0.6-1.2-0.6c-0.3,0-0.5,0.1-0.8,0.2
		s-0.5,0.2-0.8,0.4c-0.2,0.2-0.4,0.4-0.6,0.6c-0.2,0.3-0.3,0.5-0.4,0.8v4.7h-1.3v-7.8h1.2v1.7c0.3-0.5,0.8-1,1.3-1.3
		c0.6-0.3,1.2-0.5,1.9-0.5c0.5,0,0.8,0.1,1.1,0.2s0.5,0.4,0.7,0.7s0.3,0.6,0.4,1c0.1,0.4,0.1,0.8,0.1,1.3v4.8H-175.9z"/>
	<path class="st0" d="M-170.8,414.3c-0.5,0-1-0.1-1.5-0.3c-0.4-0.2-0.8-0.5-1.1-0.9s-0.6-0.8-0.7-1.3c-0.2-0.5-0.3-1-0.3-1.5
		s0.1-1.1,0.3-1.6s0.4-0.9,0.7-1.3s0.7-0.7,1.1-0.9c0.4-0.2,0.9-0.3,1.5-0.3c0.7,0,1.2,0.2,1.7,0.5s0.9,0.7,1.2,1.2v-1.6h1.2v7.7
		c0,0.6-0.1,1.1-0.3,1.5s-0.5,0.8-0.9,1.1c-0.4,0.3-0.8,0.5-1.3,0.7c-0.5,0.1-1,0.2-1.6,0.2c-0.9,0-1.6-0.2-2.2-0.5
		c-0.6-0.3-1-0.7-1.4-1.3l0.8-0.7c0.3,0.5,0.7,0.8,1.2,1s1,0.3,1.6,0.3c0.4,0,0.7-0.1,1-0.2s0.6-0.3,0.8-0.5s0.4-0.5,0.6-0.8
		c0.1-0.3,0.2-0.7,0.2-1.1v-1.4c-0.2,0.2-0.3,0.5-0.5,0.7s-0.4,0.4-0.7,0.5c-0.2,0.1-0.5,0.2-0.8,0.3
		C-170.2,414.2-170.5,414.3-170.8,414.3z M-170.4,413.2c0.3,0,0.5,0,0.8-0.2c0.3-0.1,0.5-0.2,0.7-0.4c0.2-0.2,0.4-0.4,0.6-0.6
		c0.1-0.2,0.3-0.4,0.3-0.6v-2.3c-0.1-0.3-0.3-0.5-0.4-0.7c-0.2-0.2-0.4-0.4-0.6-0.6c-0.2-0.2-0.5-0.3-0.7-0.4s-0.5-0.1-0.8-0.1
		c-0.4,0-0.8,0.1-1.1,0.3c-0.3,0.2-0.6,0.4-0.8,0.7c-0.2,0.3-0.4,0.6-0.5,1s-0.2,0.7-0.2,1.1s0.1,0.8,0.2,1.1
		c0.1,0.3,0.3,0.7,0.6,0.9c0.2,0.3,0.5,0.5,0.8,0.6S-170.8,413.2-170.4,413.2z"/>
	<path class="st0" d="M-155.8,403.5v10.7h-1.3v-4.8h-5.9v4.8h-1.3v-10.7h1.3v4.6h5.9v-4.6H-155.8z"/>
	<path class="st0" d="M-150,414.3c-0.6,0-1.1-0.1-1.6-0.3c-0.5-0.2-0.9-0.5-1.3-0.9c-0.4-0.4-0.6-0.8-0.8-1.3s-0.3-1-0.3-1.6
		s0.1-1.1,0.3-1.6s0.5-0.9,0.8-1.3c0.4-0.4,0.8-0.7,1.3-0.9s1-0.3,1.6-0.3s1.1,0.1,1.6,0.3c0.5,0.2,0.9,0.5,1.2,0.9s0.6,0.8,0.8,1.3
		s0.3,1,0.3,1.5c0,0.1,0,0.2,0,0.3c0,0.1,0,0.2,0,0.2h-6.5c0,0.4,0.1,0.7,0.3,1.1c0.2,0.3,0.3,0.6,0.6,0.8c0.2,0.2,0.5,0.4,0.8,0.5
		s0.6,0.2,1,0.2c0.2,0,0.5,0,0.7-0.1s0.4-0.2,0.6-0.3s0.4-0.2,0.5-0.4c0.2-0.2,0.3-0.3,0.4-0.5l1.1,0.3c-0.1,0.3-0.3,0.6-0.5,0.8
		c-0.2,0.2-0.5,0.4-0.8,0.6s-0.6,0.3-1,0.4C-149.2,414.3-149.6,414.3-150,414.3z M-147.3,409.7c0-0.4-0.1-0.7-0.3-1
		s-0.4-0.6-0.6-0.8c-0.2-0.2-0.5-0.4-0.8-0.5s-0.6-0.2-1-0.2s-0.7,0.1-1,0.2s-0.6,0.3-0.8,0.5s-0.4,0.5-0.6,0.8
		c-0.1,0.3-0.2,0.6-0.3,1H-147.3z"/>
	<path class="st0" d="M-144.6,403.2h1.3v8.9c0,0.3,0.1,0.5,0.2,0.7s0.4,0.2,0.7,0.2c0.1,0,0.2,0,0.4-0.1c0.1,0,0.3-0.1,0.4-0.1
		l0.2,1.1c-0.2,0.1-0.5,0.2-0.8,0.2c-0.3,0.1-0.6,0.1-0.8,0.1c-0.5,0-0.9-0.1-1.2-0.4s-0.4-0.7-0.4-1.2L-144.6,403.2L-144.6,403.2z"
		/>
	<path class="st0" d="M-136.2,414.3c-0.7,0-1.2-0.2-1.7-0.5s-0.9-0.7-1.2-1.2v4.7h-1.3v-11h1.2v1.5c0.3-0.5,0.7-0.9,1.2-1.2
		c0.5-0.3,1-0.4,1.6-0.4c0.5,0,1,0.1,1.5,0.3c0.5,0.2,0.8,0.5,1.2,0.9s0.6,0.8,0.8,1.3s0.3,1,0.3,1.5c0,0.6-0.1,1.1-0.3,1.6
		s-0.4,0.9-0.7,1.3s-0.7,0.7-1.1,0.9S-135.7,414.3-136.2,414.3z M-136.6,413.2c0.4,0,0.7-0.1,1.1-0.2c0.3-0.2,0.6-0.4,0.8-0.7
		c0.2-0.3,0.4-0.6,0.5-0.9c0.1-0.4,0.2-0.7,0.2-1.1s-0.1-0.8-0.2-1.1c-0.1-0.4-0.3-0.7-0.6-0.9c-0.2-0.3-0.5-0.5-0.8-0.6
		s-0.7-0.2-1.1-0.2c-0.2,0-0.5,0-0.7,0.1s-0.5,0.2-0.7,0.4c-0.2,0.2-0.4,0.3-0.6,0.6c-0.2,0.2-0.3,0.4-0.3,0.7v2.2
		c0.1,0.3,0.2,0.5,0.4,0.7s0.4,0.4,0.6,0.6c0.2,0.2,0.5,0.3,0.7,0.4C-137.1,413.1-136.9,413.2-136.6,413.2z"/>
	<path class="st1" d="M-131.2,414.2v-1.7h1.1v1.7H-131.2z"/>
	<path class="st1" d="M-121.3,414.2h-1.3v-4.4c0-0.8-0.1-1.5-0.4-1.8c-0.3-0.4-0.6-0.6-1.2-0.6c-0.3,0-0.5,0.1-0.8,0.2
		s-0.5,0.2-0.8,0.4c-0.2,0.2-0.4,0.4-0.6,0.6c-0.2,0.3-0.3,0.5-0.4,0.8v4.7h-1.3v-7.8h1.2v1.7c0.3-0.5,0.8-1,1.3-1.3
		c0.6-0.3,1.2-0.5,1.9-0.5c0.5,0,0.8,0.1,1.1,0.2s0.5,0.4,0.7,0.7s0.3,0.6,0.4,1s0.1,0.8,0.1,1.3v4.8H-121.3z"/>
	<path class="st1" d="M-115.8,414.3c-0.6,0-1.1-0.1-1.6-0.3c-0.5-0.2-0.9-0.5-1.3-0.9s-0.6-0.8-0.8-1.3c-0.2-0.5-0.3-1-0.3-1.6
		s0.1-1.1,0.3-1.6c0.2-0.5,0.5-0.9,0.8-1.3c0.4-0.4,0.8-0.7,1.3-0.9s1-0.3,1.6-0.3s1.1,0.1,1.6,0.3c0.5,0.2,0.9,0.5,1.2,0.9
		s0.6,0.8,0.8,1.3c0.2,0.5,0.3,1,0.3,1.5c0,0.1,0,0.2,0,0.3c0,0.1,0,0.2,0,0.2h-6.5c0,0.4,0.1,0.7,0.3,1.1c0.2,0.3,0.3,0.6,0.6,0.8
		c0.2,0.2,0.5,0.4,0.8,0.5s0.6,0.2,1,0.2c0.2,0,0.5,0,0.7-0.1s0.4-0.2,0.6-0.3s0.4-0.2,0.5-0.4c0.2-0.2,0.3-0.3,0.4-0.5l1.1,0.3
		c-0.1,0.3-0.3,0.6-0.5,0.8c-0.2,0.2-0.5,0.4-0.8,0.6s-0.6,0.3-1,0.4C-115.1,414.3-115.4,414.3-115.8,414.3z M-113.1,409.7
		c0-0.4-0.1-0.7-0.3-1s-0.4-0.6-0.6-0.8c-0.2-0.2-0.5-0.4-0.8-0.5s-0.6-0.2-1-0.2s-0.7,0.1-1,0.2s-0.6,0.3-0.8,0.5s-0.4,0.5-0.6,0.8
		c-0.1,0.3-0.2,0.6-0.3,1H-113.1z"/>
	<path class="st1" d="M-106.5,413.8c-0.1,0-0.2,0.1-0.3,0.1c-0.1,0.1-0.3,0.1-0.4,0.2c-0.2,0.1-0.3,0.1-0.5,0.1s-0.4,0.1-0.6,0.1
		c-0.5,0-0.9-0.1-1.2-0.4c-0.4-0.3-0.5-0.7-0.5-1.2v-5.3h-1.1v-1h1.1v-2.6h1.3v2.6h1.8v1h-1.8v4.9c0,0.3,0.1,0.5,0.3,0.6
		c0.2,0.1,0.4,0.2,0.6,0.2c0.3,0,0.5,0,0.7-0.1s0.4-0.2,0.4-0.2L-106.5,413.8z"/>
</g>
<g>
	<path class="st2" d="M-201.3,402.8c-0.4,0-0.8-0.1-1.1-0.2s-0.6-0.3-0.9-0.5c-0.3-0.2-0.4-0.5-0.6-0.8c-0.1-0.3-0.2-0.6-0.2-1
		s0.1-0.8,0.3-1.1c0.2-0.3,0.4-0.6,0.7-0.8c0.3-0.2,0.7-0.4,1.1-0.6c0.4-0.1,0.9-0.2,1.4-0.2c0.3,0,0.7,0,1,0.1s0.6,0.1,0.8,0.3
		v-0.4c0-0.9-0.5-1.4-1.6-1.4c-0.4,0-0.9,0.1-1.3,0.2c-0.4,0.1-0.8,0.4-1.3,0.7l-0.7-1.5c0.5-0.3,1.1-0.6,1.7-0.8
		c0.6-0.2,1.2-0.3,1.8-0.3c1.2,0,2.2,0.3,2.8,0.9c0.7,0.6,1,1.4,1,2.5v2.1c0,0.2,0,0.4,0.1,0.5s0.3,0.2,0.5,0.2v2.1
		c-0.2-0.1-0.4-0.1-0.6-0.1s-0.4,0-0.5,0c-0.4,0-0.8-0.1-1-0.3c-0.2-0.2-0.4-0.4-0.4-0.7v-0.4c-0.4,0.5-0.8,0.8-1.3,1.1
		C-200.2,402.7-200.7,402.8-201.3,402.8z M-200.5,401c0.3,0,0.5,0,0.8-0.1c0.2-0.1,0.5-0.2,0.6-0.4c0.2-0.2,0.4-0.4,0.4-0.6v-0.8
		c-0.2-0.1-0.4-0.1-0.7-0.2c-0.2,0-0.5-0.1-0.7-0.1c-0.4,0-0.8,0.1-1.1,0.3c-0.3,0.2-0.4,0.5-0.4,0.8s0.1,0.5,0.3,0.7
		C-201.2,400.9-200.9,401-200.5,401z"/>
	<path class="st2" d="M-189.4,402.8c-0.6,0-1.1-0.1-1.6-0.4c-0.4-0.3-0.8-0.6-1.1-1.1v4.6h-2.5v-11.3h2.1v1.3
		c0.3-0.5,0.7-0.8,1.1-1.1c0.4-0.3,1-0.4,1.6-0.4c0.5,0,1,0.1,1.5,0.3s0.9,0.5,1.2,0.9s0.6,0.8,0.8,1.3s0.3,1,0.3,1.6
		s-0.1,1.2-0.3,1.7s-0.4,1-0.7,1.3c-0.3,0.4-0.7,0.7-1.1,0.9C-188.5,402.7-188.9,402.8-189.4,402.8z M-190.3,400.7
		c0.3,0,0.5-0.1,0.7-0.2s0.4-0.3,0.6-0.5c0.2-0.2,0.3-0.4,0.4-0.7c0.1-0.3,0.1-0.5,0.1-0.8s0-0.6-0.1-0.8c-0.1-0.2-0.2-0.5-0.4-0.6
		c-0.2-0.2-0.4-0.3-0.6-0.4c-0.2-0.1-0.5-0.2-0.8-0.2s-0.7,0.1-1,0.3c-0.3,0.2-0.5,0.5-0.7,0.8v1.7c0.2,0.4,0.4,0.7,0.7,1
		C-191,400.6-190.7,400.7-190.3,400.7z"/>
	<path class="st2" d="M-180.9,402.8c-0.7,0-1.3-0.1-1.8-0.3c-0.5-0.2-1-0.5-1.4-0.9s-0.7-0.8-0.8-1.3c-0.2-0.5-0.3-1-0.3-1.6
		s0.1-1.1,0.3-1.6s0.5-1,0.8-1.4c0.4-0.4,0.8-0.7,1.4-0.9c0.5-0.2,1.1-0.3,1.8-0.3s1.3,0.1,1.8,0.3c0.5,0.2,1,0.5,1.3,0.9
		c0.4,0.4,0.6,0.8,0.8,1.3s0.3,1,0.3,1.6c0,0.1,0,0.3,0,0.4s0,0.3,0,0.4h-5.9c0,0.5,0.2,1,0.6,1.2c0.4,0.3,0.8,0.4,1.2,0.4
		s0.7-0.1,1-0.3s0.6-0.4,0.7-0.7l2.1,0.6c-0.3,0.6-0.8,1.1-1.5,1.5C-179.2,402.6-180,402.8-180.9,402.8z M-179.2,397.9
		c-0.1-0.5-0.2-0.9-0.6-1.2c-0.3-0.3-0.7-0.4-1.2-0.4s-0.9,0.2-1.2,0.5s-0.5,0.7-0.5,1.2L-179.2,397.9L-179.2,397.9z"/>
	<path class="st2" d="M-170.4,396.7c-0.6,0-1.1,0.1-1.6,0.3c-0.5,0.2-0.8,0.5-1,0.8v4.8h-2.4v-8h2.2v1.6c0.3-0.5,0.6-1,1.1-1.3
		c0.4-0.3,0.9-0.5,1.4-0.5c0.2,0,0.3,0,0.4,0L-170.4,396.7L-170.4,396.7z"/>
</g>
<path class="st0" d="M-234,379.7l22.7,3l-5.2,30.4l-21.4-2.9L-234,379.7 M-234.8,378.6L-239,411l23.3,3.2l5.6-32.4L-234.8,378.6
	L-234.8,378.6z"/>
<rect x="-237.4" y="409.4" transform="matrix(0.9318 0.3629 -0.3629 0.9318 133.2194 109.9868)" class="st3" width="22.5" height="0.4"/>
<rect x="-237.2" y="408.8" transform="matrix(0.9318 0.3629 -0.3629 0.9318 133.0215 109.8812)" class="st3" width="22.5" height="0.4"/>
<rect x="-237" y="408.2" transform="matrix(0.9318 0.3629 -0.3629 0.9318 132.8074 109.7542)" class="st3" width="22.5" height="0.4"/>
<rect x="-236.6" y="407.5" transform="matrix(0.9318 0.3629 -0.3629 0.9318 132.5795 109.5915)" class="st3" width="22.5" height="0.4"/>
<rect x="-236.5" y="406.9" transform="matrix(0.9318 0.3629 -0.3629 0.9318 132.3815 109.4858)" class="st3" width="22.5" height="0.4"/>
<rect x="-236.2" y="406.3" transform="matrix(0.9318 0.3629 -0.3629 0.9318 132.1971 109.3368)" class="st3" width="22.5" height="0.4"/>
<rect x="-236" y="405.8" transform="matrix(0.9318 0.3629 -0.3629 0.9318 132.0053 109.2393)" class="st3" width="22.5" height="0.4"/>
<rect x="-235.8" y="405.2" transform="matrix(0.9318 0.3629 -0.3629 0.9318 131.8073 109.1337)" class="st3" width="22.5" height="0.4"/>
<rect x="-235.6" y="404.5" transform="matrix(0.9318 0.3629 -0.3629 0.9318 131.5934 109.0066)" class="st3" width="22.5" height="0.4"/>
<rect x="-235.3" y="404" transform="matrix(0.9318 0.3629 -0.3629 0.9318 131.409 108.8575)" class="st3" width="22.5" height="0.4"/>
<rect x="-235.1" y="403.4" transform="matrix(0.9318 0.3629 -0.3629 0.9318 131.211 108.7518)" class="st3" width="22.5" height="0.4"/>
<rect x="-234.9" y="402.8" transform="matrix(0.9318 0.3629 -0.3629 0.9318 130.997 108.6249)" class="st3" width="22.5" height="0.4"/>
<rect x="-234.6" y="402.2" transform="matrix(0.9318 0.3629 -0.3629 0.9318 130.8125 108.4757)" class="st3" width="22.5" height="0.4"/>
<rect x="-234.4" y="401.6" transform="matrix(0.9318 0.3629 -0.3629 0.9318 130.6207 108.3782)" class="st3" width="22.5" height="0.4"/>
<rect x="-234.1" y="401" transform="matrix(0.9318 0.3629 -0.3629 0.9318 130.4007 108.243)" class="st3" width="22.5" height="0.4"/>
<rect x="-233.9" y="400.5" transform="matrix(0.9318 0.3629 -0.3629 0.9318 130.2384 108.1234)" class="st3" width="22.5" height="0.4"/>
<rect x="-233.7" y="399.9" transform="matrix(0.9318 0.3629 -0.3629 0.9318 130.0244 107.9964)" class="st3" width="22.5" height="0.4"/>
<rect x="-233.5" y="399.3" transform="matrix(0.9318 0.3629 -0.3629 0.9318 129.8265 107.8908)" class="st3" width="22.5" height="0.4"/>
<rect x="-233.3" y="398.7" transform="matrix(0.9318 0.3629 -0.3629 0.9318 129.6125 107.7637)" class="st3" width="22.5" height="0.4"/>
<rect x="-232.9" y="398" transform="matrix(0.9318 0.3629 -0.3629 0.9318 129.3845 107.6011)" class="st3" width="22.5" height="0.4"/>
<rect x="-232.8" y="397.4" transform="matrix(0.9318 0.3629 -0.3629 0.9318 129.1865 107.4955)" class="st3" width="22.5" height="0.4"/>
<rect x="-232.5" y="396.8" transform="matrix(0.9318 0.3629 -0.3629 0.9318 129.0022 107.3463)" class="st3" width="22.5" height="0.4"/>
<rect x="-232.3" y="396.3" transform="matrix(0.9318 0.3629 -0.3629 0.9318 128.8103 107.2488)" class="st3" width="22.5" height="0.4"/>
<rect x="-232.1" y="395.7" transform="matrix(0.9318 0.3629 -0.3629 0.9318 128.6123 107.1432)" class="st3" width="22.5" height="0.4"/>
<rect x="-231.9" y="395.1" transform="matrix(0.9318 0.3629 -0.3629 0.9318 128.3984 107.0162)" class="st3" width="22.5" height="0.4"/>
<rect x="-231.6" y="394.5" transform="matrix(0.9318 0.3629 -0.3629 0.9318 128.214 106.8671)" class="st3" width="22.5" height="0.4"/>
<rect x="-231.4" y="393.9" transform="matrix(0.9318 0.3629 -0.3629 0.9318 128.016 106.7615)" class="st3" width="22.5" height="0.4"/>
<rect x="-231.2" y="393.3" transform="matrix(0.9318 0.3629 -0.3629 0.9318 127.8021 106.6344)" class="st3" width="22.5" height="0.4"/>
<rect x="-230.9" y="392.7" transform="matrix(0.9318 0.3629 -0.3629 0.9318 127.6175 106.4853)" class="st3" width="22.5" height="0.4"/>
<rect x="-230.7" y="392.1" transform="matrix(0.9318 0.3629 -0.3629 0.9318 127.4258 106.3878)" class="st3" width="22.5" height="0.4"/>
<rect x="-230.5" y="391.6" transform="matrix(0.9318 0.3629 -0.3629 0.9318 127.2278 106.2822)" class="st3" width="22.5" height="0.4"/>
<rect x="-230.2" y="391" transform="matrix(0.9318 0.3629 -0.3629 0.9318 127.0434 106.133)" class="st3" width="22.5" height="0.4"/>
<rect x="-230" y="390.4" transform="matrix(0.9318 0.3629 -0.3629 0.9318 126.8294 106.006)" class="st3" width="22.5" height="0.4"/>
<rect x="-229.8" y="389.8" transform="matrix(0.9318 0.3629 -0.3629 0.9318 126.6315 105.9004)" class="st3" width="22.5" height="0.4"/>
<rect x="-229.6" y="389.2" transform="matrix(0.9318 0.3629 -0.3629 0.9318 126.4175 105.7733)" class="st3" width="22.5" height="0.4"/>
<rect x="-229.2" y="388.5" transform="matrix(0.9318 0.3629 -0.3629 0.9318 126.1895 105.6106)" class="st3" width="22.5" height="0.4"/>
<rect x="-229.1" y="387.9" transform="matrix(0.9318 0.3629 -0.3629 0.9318 125.9915 105.5051)" class="st3" width="22.5" height="0.4"/>
<rect x="-228.8" y="387.3" transform="matrix(0.9318 0.3629 -0.3629 0.9318 125.8072 105.3559)" class="st3" width="22.5" height="0.4"/>
<rect x="-228.6" y="386.8" transform="matrix(0.9318 0.3629 -0.3629 0.9318 125.6153 105.2584)" class="st3" width="22.5" height="0.4"/>
<rect x="-228.4" y="386.2" transform="matrix(0.9318 0.3629 -0.3629 0.9318 125.4173 105.1529)" class="st3" width="22.5" height="0.4"/>
<rect x="-228.2" y="385.6" transform="matrix(0.9318 0.3629 -0.3629 0.9318 125.2034 105.0258)" class="st3" width="22.5" height="0.4"/>
<rect x="-227.9" y="385" transform="matrix(0.9318 0.3629 -0.3629 0.9318 125.019 104.8767)" class="st3" width="22.5" height="0.4"/>
<rect x="-227.7" y="384.4" transform="matrix(0.9318 0.3629 -0.3629 0.9318 124.821 104.771)" class="st3" width="22.5" height="0.4"/>
<rect x="-227.5" y="383.8" transform="matrix(0.9318 0.3629 -0.3629 0.9318 124.6071 104.644)" class="st3" width="22.5" height="0.4"/>
<rect x="-227.2" y="383.2" transform="matrix(0.9318 0.3629 -0.3629 0.9318 124.4225 104.4948)" class="st3" width="22.5" height="0.4"/>
<rect x="-227" y="382.6" transform="matrix(0.9318 0.3629 -0.3629 0.9318 124.2308 104.3973)" class="st3" width="22.5" height="0.4"/>
<rect x="-226.8" y="382.1" transform="matrix(0.9318 0.3629 -0.3629 0.9318 124.0328 104.2918)" class="st3" width="22.5" height="0.4"/>
<g>
	<path class="st2" d="M-220.7,414v-25.9h9.3c1,0,2,0.2,2.9,0.6s1.6,1,2.2,1.7c0.6,0.7,1.1,1.5,1.5,2.4s0.5,1.8,0.5,2.7
		c0,1-0.2,1.9-0.5,2.8s-0.8,1.7-1.4,2.4c-0.6,0.7-1.3,1.2-2.2,1.7c-0.9,0.4-1.8,0.6-2.8,0.6h-4.4v11.2h-5.1V414z M-215.7,398.4h4.1
		c0.6,0,1.1-0.3,1.5-0.8s0.6-1.3,0.6-2.2c0-0.5-0.1-0.9-0.2-1.3s-0.3-0.7-0.5-0.9s-0.5-0.4-0.8-0.5s-0.6-0.2-0.9-0.2h-3.9
		L-215.7,398.4L-215.7,398.4z"/>
</g>
<text transform="matrix(1 0 0 1 -172 1150)" style="font-family:'MyriadPro-Regular'; font-size:12px;">#4f3c23</text>
<g>
	<path class="st0" d="M-207.3,407.3c0.5,0,0.9,0.9,0.9,0.9l1.8,4.4l3.6-9.1h1.5l-4.5,10.6h-1.2l-2.1-5l-2.1,5h-1.2l-4.4-10.6h1.5
		l3.6,9.1l1.8-4.4C-208.2,408.2-207.9,407.3-207.3,407.3z"/>
</g>
</svg>
