<?xml version="1.0" encoding="utf-8"?>
<!-- Generator: Adobe Illustrator 19.1.0, SVG Export Plug-In . SVG Version: 6.00 Build 0)  -->
<svg version="1.1" id="Слой_1" xmlns="http://www.w3.org/2000/svg" xmlns:xlink="http://www.w3.org/1999/xlink" x="0px" y="0px"
	 viewBox="-170 437 270 80" xml:space="preserve" height="80" width="270">
<style type="text/css">
	.st0{fill:#F8D562;}
	.st1{opacity:1;fill:#0F8DCB;}
	.st2{fill:#0F8DCB;}
	.st3{fill:#707070;}
</style>
<g>
	<path class="st0" d="M-92.5,487.3c-0.8,0-1.5-0.2-2.2-0.4c-0.7-0.3-1.3-0.6-1.8-1.1s-0.8-1-1.2-1.6c-0.3-0.6-0.4-1.3-0.4-2
		s0.2-1.5,0.5-2.2s0.8-1.2,1.4-1.7s1.3-0.8,2.2-1.1s1.8-0.4,2.8-0.4c0.7,0,1.3,0.1,1.9,0.2s1.2,0.3,1.6,0.5v-0.8
		c0-1.9-1.1-2.8-3.2-2.8c-0.8,0-1.7,0.2-2.5,0.4c-0.8,0.3-1.6,0.8-2.5,1.3l-1.3-2.9c1-0.7,2.1-1.2,3.3-1.5c1.1-0.3,2.4-0.5,3.6-0.5
		c2.4,0,4.3,0.6,5.6,1.7c1.3,1.1,1.9,2.8,1.9,5v4.1c0,0.5,0.1,0.8,0.3,1c0.2,0.2,0.5,0.3,1,0.3v4.1c-0.5,0.1-0.9,0.2-1.3,0.2
		c-0.4,0-0.8,0.1-1,0.1c-0.9,0-1.6-0.2-2-0.5c-0.5-0.3-0.8-0.8-0.8-1.5l-0.1-0.8c-0.7,0.9-1.5,1.6-2.5,2.1
		C-90.4,487-91.4,487.3-92.5,487.3z M-91,483.8c0.5,0,1-0.1,1.5-0.3c0.5-0.2,0.9-0.4,1.3-0.8c0.5-0.3,0.7-0.8,0.7-1.2V480
		c-0.4-0.2-0.9-0.3-1.3-0.4c-0.5-0.1-0.9-0.2-1.3-0.2c-0.9,0-1.6,0.2-2.2,0.6s-0.8,0.9-0.8,1.6c0,0.6,0.3,1.1,0.7,1.4
		C-92.3,483.7-91.7,483.8-91,483.8z"/>
	<path class="st0" d="M-69.1,487.3c-1.2,0-2.3-0.3-3.1-0.8c-0.9-0.5-1.6-1.2-2.1-2.1v9.4h-4.9v-22.7h4.2v2.5
		c0.6-0.9,1.3-1.6,2.2-2.1c0.8-0.5,1.9-0.8,3.1-0.8c1.1,0,2,0.3,2.9,0.7c0.9,0.4,1.7,1,2.4,1.8c0.7,0.8,1.2,1.6,1.5,2.6
		s0.6,2.1,0.6,3.2c0,1.2-0.2,2.3-0.5,3.3s-0.8,1.9-1.4,2.6c-0.6,0.8-1.3,1.3-2.2,1.8C-67.1,487.1-68,487.3-69.1,487.3z M-70.7,483.3
		c0.5,0,1-0.1,1.4-0.3c0.4-0.2,0.8-0.5,1.2-0.9s0.6-0.8,0.8-1.3c0.2-0.5,0.3-1.1,0.3-1.6c0-0.6-0.1-1.1-0.3-1.6
		c-0.2-0.5-0.4-0.9-0.8-1.3c-0.4-0.4-0.8-0.7-1.2-0.8c-0.5-0.2-1-0.3-1.5-0.3c-0.7,0-1.3,0.2-1.9,0.6c-0.6,0.4-1.1,0.9-1.4,1.6v3.2
		c0.3,0.8,0.8,1.5,1.4,2C-72.2,482.9-71.4,483.3-70.7,483.3z"/>
	<path class="st0" d="M-52.1,487.3c-1.3,0-2.5-0.3-3.6-0.7c-1.1-0.4-1.9-1-2.7-1.8s-1.3-1.6-1.7-2.6s-0.6-2-0.6-3.1
		c0-1.2,0.2-2.3,0.6-3.3c0.4-1,0.9-1.9,1.7-2.7s1.6-1.3,2.7-1.9c1.1-0.4,2.3-0.7,3.6-0.7s2.5,0.3,3.6,0.7c1.1,0.4,1.9,1,2.7,1.8
		c0.8,0.8,1.3,1.6,1.7,2.6c0.3,1,0.6,2,0.6,3.1c0,0.3,0,0.6,0,0.8s-0.1,0.5-0.1,0.7h-11.8c0.1,1.1,0.5,1.9,1.2,2.4s1.5,0.8,2.4,0.8
		c0.7,0,1.3-0.2,2-0.5s1.1-0.8,1.3-1.4l4.1,1.2c-0.6,1.3-1.6,2.3-2.9,3C-48.8,486.9-50.3,487.3-52.1,487.3z M-48.8,477.5
		c-0.1-1-0.5-1.8-1.1-2.4c-0.6-0.6-1.4-0.8-2.4-0.8s-1.8,0.3-2.4,0.9c-0.6,0.6-1,1.4-1.1,2.4L-48.8,477.5L-48.8,477.5z"/>
	<path class="st0" d="M-31.4,475.3c-1.2,0-2.2,0.3-3.2,0.6c-0.9,0.3-1.6,0.9-2.1,1.6v9.5h-4.9v-15.8h4.5v3.2
		c0.6-1.1,1.3-1.9,2.1-2.5s1.8-0.9,2.8-0.9c0.4,0,0.7,0,0.8,0L-31.4,475.3L-31.4,475.3z"/>
</g>
<rect x="-164.1" y="500.3" transform="matrix(0.9318 0.3629 -0.3629 0.9318 172.0417 85.6075)" class="st1" width="44.5" height="0.8"/>
<rect x="-163.6" y="499.1" transform="matrix(0.9318 0.3629 -0.3629 0.9318 171.6475 85.3366)" class="st1" width="44.5" height="0.8"/>
<rect x="-163.2" y="498" transform="matrix(0.9318 0.3629 -0.3629 0.9318 171.2593 85.1355)" class="st1" width="44.5" height="0.8"/>
<rect x="-162.7" y="496.8" transform="matrix(0.9318 0.3629 -0.3629 0.9318 170.865 84.8645)" class="st1" width="44.5" height="0.8"/>
<rect x="-162.3" y="495.6" transform="matrix(0.9318 0.3629 -0.3629 0.9318 170.4547 84.6339)" class="st1" width="44.5" height="0.8"/>
<rect x="-161.8" y="494.4" transform="matrix(0.9318 0.3629 -0.3629 0.9318 170.0603 84.3629)" class="st1" width="44.5" height="0.8"/>
<rect x="-161.2" y="493.2" transform="matrix(0.9318 0.3629 -0.3629 0.9318 169.6483 84.0906)" class="st1" width="44.5" height="0.8"/>
<rect x="-160.9" y="492.1" transform="matrix(0.9318 0.3629 -0.3629 0.9318 169.2779 83.8909)" class="st1" width="44.5" height="0.8"/>
<rect x="-160.4" y="491" transform="matrix(0.9318 0.3629 -0.3629 0.9318 168.8972 83.6381)" class="st1" width="44.5" height="0.8"/>
<rect x="-159.9" y="489.7" transform="matrix(0.9318 0.3629 -0.3629 0.9318 168.4715 83.3477)" class="st1" width="44.5" height="0.8"/>
<rect x="-159.4" y="488.5" transform="matrix(0.9318 0.3629 -0.3629 0.9318 168.0905 83.1098)" class="st1" width="44.5" height="0.8"/>
<rect x="-159" y="487.3" transform="matrix(0.9318 0.3629 -0.3629 0.9318 167.6802 82.8791)" class="st1" width="44.5" height="0.8"/>
<rect x="-158.5" y="486.1" transform="matrix(0.9318 0.3629 -0.3629 0.9318 167.2859 82.6082)" class="st1" width="44.5" height="0.8"/>
<rect x="-158.1" y="484.9" transform="matrix(0.9318 0.3629 -0.3629 0.9318 166.8756 82.3775)" class="st1" width="44.5" height="0.8"/>
<rect x="-157.6" y="483.8" transform="matrix(0.9318 0.3629 -0.3629 0.9318 166.5034 82.1362)" class="st1" width="44.5" height="0.8"/>
<rect x="-157.2" y="482.6" transform="matrix(0.9318 0.3629 -0.3629 0.9318 166.0931 81.9055)" class="st1" width="44.5" height="0.8"/>
<rect x="-156.7" y="481.4" transform="matrix(0.9318 0.3629 -0.3629 0.9318 165.6988 81.6345)" class="st1" width="44.5" height="0.8"/>
<rect x="-156.3" y="480.2" transform="matrix(0.9318 0.3629 -0.3629 0.9318 165.2885 81.4038)" class="st1" width="44.5" height="0.8"/>
<rect x="-155.8" y="479.1" transform="matrix(0.9318 0.3629 -0.3629 0.9318 164.9163 81.1625)" class="st1" width="44.5" height="0.8"/>
<rect x="-155.3" y="477.9" transform="matrix(0.9318 0.3629 -0.3629 0.9318 164.5221 80.8916)" class="st1" width="44.5" height="0.8"/>
<rect x="-154.9" y="476.7" transform="matrix(0.9318 0.3629 -0.3629 0.9318 164.1117 80.6609)" class="st1" width="44.5" height="0.8"/>
<rect x="-154.4" y="475.6" transform="matrix(0.9318 0.3629 -0.3629 0.9318 163.7395 80.4195)" class="st1" width="44.5" height="0.8"/>
<rect x="-154" y="474.4" transform="matrix(0.9318 0.3629 -0.3629 0.9318 163.3292 80.1889)" class="st1" width="44.5" height="0.8"/>
<rect x="-153.5" y="473.2" transform="matrix(0.9318 0.3629 -0.3629 0.9318 162.9349 79.9179)" class="st1" width="44.5" height="0.8"/>
<rect x="-153.1" y="472" transform="matrix(0.9318 0.3629 -0.3629 0.9318 162.5246 79.6872)" class="st1" width="44.5" height="0.8"/>
<rect x="-152.6" y="470.8" transform="matrix(0.9318 0.3629 -0.3629 0.9318 162.1303 79.4163)" class="st1" width="44.5" height="0.8"/>
<rect x="-152.2" y="469.7" transform="matrix(0.9318 0.3629 -0.3629 0.9318 161.7421 79.2152)" class="st1" width="44.5" height="0.8"/>
<rect x="-151.7" y="468.5" transform="matrix(0.9318 0.3629 -0.3629 0.9318 161.3478 78.9443)" class="st1" width="44.5" height="0.8"/>
<rect x="-151.2" y="467.3" transform="matrix(0.9318 0.3629 -0.3629 0.9318 160.9536 78.6734)" class="st1" width="44.5" height="0.8"/>
<rect x="-150.8" y="466.1" transform="matrix(0.9318 0.3629 -0.3629 0.9318 160.5432 78.4427)" class="st1" width="44.5" height="0.8"/>
<rect x="-150.3" y="465" transform="matrix(0.9318 0.3629 -0.3629 0.9318 160.1711 78.2014)" class="st1" width="44.5" height="0.8"/>
<rect x="-149.9" y="463.8" transform="matrix(0.9318 0.3629 -0.3629 0.9318 159.7607 77.9707)" class="st1" width="44.5" height="0.8"/>
<rect x="-149.4" y="462.6" transform="matrix(0.9318 0.3629 -0.3629 0.9318 159.3664 77.6998)" class="st1" width="44.5" height="0.8"/>
<rect x="-149" y="461.4" transform="matrix(0.9318 0.3629 -0.3629 0.9318 158.9561 77.469)" class="st1" width="44.5" height="0.8"/>
<rect x="-148.5" y="460.3" transform="matrix(0.9318 0.3629 -0.3629 0.9318 158.584 77.2278)" class="st1" width="44.5" height="0.8"/>
<rect x="-148.1" y="459.1" transform="matrix(0.9318 0.3629 -0.3629 0.9318 158.1736 76.997)" class="st1" width="44.5" height="0.8"/>
<rect x="-147.6" y="457.9" transform="matrix(0.9318 0.3629 -0.3629 0.9318 157.7793 76.7262)" class="st1" width="44.5" height="0.8"/>
<rect x="-147.1" y="456.8" transform="matrix(0.9318 0.3629 -0.3629 0.9318 157.4072 76.4848)" class="st1" width="44.5" height="0.8"/>
<rect x="-146.7" y="455.6" transform="matrix(0.9318 0.3629 -0.3629 0.9318 156.9969 76.2541)" class="st1" width="44.5" height="0.8"/>
<rect x="-146.2" y="454.4" transform="matrix(0.9318 0.3629 -0.3629 0.9318 156.6025 75.9832)" class="st1" width="44.5" height="0.8"/>
<rect x="-145.7" y="453.2" transform="matrix(0.9318 0.3629 -0.3629 0.9318 156.1905 75.7108)" class="st1" width="44.5" height="0.8"/>
<rect x="-145.3" y="452" transform="matrix(0.9318 0.3629 -0.3629 0.9318 155.7979 75.4816)" class="st1" width="44.5" height="0.8"/>
<rect x="-144.8" y="450.9" transform="matrix(0.9318 0.3629 -0.3629 0.9318 155.4393 75.2583)" class="st1" width="44.5" height="0.8"/>
<rect x="-144.3" y="449.7" transform="matrix(0.9318 0.3629 -0.3629 0.9318 155.0137 74.9679)" class="st1" width="44.5" height="0.8"/>
<rect x="-143.9" y="448.6" transform="matrix(0.9318 0.3629 -0.3629 0.9318 154.6347 74.7567)" class="st1" width="44.5" height="0.8"/>
<rect x="-143.3" y="447.3" transform="matrix(0.9318 0.3629 -0.3629 0.9318 154.2091 74.4663)" class="st1" width="44.5" height="0.8"/>
<rect x="-142.9" y="446.2" transform="matrix(0.9318 0.3629 -0.3629 0.9318 153.8369 74.2249)" class="st1" width="44.5" height="0.8"/>
<rect x="-142.5" y="445" transform="matrix(0.9318 0.3629 -0.3629 0.9318 153.4579 74.0138)" class="st1" width="44.5" height="0.8"/>
<g>
	<path d="M-103.9,495.7c1.1,0,1.7,1.9,1.7,1.9l3.7,8.8l7.2-18.2h2.9l-8.9,21.3h-2.3l-4.2-10l-4.3,10h-2.4l-8.9-21.3h2.9l7.2,18.2
		l3.6-8.8C-105.6,497.6-104.8,495.7-103.9,495.7z"/>
</g>
<g>
	<path d="M-81.7,496.1c-1.3,0-2.5,0.4-3.5,1s-1.7,1.5-2.1,2.7v9.7h-2.6v-15.7h2.5v3.6c0.5-1.1,1.3-2,2.1-2.7
		c0.9-0.7,1.8-1.1,2.8-1.1c0.2,0,0.4,0,0.5,0s0.3,0,0.4,0L-81.7,496.1L-81.7,496.1z"/>
	<path d="M-79.2,490.9v-3.3h2.6v3.3H-79.2z M-79.2,509.5v-15.7h2.6v15.7H-79.2z"/>
	<path d="M-64.3,508.7c-0.2,0.1-0.4,0.2-0.6,0.3c-0.3,0.1-0.6,0.2-0.9,0.3s-0.7,0.2-1.1,0.3c-0.4,0.1-0.8,0.1-1.2,0.1
		c-1,0-1.8-0.3-2.5-0.8c-0.7-0.5-1-1.4-1-2.5v-10.5h-2.1v-2.1h2.1v-5.2h2.6v5.2h3.5v2.1H-69v9.7c0,0.6,0.2,1,0.6,1.3
		c0.3,0.3,0.7,0.4,1.2,0.4s1-0.1,1.4-0.3c0.4-0.2,0.7-0.3,0.9-0.4L-64.3,508.7z"/>
	<path d="M-62,490.9v-3.3h2.6v3.3H-62z M-62,509.5v-15.7h2.6v15.7H-62z"/>
	<path d="M-41.6,509.5h-2.6v-8.8c0-1.7-0.3-2.9-0.8-3.7c-0.5-0.8-1.3-1.1-2.3-1.1c-0.5,0-1.1,0.1-1.6,0.3s-1.1,0.5-1.5,0.9
		c-0.5,0.4-0.9,0.8-1.3,1.3c-0.4,0.5-0.6,1.1-0.8,1.7v9.5h-2.6v-15.7h2.4v3.4c0.6-1.1,1.5-2,2.7-2.6c1.2-0.7,2.4-1,3.8-1
		c0.9,0,1.6,0.2,2.3,0.5c0.7,0.3,1.1,0.8,1.4,1.4c0.4,0.6,0.6,1.3,0.8,2.1c0.1,0.8,0.2,1.7,0.2,2.6v9.2H-41.6z"/>
	<path d="M-31.3,509.6c-1.1,0-2-0.2-2.9-0.7c-0.9-0.4-1.7-1-2.3-1.8c-0.6-0.7-1.1-1.6-1.5-2.5c-0.4-0.9-0.5-2-0.5-3
		c0-1.1,0.2-2.1,0.5-3.1c0.3-1,0.8-1.9,1.5-2.6c0.6-0.7,1.4-1.3,2.3-1.8c0.9-0.4,1.9-0.6,3-0.6c1.3,0,2.5,0.3,3.4,1
		c1,0.6,1.8,1.5,2.4,2.4v-3.1h2.3v15.5c0,1.1-0.2,2.1-0.6,3c-0.4,0.9-1,1.6-1.7,2.1c-0.7,0.6-1.6,1-2.5,1.3c-1,0.3-2,0.4-3.1,0.4
		c-1.8,0-3.2-0.3-4.3-0.9c-1.1-0.6-2-1.5-2.8-2.5l1.5-1.4c0.6,0.9,1.4,1.6,2.4,2.1s2,0.7,3.2,0.7c0.7,0,1.4-0.1,2.1-0.3
		c0.7-0.2,1.2-0.5,1.7-0.9c0.5-0.4,0.9-0.9,1.2-1.5c0.3-0.6,0.4-1.3,0.4-2.1v-2.8c-0.3,0.5-0.7,0.9-1.1,1.3c-0.4,0.4-0.9,0.7-1.3,1
		c-0.5,0.3-1,0.5-1.5,0.6S-30.8,509.6-31.3,509.6z M-30.5,507.5c0.6,0,1.1-0.1,1.6-0.3c0.5-0.2,1-0.5,1.4-0.8
		c0.4-0.3,0.8-0.7,1.1-1.1c0.3-0.4,0.5-0.8,0.6-1.3v-4.5c-0.2-0.5-0.5-1-0.9-1.5c-0.4-0.4-0.7-0.8-1.2-1.2c-0.4-0.3-0.9-0.6-1.4-0.8
		c-0.5-0.2-1-0.3-1.5-0.3c-0.8,0-1.5,0.2-2.1,0.5c-0.6,0.3-1.2,0.8-1.6,1.4c-0.4,0.6-0.8,1.2-1,1.9c-0.2,0.7-0.4,1.4-0.4,2.1
		c0,0.8,0.1,1.5,0.4,2.2s0.7,1.3,1.1,1.8c0.5,0.5,1,0.9,1.7,1.2C-32,507.3-31.3,507.5-30.5,507.5z"/>
	<path d="M-1.4,488.2v21.3h-2.7v-9.7h-11.7v9.7h-2.7v-21.3h2.7v9.2h11.7v-9.2H-1.4z"/>
	<path d="M10.2,509.8c-1.2,0-2.3-0.2-3.2-0.6c-1-0.4-1.8-1-2.5-1.8c-0.7-0.7-1.2-1.6-1.6-2.6s-0.6-2-0.6-3.1s0.2-2.1,0.6-3.1
		s0.9-1.8,1.7-2.6c0.7-0.7,1.6-1.3,2.5-1.8c1-0.4,2.1-0.6,3.2-0.6s2.3,0.2,3.2,0.7c1,0.4,1.8,1,2.5,1.8c0.7,0.7,1.2,1.6,1.6,2.6
		s0.6,2,0.6,3c0,0.2,0,0.4,0,0.6s0,0.3,0,0.4h-13c0.1,0.8,0.2,1.5,0.5,2.1s0.7,1.2,1.2,1.6c0.5,0.5,1,0.8,1.6,1.1s1.3,0.4,1.9,0.4
		c0.5,0,0.9-0.1,1.4-0.2s0.9-0.3,1.3-0.5s0.8-0.5,1.1-0.8s0.5-0.7,0.7-1.1l2.3,0.6c-0.3,0.6-0.6,1.1-1.1,1.6c-0.5,0.5-1,0.9-1.6,1.2
		c-0.6,0.4-1.2,0.6-2,0.8C11.8,509.7,11,509.8,10.2,509.8z M15.6,500.6c-0.1-0.7-0.2-1.4-0.6-2.1c-0.3-0.6-0.7-1.2-1.2-1.6
		s-1-0.8-1.6-1c-0.6-0.3-1.3-0.4-2-0.4s-1.4,0.1-2,0.4s-1.2,0.6-1.6,1s-0.8,1-1.1,1.6s-0.5,1.3-0.5,2h10.6V500.6z"/>
	<path d="M21,487.6h2.6v17.9c0,0.6,0.2,1,0.5,1.4c0.3,0.3,0.7,0.5,1.3,0.5c0.2,0,0.5,0,0.8-0.1s0.6-0.2,0.8-0.3l0.4,2.1
		c-0.4,0.2-1,0.3-1.6,0.4s-1.1,0.2-1.6,0.2c-1,0-1.8-0.3-2.4-0.9s-0.9-1.4-0.9-2.4L21,487.6L21,487.6z"/>
	<path d="M37.8,509.8c-1.3,0-2.4-0.3-3.4-1c-1-0.6-1.8-1.5-2.4-2.4v9.5h-2.6v-22h2.3v2.9c0.6-1,1.4-1.7,2.4-2.3s2.1-0.9,3.3-0.9
		c1.1,0,2.1,0.2,3,0.7c0.9,0.4,1.7,1,2.3,1.8s1.2,1.6,1.5,2.6c0.4,1,0.6,2,0.6,3.1s-0.2,2.2-0.5,3.2s-0.8,1.8-1.4,2.6
		c-0.6,0.7-1.4,1.3-2.2,1.7C39.8,509.6,38.8,509.8,37.8,509.8z M37,507.5c0.8,0,1.5-0.2,2.1-0.5s1.2-0.8,1.6-1.3s0.8-1.2,1-1.9
		s0.4-1.4,0.4-2.2c0-0.8-0.1-1.5-0.4-2.2s-0.7-1.3-1.1-1.9c-0.5-0.5-1-1-1.7-1.3s-1.4-0.5-2.1-0.5c-0.5,0-1,0.1-1.5,0.3
		c-0.5,0.2-1,0.4-1.4,0.8c-0.5,0.3-0.8,0.7-1.2,1.1c-0.3,0.4-0.5,0.9-0.6,1.4v4.5c0.2,0.5,0.5,1,0.8,1.5c0.3,0.4,0.7,0.8,1.2,1.2
		c0.4,0.3,0.9,0.6,1.4,0.8C35.9,507.4,36.5,507.5,37,507.5z"/>
	<path class="st2" d="M47.8,509.5v-3.4H50v3.4H47.8z"/>
	<path class="st2" d="M67.6,509.5H65v-8.8c0-1.7-0.3-2.9-0.8-3.7s-1.3-1.1-2.3-1.1c-0.5,0-1.1,0.1-1.6,0.3s-1,0.5-1.5,0.9
		s-0.9,0.8-1.3,1.3s-0.6,1.1-0.8,1.7v9.5h-2.6v-15.7h2.4v3.4c0.6-1.1,1.5-2,2.7-2.6s2.4-1,3.8-1c0.9,0,1.6,0.2,2.3,0.5
		c0.6,0.3,1.1,0.8,1.4,1.4c0.4,0.6,0.6,1.3,0.8,2.1c0.2,0.8,0.2,1.7,0.2,2.6L67.6,509.5L67.6,509.5z"/>
	<path class="st2" d="M78.5,509.8c-1.2,0-2.3-0.2-3.2-0.6c-1-0.4-1.8-1-2.5-1.8c-0.7-0.7-1.2-1.6-1.6-2.6s-0.6-2-0.6-3.1
		s0.2-2.1,0.6-3.1s0.9-1.8,1.7-2.6c0.7-0.7,1.6-1.3,2.5-1.8c1-0.4,2.1-0.6,3.2-0.6s2.3,0.2,3.2,0.7c1,0.4,1.8,1,2.5,1.8
		c0.7,0.7,1.2,1.6,1.6,2.6s0.6,2,0.6,3c0,0.2,0,0.4,0,0.6s0,0.3,0,0.4h-13c0.1,0.8,0.2,1.5,0.5,2.1s0.7,1.2,1.2,1.6
		c0.5,0.5,1,0.8,1.6,1.1s1.3,0.4,1.9,0.4c0.5,0,0.9-0.1,1.4-0.2s0.9-0.3,1.3-0.5s0.8-0.5,1.1-0.8s0.5-0.7,0.7-1.1l2.3,0.6
		c-0.3,0.6-0.6,1.1-1.1,1.6s-1,0.9-1.6,1.2c-0.6,0.4-1.2,0.6-2,0.8C80.1,509.7,79.3,509.8,78.5,509.8z M83.9,500.6
		c-0.1-0.7-0.2-1.4-0.6-2.1c-0.3-0.6-0.7-1.2-1.2-1.6s-1-0.8-1.6-1c-0.6-0.3-1.3-0.4-2-0.4s-1.4,0.1-2,0.4s-1.2,0.6-1.6,1
		s-0.8,1-1.1,1.6s-0.5,1.3-0.5,2h10.6C83.9,500.5,83.9,500.6,83.9,500.6z"/>
	<path class="st2" d="M97.3,508.7c-0.2,0.1-0.4,0.2-0.6,0.3c-0.3,0.1-0.6,0.2-0.9,0.3c-0.3,0.1-0.7,0.2-1.1,0.3
		c-0.4,0.1-0.8,0.1-1.2,0.1c-1,0-1.8-0.3-2.5-0.8s-1.1-1.4-1.1-2.5v-10.5h-2.1v-2.1h2.1v-5.2h2.6v5.2H96v2.1h-3.5v9.7
		c0,0.6,0.2,1,0.6,1.3c0.3,0.3,0.7,0.4,1.2,0.4s1-0.1,1.4-0.3c0.4-0.2,0.7-0.3,0.9-0.4L97.3,508.7z"/>
</g>
<g>
	<path class="st3" d="M-160.8,438.1l46.9,6.1l-8.1,62.4l-46.9-6.1L-160.8,438.1 M-161.6,437l-8.4,64.4l48.9,6.4l8.4-64.4L-161.6,437
		L-161.6,437z"/>
</g>
<g>
	<path class="st0" d="M-131,509.4v-51.3h18.4c2,0,4,0.4,5.6,1.3s3.2,1.9,4.5,3.4c1.3,1.3,2.2,2.9,2.9,4.6c0.7,1.8,1.1,3.5,1.1,5.3
		c0,1.9-0.3,3.7-1,5.5s-1.6,3.3-2.8,4.6c-1.2,1.3-2.6,2.4-4.3,3.3c-1.7,0.9-3.5,1.2-5.6,1.2h-8.8v22.1H-131z M-121.1,478.6h8.1
		c1.2,0,2.2-0.5,3-1.5s1.3-2.5,1.3-4.5c0-1-0.2-1.9-0.4-2.6c-0.3-0.8-0.6-1.3-1.1-1.9c-0.4-0.5-0.9-0.8-1.5-1.1
		c-0.6-0.3-1.1-0.3-1.7-0.3h-7.7L-121.1,478.6L-121.1,478.6z"/>
</g>
</svg>
