<?xml version="1.0" encoding="utf-8"?>
<!-- Generator: Adobe Illustrator 19.1.0, SVG Export Plug-In . SVG Version: 6.00 Build 0)  -->
<svg version="1.1" id="Capa_1" xmlns="http://www.w3.org/2000/svg" xmlns:xlink="http://www.w3.org/1999/xlink" x="0px" y="0px"
	 viewBox="-292.8 382.4 35 30" xml:space="preserve" height="30" width="35">
<style type="text/css">
	.st0{fill:#E4C180;stroke:#E4C180;stroke-width:2;stroke-linejoin:round;stroke-miterlimit:10;}
	.st1{fill:#E4C180;stroke:#E4C180;stroke-width:2;stroke-linecap:round;stroke-linejoin:round;stroke-miterlimit:10;}
</style>
<g>
	<path class="st0" d="M-265.8,398.7c0,3.8,0,4.4-3.1,4.4l0,7c7.3,0,9.4-4.9,9.4-13.5l0-11.5l-13.5,0l0,11.5l7.3,0L-265.8,398.7z"/>
	<path class="st1" d="M-283.7,396.5l0,2.2c0,3.8,0,4.4-3.1,4.4l0,7c7.3,0,9.4-4.9,9.4-13.5l0-11.5l-13.5,0l0,11.5
		C-291,396.5-283.7,396.5-283.7,396.5z"/>
</g>
</svg>
