<?xml version="1.0" encoding="utf-8"?>
<svg version="1.1" id="Слой_1" xmlns="http://www.w3.org/2000/svg" xmlns:xlink="http://www.w3.org/1999/xlink" x="0px" y="0px"
	 viewBox="0 0 175 140" xml:space="preserve" height="140" width="175">
<style type="text/css">
	.st0{opacity:0.8;fill:#E9C37E;enable-background:new    ;}
	.st1{fill:#E5BA6B;}
	.st2{opacity:0.3;fill:#EDCE94;enable-background:new    ;}
	.st3{fill:#E4C180;}
</style>
<rect id="rect71" x="33.8" y="70.4" transform="matrix(-0.7194 -0.6946 0.6946 -0.7194 4.3689 193.8079)" class="st0" width="15" height="51.2"/>
<path id="path73" class="st1" d="M18.5,136.5c-3.8,4.3-10.5,4.7-14.8,0.9l-0.1-0.1c-4.3-3.8-4.7-10.5-0.9-14.8l22.1-24.8
	c3.8-4.3,10.5-4.7,14.8-0.9l0.1,0.1c4.3,3.8,4.7,10.5,0.9,14.8L18.5,136.5z"/>
<g id="circle75">
	<path class="st1" d="M90,2c24.1,0,43.7,19.6,43.7,43.7S114.1,89.4,90,89.4S46.3,69.8,46.3,45.7S65.9,2,90,2 M90,0
		C64.8,0,44.3,20.5,44.3,45.7S64.8,91.4,90,91.4s45.7-20.5,45.7-45.7S115.3,0,90,0L90,0z"/>
</g>
<path id="path77" class="st2" d="M62.4,65.8c-1.4-22.7,11.6-42.6,30.9-45.9c3.9-0.7,7.9-0.6,11.7,0.1c-6-3.9-13-5.6-20.1-4.4
	c-17.1,2.9-28.1,21.8-24.6,42.1C60.7,60.6,61.4,63.3,62.4,65.8z"/>
<rect id="rect79" x="99.1" y="47.4" transform="matrix(0.7067 -0.7075 0.7075 0.7067 -21.9142 96.4022)" class="st3" width="12.4" height="54.4"/>
<rect id="rect81" x="137.3" y="28.8" transform="matrix(-0.7075 -0.7067 0.7067 -0.7075 198.382 214.0827)" class="st3" width="12.4" height="74.4"/>
</svg>
