<?xml version="1.0" encoding="utf-8"?>
<!-- Generator: Adobe Illustrator 16.0.0, SVG Export Plug-In . SVG Version: 6.00 Build 0)  -->
<!DOCTYPE svg PUBLIC "-//W3C//DTD SVG 1.1//EN" "http://www.w3.org/Graphics/SVG/1.1/DTD/svg11.dtd">
<svg version="1.1" id="Layer_1" xmlns="http://www.w3.org/2000/svg" xmlns:xlink="http://www.w3.org/1999/xlink" x="0px" y="0px"
	 width="341.306px" height="45.844px" viewBox="0 0 341.306 45.844" enable-background="new 0 0 341.306 45.844"
	 xml:space="preserve">
<g>
	<g>
		<path fill="#161616" stroke="#000000" stroke-width="5" stroke-miterlimit="10" d="M39.417,19.325"/>
		<path fill="#161616" d="M41.292,42.12c-0.963,0.738-1.513,1.16-1.513,1.16l0.11,0.144c0,0,0.156-0.082,0.448-0.235
			c0.289-0.157,0.727-0.37,1.256-0.676c0.543-0.28,1.16-0.711,1.873-1.206c0.358-0.249,0.739-0.514,1.141-0.793
			c0.208-0.152,0.394-0.258,0.623-0.474c0.19-0.169,0.379-0.321,0.582-0.515c0.204-0.209,0.419-0.425,0.626-0.648
			c0.189-0.225,0.39-0.451,0.581-0.691c0.371-0.487,0.719-1.02,1.033-1.589c0.634-1.14,1.17-2.41,1.471-3.831
			c0.039-0.178,0.075-0.36,0.107-0.551c0.014-0.108,0.033-0.168,0.045-0.376l0.02-0.247c0.026-0.329,0.053-0.661,0.079-0.994
			c0.059-0.667,0.104-1.343,0.135-2.025l0.014-0.256l0.005-0.329l0.004-0.515l0.008-1.033c0.005-0.691,0.01-1.384,0.014-2.078
			c-0.025-1.386-0.05-2.773-0.075-4.138c-0.014-1.365-0.107-2.707-0.154-4.007c-0.043-1.3-0.146-2.556-0.227-3.747
			c-0.072-1.191-0.182-2.317-0.283-3.357c-0.192-2.079-0.424-3.811-0.602-5.023c-0.08-0.606-0.178-1.083-0.229-1.407
			c-0.056-0.324-0.086-0.498-0.086-0.498l-0.202,0.001c0,0,0.024,27.673,0,28.342c-0.038,0.676-0.007,1.324-0.141,1.951
			c-0.464,2.531-1.59,4.756-2.939,6.296c-0.682,0.789-1.437,1.358-2.059,1.931C42.318,41.259,41.788,41.767,41.292,42.12z"/>
		<path fill="#161616" d="M53.018,33.833c-0.275,0.993-0.645,1.899-1.073,2.688c-0.419,0.79-0.931,1.452-1.379,2.029
			c-0.444,0.585-0.873,1.064-1.216,1.464c-0.702,0.787-1.128,1.221-1.128,1.221l0.131,0.125c0,0,0.137-0.078,0.395-0.225
			c0.265-0.137,0.62-0.377,1.082-0.688c0.235-0.151,0.46-0.352,0.727-0.554c0.263-0.206,0.553-0.426,0.824-0.698
			c0.278-0.279,0.586-0.514,0.893-0.882c0.264-0.28,0.577-0.722,0.85-1.145c0.536-0.846,1.054-1.82,1.404-2.915
			c0.349-1.091,0.61-2.272,0.732-3.499c0.048-0.614,0.078-1.234,0.066-1.862c-0.003-0.584-0.007-1.176-0.012-1.772
			c0.016-1.188-0.061-2.402-0.145-3.638c-0.088-1.225-0.125-2.466-0.285-3.653c-0.139-1.193-0.254-2.369-0.404-3.501
			c-0.176-1.129-0.345-2.221-0.506-3.256c-0.179-1.033-0.384-2.004-0.553-2.902c-0.172-0.898-0.382-1.714-0.543-2.44
			c-0.166-0.725-0.342-1.353-0.477-1.872c-0.29-1.033-0.477-1.62-0.477-1.62l-0.18,0.023c0,0,0.072,0.601,0.197,1.652
			c0.123,1.052,0.29,2.556,0.47,4.362c0.187,1.806,0.372,3.916,0.559,6.177c0.079,1.132,0.161,2.301,0.244,3.489
			c0.094,1.188,0.126,2.396,0.19,3.603c0.026,0.604,0.053,1.208,0.079,1.809c0.012,0.603,0.024,1.204,0.037,1.8
			c0.018,1.194,0.093,2.363,0.014,3.484C53.463,31.761,53.287,32.838,53.018,33.833z"/>
		<path fill="#161616" d="M13.877,42.12c-0.496-0.353-1.027-0.86-1.664-1.412c-0.622-0.573-1.377-1.142-2.058-1.931
			c-1.35-1.54-2.476-3.765-2.94-6.296c-0.133-0.627-0.103-1.275-0.141-1.951c-0.024-0.668,0-28.342,0-28.342L6.873,2.188
			c0,0-0.03,0.173-0.086,0.498C6.736,3.01,6.638,3.486,6.558,4.092C6.38,5.305,6.148,7.037,5.956,9.115
			c-0.101,1.04-0.211,2.166-0.283,3.357c-0.082,1.191-0.184,2.447-0.227,3.747c-0.047,1.3-0.14,2.642-0.154,4.007
			c-0.025,1.365-0.05,2.751-0.076,4.138c0.005,0.693,0.01,1.387,0.014,2.078l0.008,1.033l0.004,0.515l0.005,0.329l0.013,0.256
			c0.031,0.682,0.076,1.357,0.135,2.024c0.026,0.333,0.053,0.665,0.079,0.995l0.02,0.246c0.012,0.208,0.031,0.268,0.045,0.376
			c0.032,0.191,0.068,0.373,0.107,0.551c0.3,1.421,0.837,2.691,1.471,3.831c0.314,0.57,0.663,1.102,1.033,1.589
			c0.191,0.24,0.392,0.467,0.581,0.691c0.207,0.224,0.423,0.439,0.627,0.648c0.202,0.194,0.391,0.345,0.581,0.515
			c0.229,0.216,0.415,0.321,0.623,0.474c0.402,0.279,0.783,0.544,1.141,0.793c0.712,0.494,1.33,0.925,1.873,1.206
			c0.53,0.306,0.967,0.519,1.256,0.676c0.292,0.153,0.448,0.235,0.448,0.235l0.11-0.144C15.391,43.28,14.84,42.858,13.877,42.12z"/>
		<path fill="#161616" d="M0.643,34.253c0.35,1.094,0.868,2.068,1.404,2.915c0.273,0.423,0.586,0.865,0.85,1.145
			c0.307,0.368,0.615,0.603,0.893,0.882c0.271,0.272,0.561,0.493,0.824,0.698c0.267,0.202,0.492,0.402,0.727,0.554
			c0.462,0.311,0.817,0.551,1.082,0.688c0.258,0.146,0.396,0.225,0.396,0.225l0.131-0.125c0,0-0.426-0.434-1.128-1.221
			c-0.344-0.4-0.772-0.879-1.215-1.464c-0.449-0.578-0.96-1.24-1.38-2.029c-0.429-0.789-0.798-1.695-1.073-2.688
			c-0.269-0.994-0.445-2.071-0.516-3.195c-0.078-1.121-0.003-2.29,0.015-3.484c0.012-0.596,0.024-1.197,0.037-1.8
			c0.026-0.601,0.052-1.205,0.079-1.809c0.063-1.208,0.094-2.416,0.189-3.603c0.083-1.188,0.165-2.358,0.243-3.489
			c0.188-2.261,0.372-4.372,0.56-6.177c0.18-1.807,0.348-3.311,0.471-4.362c0.125-1.051,0.198-1.652,0.198-1.652l-0.18-0.023
			c0,0-0.187,0.587-0.476,1.62C2.634,6.376,2.458,7.004,2.292,7.729c-0.162,0.726-0.372,1.542-0.544,2.44
			c-0.17,0.898-0.375,1.87-0.554,2.902c-0.161,1.035-0.33,2.127-0.505,3.256c-0.15,1.133-0.266,2.309-0.405,3.501
			C0.125,21.017,0.088,22.257,0,23.482c-0.083,1.236-0.159,2.45-0.144,3.638c-0.004,0.596-0.008,1.188-0.012,1.771
			c-0.011,0.628,0.018,1.249,0.066,1.863C0.033,31.981,0.293,33.162,0.643,34.253z"/>
		<path fill="#161616" d="M20.552,8.896c0.781-0.959,4.931-3.358,14.476-8.666C32.874,0.099,30.363,0,27.647,0
			c-8.336,0-14.76,0.925-14.76,0.925c-0.986,0.142-1.792,1.073-1.792,2.069v17.891l10.241-5.913
			C20.302,13.373,18.896,10.931,20.552,8.896z"/>
		<path fill="#161616" d="M30.782,23.042c0.721-0.417,1.646-0.17,2.062,0.553c0.417,0.722,0.169,1.645-0.553,2.062L13.184,36.688
			c0.506,0.69,1.137,1.413,1.918,2.146l18.272-10.549c0.722-0.418,1.646-0.17,2.062,0.552c0.417,0.722,0.169,1.645-0.552,2.062
			l-17.321,10c0.822,0.636,1.666,1.244,2.515,1.801L44.2,28.773c0-0.299,0-0.58,0-0.822V2.994c0-0.996-0.807-1.927-1.793-2.069
			c0,0-0.721-0.104-1.99-0.241c-0.982,0.551-2.15,1.201-3.427,1.91c-4.575,2.543-13.061,7.259-14.115,8.233
			c-0.303,0.458,0.532,1.794,1.079,2.634l9.402-5.429c0.722-0.418,1.645-0.169,2.062,0.553c0.417,0.722,0.169,1.645-0.553,2.062
			L11.095,24.371v3.253l17.076-9.859c0.722-0.418,1.646-0.17,2.062,0.552c0.417,0.722,0.17,1.646-0.552,2.062l-18.586,10.73
			c0,0.165,0,0.322,0,0.465c0,0,0.003,0.995,0.603,2.486L30.782,23.042z"/>
		<path fill="#161616" d="M23.104,44.439c1.649,0.802,3.218,1.299,4.543,1.299c3.321,0,8.163-3.087,12.013-6.415
			c3.343-2.89,4.222-5.72,4.454-7.014L23.104,44.439z"/>
	</g>
	<path fill="#161616" d="M101.173,22.597c1.79-0.767,3.167-1.961,4.13-3.584c0.963-1.623,1.445-3.466,1.445-5.532v-1.209
		C106.749,4.091,100.543,0,88.134,0c-2.065,0-4.435,0.088-7.109,0.266c-2.675,0.177-4.292,0.521-4.853,1.032
		c-0.561,0.512-0.841,1.367-0.841,2.567V41.92c0,1.357,0.378,2.257,1.136,2.699c0.757,0.443,2.32,0.757,4.69,0.944
		c2.37,0.187,4.873,0.28,7.508,0.28c6.234,0,10.856-1.077,13.865-3.23c3.009-2.153,4.514-5.423,4.514-9.809v-1.032
		C107.043,27.347,105.086,24.289,101.173,22.597z M83.709,7.08c1.711-0.098,3.186-0.147,4.425-0.147
		c3.854,0,6.559,0.438,8.113,1.312c1.553,0.875,2.331,2.375,2.331,4.499V13.6c0,3.816-2.4,5.723-7.198,5.723h-7.67V7.08z
		 M98.813,32.687c0,2.321-0.796,3.938-2.39,4.853c-1.593,0.915-4.179,1.372-7.758,1.372l-4.956-0.118V25.488h7.67
		c2.438,0,4.287,0.561,5.546,1.682c1.258,1.121,1.888,2.695,1.888,4.72V32.687z"/>
	<path fill="#161616" d="M146.309,0.472h-5.988c-0.335,0-0.62,0.113-0.855,0.339c-0.236,0.227-0.354,0.497-0.354,0.812v27.14
		c0,3.875-0.63,6.535-1.888,7.98c-1.259,1.446-3.363,2.168-6.313,2.168c-3.147,0-5.306-0.792-6.476-2.375
		c-1.17-1.583-1.755-4.174-1.755-7.773V1.623c0-0.314-0.118-0.585-0.354-0.812c-0.236-0.226-0.521-0.339-0.855-0.339h-5.988
		c-0.335,0-0.62,0.113-0.855,0.339c-0.236,0.227-0.354,0.497-0.354,0.812v27.14c0,11.387,5.546,17.081,16.638,17.081
		c11.072,0,16.608-5.694,16.608-17.081V1.623c0-0.314-0.118-0.585-0.354-0.812C146.928,0.585,146.643,0.472,146.309,0.472z"/>
	<path fill="#161616" d="M181.798,37.997h-18.585c-0.374,0-0.561-0.118-0.561-0.354c0-0.236,0.079-0.462,0.236-0.679l18.851-28.202
		c0.57-0.846,0.855-1.671,0.855-2.478V2.773c0-0.708-0.291-1.269-0.871-1.682c-0.58-0.413-1.362-0.619-2.345-0.619h-24.337
		c-0.767,0-1.151,0.383-1.151,1.15v5.074c0,0.728,0.384,1.091,1.151,1.091h16.786c0.413,0,0.619,0.167,0.619,0.501
		c0,0.177-0.059,0.354-0.177,0.531l-19.146,28.704c-0.531,0.787-0.796,1.554-0.796,2.301v3.304c0,1.495,1.022,2.242,3.068,2.242
		h26.403c0.334,0,0.619-0.118,0.855-0.354c0.236-0.236,0.354-0.521,0.354-0.855v-5.074
		C183.007,38.361,182.604,37.997,181.798,37.997z"/>
	<path fill="#161616" d="M217.316,37.997h-18.585c-0.374,0-0.561-0.118-0.561-0.354c0-0.236,0.079-0.462,0.236-0.679l18.851-28.202
		c0.57-0.846,0.855-1.671,0.855-2.478V2.773c0-0.708-0.291-1.269-0.871-1.682c-0.58-0.413-1.362-0.619-2.345-0.619H190.56
		c-0.767,0-1.151,0.383-1.151,1.15v5.074c0,0.728,0.384,1.091,1.151,1.091h16.786c0.413,0,0.619,0.167,0.619,0.501
		c0,0.177-0.059,0.354-0.177,0.531l-19.146,28.704c-0.531,0.787-0.796,1.554-0.796,2.301v3.304c0,1.495,1.022,2.242,3.068,2.242
		h26.403c0.334,0,0.619-0.118,0.855-0.354c0.236-0.236,0.354-0.521,0.354-0.855v-5.074
		C218.526,38.361,218.123,37.997,217.316,37.997z"/>
	<path fill="#161616" d="M240.474,0c-4.543,0-7.346,2.055-8.408,6.166l-9.912,37.878c-0.04,0.158-0.059,0.256-0.059,0.295
		c0,0.689,0.364,1.033,1.092,1.033h6.401c0.236,0,0.458-0.083,0.664-0.251c0.207-0.167,0.334-0.324,0.384-0.472
		c0.049-0.147,0.408-1.618,1.077-4.411l1.8-7.375h13.895l2.773,11.505c0.157,0.669,0.541,1.003,1.15,1.003h6.402
		c0.727,0,1.091-0.344,1.091-1.033l-9.971-38.173C247.79,2.055,244.997,0,240.474,0z M235.134,25.99l4.484-18.408
		c0.098-0.334,0.383-0.501,0.855-0.501c0.314,0,0.531,0.079,0.649,0.236c0.118,0.158,0.639,2.124,1.563,5.9l3.098,12.773H235.134z"
		/>
	<path fill="#161616" d="M287.527,26.521c5.428-2.164,8.142-6.273,8.142-12.332v-0.531c0-4.484-1.5-7.881-4.499-10.192
		c-3-2.311-7.292-3.466-12.877-3.466c-2.734,0-5.482,0.118-8.246,0.354s-4.376,0.506-4.838,0.811
		c-0.462,0.305-0.693,0.782-0.693,1.431v41.566c0,0.334,0.118,0.62,0.354,0.855c0.236,0.236,0.521,0.354,0.855,0.354h6.018
		c0.334,0,0.609-0.118,0.826-0.354c0.216-0.236,0.325-0.521,0.325-0.855V27.79c2.497,0.157,4.297,0.236,5.398,0.236h0.826
		l7.729,14.367c0.904,1.633,1.426,2.537,1.563,2.714c0.137,0.177,0.344,0.266,0.62,0.266h7.375c0.491,0,0.737-0.246,0.737-0.737
		c0-0.197-0.049-0.354-0.147-0.472L287.527,26.521z M287.35,14.189c0,2.518-0.679,4.317-2.036,5.399s-3.698,1.623-7.021,1.623
		c-1.338,0-3.137-0.059-5.398-0.177v-13.6c1.671-0.157,3.471-0.236,5.398-0.236c3.048,0,5.32,0.516,6.814,1.549
		c1.495,1.032,2.242,2.669,2.242,4.912V14.189z"/>
	<path fill="#161616" d="M340.598,1.195c-0.472-0.482-1.043-0.723-1.711-0.723h-4.927c-0.374,0-0.723,0.083-1.047,0.25
		c-0.324,0.167-0.58,0.364-0.767,0.59s-0.91,1.607-2.168,4.145l-7.522,15.193c-0.217,0.413-0.394,0.62-0.531,0.62
		c-0.118,0-0.236-0.099-0.354-0.295c-0.118-0.196-1.19-2.35-3.215-6.46L312.13,1.917c-0.472-0.963-1.22-1.445-2.242-1.445h-4.927
		c-0.668,0-1.239,0.236-1.711,0.708c-0.472,0.472-0.708,1.042-0.708,1.711v41.566c0,0.61,0.334,0.915,1.003,0.915h6.107
		c0.255,0,0.481-0.123,0.678-0.369c0.196-0.246,0.295-0.526,0.295-0.841V16.078c0-0.413,0.059-0.62,0.177-0.62
		c0.078,0,0.649,1.043,1.711,3.127l4.455,8.791c0.374,0.688,1.022,1.032,1.947,1.032h6.077c0.944,0,1.632-0.422,2.065-1.269
		l4.897-9.735c0.649-1.298,1.013-1.947,1.091-1.947c0.118,0,0.177,0.207,0.177,0.62v28.084c0,0.315,0.098,0.595,0.295,0.841
		c0.196,0.246,0.422,0.369,0.678,0.369h6.107c0.668,0,1.003-0.305,1.003-0.915V2.891C341.306,2.242,341.07,1.677,340.598,1.195z"/>
</g>
</svg>
