<?xml version="1.0" encoding="utf-8"?>
<!-- Generator: Adobe Illustrator 16.0.0, SVG Export Plug-In . SVG Version: 6.00 Build 0)  -->
<!DOCTYPE svg PUBLIC "-//W3C//DTD SVG 1.1//EN" "http://www.w3.org/Graphics/SVG/1.1/DTD/svg11.dtd">
<svg version="1.1" id="Layer_1" xmlns="http://www.w3.org/2000/svg" xmlns:xlink="http://www.w3.org/1999/xlink" x="0px" y="0px"
	 width="440px" height="648.813px" viewBox="596.5 122.074 440 648.813" enable-background="new 596.5 122.074 440 648.813"
	 xml:space="preserve">
<g>
	<path d="M1213.323-440.906"/>
</g>
<g>
	
		<image overflow="visible" opacity="0.2" width="307" height="438" xlink:href="3FF3E6ECD9DAC723.png"  transform="matrix(1 0 0 1 664.5002 236.5)">
	</image>
	<g>
		<g>
			<g>
				<linearGradient id="SVGID_1_" gradientUnits="userSpaceOnUse" x1="774.0588" y1="287.3501" x2="774.0588" y2="453.0283">
					<stop  offset="0" style="stop-color:#76BEFB"/>
					<stop  offset="1" style="stop-color:#306BB7"/>
				</linearGradient>
				<path fill="url(#SVGID_1_)" d="M755.88,453.028c-2.038,0-4.066-0.776-5.614-2.33c-18.069-18.084-28.018-42.114-28.018-67.664
					c0-52.765,42.92-95.685,95.685-95.685c4.383,0,7.938,3.553,7.938,7.936c0,4.387-3.555,7.938-7.938,7.938
					c-44.013,0-79.816,35.804-79.816,79.814c0,21.313,8.306,41.355,23.374,56.446c3.096,3.098,3.096,8.121-0.004,11.225
					C759.94,452.252,757.904,453.028,755.88,453.028z"/>
			</g>
			<g>
				<linearGradient id="SVGID_2_" gradientUnits="userSpaceOnUse" x1="752.8357" y1="244.9082" x2="752.8357" y2="487.1377">
					<stop  offset="0" style="stop-color:#76BEFB"/>
					<stop  offset="1" style="stop-color:#306BB7"/>
				</linearGradient>
				<path fill="url(#SVGID_2_)" d="M730.179,487.138c-1.908,0-3.828-0.687-5.347-2.072c-28.613-26.122-45.031-63.31-45.031-102.026
					c0-76.173,61.963-138.131,138.131-138.131c4.383,0,7.938,3.552,7.938,7.933c0,4.379-3.555,7.938-7.938,7.938
					c-67.417,0-122.266,54.845-122.266,122.266c0,34.266,14.533,67.181,39.867,90.3c3.233,2.964,3.462,7.977,0.511,11.217
					C734.48,486.264,732.332,487.138,730.179,487.138z"/>
			</g>
			<linearGradient id="SVGID_3_" gradientUnits="userSpaceOnUse" x1="830.2683" y1="369.7383" x2="830.2683" y2="652.2778">
				<stop  offset="0" style="stop-color:#76BEFB"/>
				<stop  offset="1" style="stop-color:#306BB7"/>
			</linearGradient>
			<path fill="url(#SVGID_3_)" d="M918.98,461.767c-10.42,0-11.674,8.036-11.728,11.492v32.405c0,2.61-2.122,4.72-4.733,4.72
				c-2.604,0-4.72-2.11-4.72-4.72v-32.165c-0.063-3.696-1.313-11.732-11.732-11.732c-10.405,0-11.675,8.028-11.743,11.484v32.413
				c0,2.61-2.116,4.72-4.718,4.72c-2.61,0-4.726-2.11-4.726-4.72v-32.165c-0.057-3.698-1.317-11.732-11.726-11.732
				c-3.79,0-6.573,0.961-8.518,2.928c-3.27,3.333-3.226,8.642-3.224,8.701v27.044l-0.519,5.662c-0.232,2.513-2.476,4.335-4.926,4.28
				c-2.519-0.12-4.505-2.204-4.505-4.718V392.787c0.29-3.933-0.069-14.321-4.938-19.586c-2.166-2.331-5.031-3.462-8.762-3.462
				c-3.609,0-6.429,1.113-8.626,3.394c-5.87,6.097-5.567,18.375-5.561,18.5c0,1.495-0.425,129.84,0,144.544
				c0.299,10.081-1.153,16.62-4.448,20.019c-1.66,1.706-3.742,2.61-6.02,2.61c-5.273,0-10.592-4.778-16.275-14.602
				c-3.426-6.289-12.676-23.123-15.034-26.667c0,0-0.349-0.519-0.349-0.526c-2.253-3.417-9.112-13.795-17.518-13.795
				c-2.797,0-5.732,1.18-8.726,3.483c-12.599,9.725,0.85,29.253,0.982,29.454l65.368,116.125h119.409
				c9.175,0,9.747-15.678,9.747-15.84V473.499c0-0.16,0.048-5.475-3.224-8.802C925.548,462.728,922.762,461.767,918.98,461.767z"/>
			<linearGradient id="SVGID_4_" gradientUnits="userSpaceOnUse" x1="817.9265" y1="322.9023" x2="817.9265" y2="438.582">
				<stop  offset="0" style="stop-color:#76BEFB"/>
				<stop  offset="1" style="stop-color:#306BB7"/>
			</linearGradient>
			<path fill="url(#SVGID_4_)" d="M773.67,383.035c0-24.407,19.86-44.262,44.262-44.262c24.41,0,44.263,19.855,44.263,44.262
				c0,15.985-8.55,29.982-21.294,37.762l0.002,17.785c21.795-9.042,37.155-30.525,37.155-55.547
				c0-33.157-26.97-60.133-60.129-60.133c-33.158,0-60.133,26.976-60.133,60.133c0,24.651,14.921,45.86,36.198,55.131
				c0.015-6.365,0.034-12.418,0.044-17.93C781.816,412.354,773.67,398.641,773.67,383.035z"/>
			<linearGradient id="SVGID_5_" gradientUnits="userSpaceOnUse" x1="885.2126" y1="315.9219" x2="885.2126" y2="459.5137">
				<stop  offset="0" style="stop-color:#76BEFB"/>
				<stop  offset="1" style="stop-color:#306BB7"/>
			</linearGradient>
			<path fill="url(#SVGID_5_)" d="M869.626,459.514c2.857-3.618,7.358-6.31,13.833-6.936c18.519-17.457,30.163-42.143,30.163-69.539
				c0.01-23.946-8.874-46.86-25.036-64.527c-2.961-3.244-7.975-3.473-11.204-0.501c-3.241,2.951-3.464,7.973-0.5,11.211
				c13.465,14.736,20.883,33.846,20.867,53.817c0,29.905-16.547,55.976-40.945,69.65
				C862.736,453.495,866.923,456.109,869.626,459.514z"/>
			<linearGradient id="SVGID_6_" gradientUnits="userSpaceOnUse" x1="926.9114" y1="278.9175" x2="926.9114" y2="457.8633">
				<stop  offset="0" style="stop-color:#76BEFB"/>
				<stop  offset="1" style="stop-color:#306BB7"/>
			</linearGradient>
			<path fill="url(#SVGID_6_)" d="M933.951,457.863c13.964-21.579,22.112-47.268,22.112-74.828
				c0-38.709-16.402-75.895-45.01-102.039c-3.241-2.959-8.268-2.729-11.213,0.503c-2.958,3.233-2.735,8.254,0.503,11.211
				c25.319,23.144,39.851,56.063,39.851,90.324c0,25.738-8.035,49.606-21.676,69.332c0.16-0.004,0.282-0.052,0.452-0.052
				C925.209,452.319,930.22,454.21,933.951,457.863z"/>
		</g>
	</g>
</g>
</svg>
