<?xml version="1.0" encoding="utf-8"?>
<!-- Generator: Adobe Illustrator 16.0.0, SVG Export Plug-In . SVG Version: 6.00 Build 0)  -->
<!DOCTYPE svg PUBLIC "-//W3C//DTD SVG 1.1//EN" "http://www.w3.org/Graphics/SVG/1.1/DTD/svg11.dtd">
<svg version="1.1" id="Layer_1" xmlns="http://www.w3.org/2000/svg" xmlns:xlink="http://www.w3.org/1999/xlink" x="0px" y="0px"
	 width="58.25px" height="58.251px" viewBox="41.738 -49.246 58.25 58.251" enable-background="new 41.738 -49.246 58.25 58.251"
	 xml:space="preserve">
<g>
	<g>
		<linearGradient id="SVGID_1_" gradientUnits="userSpaceOnUse" x1="70.8633" y1="9.0049" x2="70.8633" y2="-49.2461">
			<stop  offset="0" style="stop-color:#00308F"/>
			<stop  offset="1" style="stop-color:#58A7EA"/>
		</linearGradient>
		<path fill="url(#SVGID_1_)" d="M70.863,9.005c-16.061,0-29.125-13.064-29.125-29.126c0-16.06,13.064-29.125,29.125-29.125
			s29.125,13.065,29.125,29.125C99.988-4.06,86.924,9.005,70.863,9.005z M70.863-46.246c-14.406,0-26.125,11.72-26.125,26.125
			c0,14.406,11.719,26.126,26.125,26.126c14.404,0,26.125-11.72,26.125-26.126C96.988-34.526,85.268-46.246,70.863-46.246z"/>
	</g>
	<g>
		<linearGradient id="SVGID_2_" gradientUnits="userSpaceOnUse" x1="68.8633" y1="-8.9346" x2="68.8633" y2="-31.3066">
			<stop  offset="0" style="stop-color:#00308F"/>
			<stop  offset="1" style="stop-color:#58A7EA"/>
		</linearGradient>
		<path fill="url(#SVGID_2_)" d="M63.488-26.658c0.623-0.258,1.275-0.554,1.953-0.888c0.678-0.333,1.34-0.699,1.984-1.098
			c0.646-0.397,1.266-0.817,1.857-1.259c0.592-0.44,1.123-0.909,1.598-1.404h3.357v22.372h-4.811v-16.109
			c-0.645,0.431-1.367,0.823-2.162,1.179c-0.797,0.354-1.572,0.662-2.324,0.92L63.488-26.658z"/>
	</g>
</g>
<text transform="matrix(1 0 0 1 64.332 -9.3906)" display="none" font-family="'Ubuntu-Bold'" font-size="30.8908">3</text>
<text transform="matrix(1 0 0 1 62.584 -8.958)" display="none" font-family="'Ubuntu-Bold'" font-size="32.2637">4</text>
<text transform="matrix(1 0 0 1 63.9883 -9.4131)" display="none" font-family="'Ubuntu-Bold'" font-size="31.6101">5</text>
</svg>
