<?xml version="1.0" encoding="utf-8"?>
<!-- Generator: Adobe Illustrator 16.0.0, SVG Export Plug-In . SVG Version: 6.00 Build 0)  -->
<!DOCTYPE svg PUBLIC "-//W3C//DTD SVG 1.1//EN" "http://www.w3.org/Graphics/SVG/1.1/DTD/svg11.dtd">
<svg version="1.1" id="Layer_1" xmlns="http://www.w3.org/2000/svg" xmlns:xlink="http://www.w3.org/1999/xlink" x="0px" y="0px"
	 width="58.25px" height="58.251px" viewBox="42.525 -49.252 58.25 58.251" enable-background="new 42.525 -49.252 58.25 58.251"
	 xml:space="preserve">
<g>
	<g>
		<linearGradient id="SVGID_1_" gradientUnits="userSpaceOnUse" x1="71.6504" y1="8.999" x2="71.6504" y2="-49.252">
			<stop  offset="0" style="stop-color:#00308F"/>
			<stop  offset="1" style="stop-color:#58A7EA"/>
		</linearGradient>
		<path fill="url(#SVGID_1_)" d="M71.65,8.999c-16.061,0-29.125-13.064-29.125-29.126c0-16.06,13.064-29.125,29.125-29.125
			s29.125,13.065,29.125,29.125C100.775-4.065,87.711,8.999,71.65,8.999z M71.65-46.252c-14.406,0-26.125,11.72-26.125,26.125
			c0,14.406,11.719,26.126,26.125,26.126c14.404,0,26.125-11.72,26.125-26.126C97.775-34.532,86.055-46.252,71.65-46.252z"/>
	</g>
	<g>
		<linearGradient id="SVGID_2_" gradientUnits="userSpaceOnUse" x1="70.6504" y1="-8.9468" x2="70.6504" y2="-31.3057">
			<stop  offset="0" style="stop-color:#00308F"/>
			<stop  offset="1" style="stop-color:#58A7EA"/>
		</linearGradient>
		<path fill="url(#SVGID_2_)" d="M76.635-31.306v13.422h2.388v3.936h-2.388v5.001h-4.711v-5.001h-9.646v-3.517
			c0.473-0.946,1.064-2.017,1.774-3.21c0.71-1.193,1.5-2.419,2.371-3.678s1.791-2.49,2.759-3.694s1.936-2.291,2.903-3.259H76.635z
			 M71.924-25.434c-0.839,1.097-1.731,2.291-2.678,3.582s-1.742,2.613-2.388,3.968h5.065V-25.434z"/>
	</g>
</g>
<text transform="matrix(1 0 0 1 63.9883 -9.4131)" display="none" font-family="'Ubuntu-Bold'" font-size="31.6101">5</text>
</svg>
