<svg xmlns="http://www.w3.org/2000/svg" fill="#fff" x="0px" y="0px" width="424.407px" height="75.75px" viewBox="0 0 424.407 75.75" enable-background="new 0 0 424.407 75.75" xml:space="preserve">
    <rect x="-166.895" y="-309.955" display="none"  stroke="#000000" stroke-miterlimit="10" width="841.89" height="595.28"/>
        <path stroke="#000000" stroke-width="5" stroke-miterlimit="10" d="M65.542,32.006"/>
        <path d="M68.647,69.758c-1.594,1.223-2.505,1.921-2.505,1.921l0.183,0.238c0,0,0.258-0.136,0.741-0.39
            c0.479-0.26,1.203-0.613,2.081-1.119c0.9-0.464,1.922-1.179,3.102-1.997c0.593-0.412,1.225-0.85,1.89-1.312
            c0.345-0.253,0.652-0.427,1.032-0.785c0.314-0.28,0.627-0.531,0.962-0.852c0.337-0.346,0.695-0.704,1.038-1.074
            c0.314-0.372,0.646-0.748,0.963-1.145c0.614-0.808,1.19-1.689,1.711-2.633c1.049-1.888,1.938-3.991,2.436-6.344
            c0.065-0.294,0.125-0.597,0.178-0.913c0.023-0.179,0.056-0.279,0.075-0.623l0.032-0.408c0.043-0.545,0.087-1.095,0.131-1.647
            c0.098-1.105,0.173-2.224,0.223-3.353l0.022-0.424l0.008-0.544l0.007-0.853l0.013-1.711c0.008-1.144,0.016-2.292,0.023-3.44
            c-0.042-2.296-0.083-4.592-0.125-6.853c-0.022-2.26-0.177-4.484-0.255-6.637c-0.072-2.152-0.241-4.232-0.376-6.205
            c-0.119-1.973-0.301-3.838-0.468-5.559c-0.318-3.443-0.702-6.312-0.997-8.319c-0.133-1.004-0.294-1.792-0.379-2.33
            c-0.093-0.538-0.142-0.825-0.142-0.825l-0.334,0.002c0,0,0.04,45.832,0,46.939c-0.062,1.119-0.012,2.192-0.233,3.231
            c-0.768,4.191-2.633,7.877-4.869,10.427c-1.128,1.307-2.38,2.249-3.409,3.198C70.349,68.333,69.469,69.174,68.647,69.758z"/>
        <path d="M88.068,56.033c-0.455,1.644-1.067,3.145-1.777,4.451c-0.695,1.308-1.542,2.404-2.285,3.36
            c-0.734,0.97-1.444,1.763-2.013,2.426c-1.163,1.304-1.868,2.022-1.868,2.022l0.217,0.207c0,0,0.228-0.129,0.654-0.372
            c0.439-0.227,1.027-0.625,1.792-1.141c0.389-0.25,0.762-0.582,1.204-0.917c0.435-0.34,0.916-0.705,1.364-1.156
            c0.461-0.462,0.971-0.851,1.479-1.46c0.437-0.465,0.955-1.195,1.408-1.896c0.887-1.401,1.746-3.015,2.325-4.827
            c0.578-1.808,1.01-3.763,1.213-5.795c0.08-1.017,0.128-2.045,0.109-3.085c-0.006-0.968-0.013-1.947-0.02-2.934
            c0.025-1.967-0.101-3.979-0.239-6.025c-0.146-2.029-0.207-4.084-0.473-6.049c-0.23-1.976-0.421-3.923-0.67-5.8
            c-0.291-1.87-0.571-3.678-0.837-5.393c-0.296-1.71-0.635-3.319-0.917-4.806c-0.286-1.487-0.632-2.839-0.9-4.042
            c-0.274-1.201-0.566-2.241-0.79-3.1c-0.479-1.712-0.789-2.684-0.789-2.684l-0.298,0.039c0,0,0.119,0.995,0.327,2.736
            c0.204,1.742,0.48,4.233,0.779,7.225c0.31,2.991,0.615,6.485,0.926,10.23c0.131,1.875,0.266,3.811,0.404,5.779
            c0.156,1.968,0.209,3.968,0.314,5.967c0.043,1,0.087,2,0.131,2.996c0.02,0.999,0.041,1.993,0.061,2.98
            c0.03,1.978,0.154,3.915,0.024,5.771C88.806,52.602,88.514,54.386,88.068,56.033z"/>
        <path d="M23.246,69.758c-0.822-0.584-1.701-1.425-2.755-2.338c-1.029-0.949-2.281-1.891-3.409-3.198
            c-2.235-2.549-4.101-6.235-4.869-10.427c-0.221-1.039-0.171-2.112-0.233-3.231c-0.04-1.107,0-46.939,0-46.939l-0.334-0.002
            c0,0-0.049,0.287-0.142,0.825c-0.085,0.538-0.247,1.326-0.379,2.33c-0.294,2.008-0.679,4.876-0.997,8.319
            c-0.167,1.721-0.349,3.586-0.468,5.559c-0.135,1.973-0.304,4.053-0.376,6.205c-0.078,2.153-0.232,4.376-0.255,6.637
            c-0.042,2.26-0.083,4.557-0.125,6.853c0.008,1.148,0.016,2.297,0.023,3.44l0.013,1.712l0.007,0.852l0.008,0.544l0.022,0.424
            c0.05,1.129,0.125,2.248,0.223,3.353c0.044,0.552,0.088,1.102,0.131,1.647l0.032,0.408c0.019,0.345,0.051,0.444,0.075,0.623
            c0.053,0.316,0.113,0.618,0.178,0.913c0.497,2.353,1.386,4.456,2.436,6.344c0.521,0.944,1.098,1.825,1.711,2.633
            c0.317,0.397,0.649,0.773,0.963,1.145c0.342,0.37,0.7,0.728,1.038,1.074c0.335,0.321,0.648,0.572,0.962,0.852
            c0.379,0.358,0.687,0.532,1.032,0.785c0.666,0.462,1.296,0.9,1.89,1.312c1.18,0.818,2.202,1.533,3.102,1.997
            c0.877,0.506,1.602,0.859,2.081,1.119c0.483,0.254,0.741,0.39,0.741,0.39l0.183-0.238C25.751,71.679,24.84,70.98,23.246,69.758z"
            />
        <path d="M1.326,56.73c0.58,1.812,1.438,3.426,2.325,4.827c0.453,0.702,0.971,1.432,1.408,1.897
            c0.508,0.609,1.018,0.998,1.479,1.46c0.449,0.452,0.929,0.816,1.364,1.156c0.441,0.335,0.814,0.667,1.204,0.917
            c0.765,0.515,1.353,0.914,1.792,1.141c0.427,0.242,0.654,0.372,0.654,0.372l0.217-0.207c0,0-0.705-0.718-1.868-2.022
            c-0.569-0.663-1.279-1.456-2.013-2.426c-0.744-0.956-1.59-2.053-2.285-3.36c-0.71-1.306-1.322-2.807-1.777-4.451
            c-0.446-1.646-0.737-3.431-0.854-5.291c-0.129-1.856-0.006-3.793,0.024-5.771c0.02-0.987,0.04-1.981,0.061-2.98
            c0.043-0.996,0.087-1.996,0.131-2.996c0.104-2,0.157-4,0.313-5.967c0.137-1.968,0.272-3.905,0.403-5.779
            c0.311-3.745,0.616-7.24,0.926-10.23c0.299-2.992,0.576-5.483,0.78-7.225c0.208-1.741,0.327-2.736,0.327-2.736L5.637,7.019
            c0,0-0.31,0.972-0.789,2.684c-0.224,0.858-0.516,1.898-0.79,3.1c-0.269,1.202-0.615,2.554-0.901,4.041
            c-0.281,1.487-0.621,3.096-0.917,4.806c-0.266,1.714-0.547,3.522-0.837,5.393c-0.248,1.876-0.44,3.824-0.67,5.8
            c-0.266,1.965-0.325,4.021-0.472,6.049c-0.138,2.047-0.264,4.057-0.238,6.025c-0.007,0.987-0.013,1.966-0.02,2.934
            c-0.019,1.041,0.029,2.068,0.109,3.085C0.316,52.966,0.748,54.922,1.326,56.73z"/>
        <path d="M34.299,14.734c1.292-1.588,8.166-5.561,23.974-14.352C54.706,0.163,50.548,0,46.05,0
            C32.244,0,21.605,1.532,21.605,1.532c-1.633,0.235-2.969,1.777-2.969,3.427v29.63l16.96-9.792
            C33.885,22.148,31.557,18.103,34.299,14.734z"/>
        <path d="M51.242,38.163c1.195-0.691,2.725-0.281,3.415,0.915c0.69,1.196,0.281,2.725-0.915,3.415l-31.646,18.27
            c0.838,1.144,1.883,2.339,3.177,3.553l30.263-17.472c1.195-0.692,2.725-0.281,3.415,0.915s0.281,2.725-0.915,3.415L29.35,67.736
            c1.361,1.054,2.759,2.06,4.165,2.982l39.949-23.064c0-0.495,0-0.96,0-1.361V4.959c0-1.65-1.336-3.192-2.969-3.427
            c0,0-1.195-0.172-3.295-0.4c-1.627,0.913-3.562,1.989-5.675,3.163c-7.577,4.211-21.631,12.022-23.377,13.636
            c-0.502,0.758,0.881,2.971,1.786,4.362l15.572-8.991c1.195-0.693,2.725-0.281,3.415,0.915s0.281,2.725-0.915,3.415l-39.37,22.731
            v5.387l28.282-16.328c1.196-0.692,2.725-0.282,3.415,0.915c0.69,1.196,0.281,2.725-0.915,3.415L18.636,51.523
            c0,0.272,0,0.534,0,0.77c0,0,0.006,1.647,0.999,4.118L51.242,38.163z"/>
        <path d="M38.526,73.599c2.732,1.328,5.33,2.151,7.524,2.151c5.5,0,13.52-5.112,19.896-10.625
            c5.537-4.787,6.992-9.473,7.376-11.616L38.526,73.599z"/>
        <path d="M151.287,37.798c2.035-0.873,3.601-2.231,4.697-4.077c1.096-1.845,1.644-3.942,1.644-6.291v-1.375
            c0-9.305-7.057-13.958-21.172-13.958c-2.349,0-5.044,0.101-8.085,0.303c-3.042,0.2-4.883,0.591-5.521,1.173
            c-0.637,0.582-0.956,1.555-0.956,2.919v43.283c0,1.543,0.431,2.567,1.292,3.07s2.639,0.861,5.334,1.074
            c2.696,0.212,5.542,0.318,8.54,0.318c7.09,0,12.348-1.225,15.77-3.674c3.423-2.45,5.133-6.168,5.133-11.157v-1.175
            C157.963,43.201,155.737,39.723,151.287,37.798z M131.423,20.15c1.946-0.112,3.624-0.168,5.033-0.168
            c4.384,0,7.46,0.498,9.227,1.493c1.767,0.996,2.651,2.701,2.651,5.117v0.973c0,4.341-2.73,6.51-8.188,6.51h-8.724V20.15z
             M148.603,49.273c0,2.64-0.906,4.479-2.718,5.52c-1.811,1.04-4.753,1.561-8.824,1.561l-5.637-0.134V41.086h8.724
            c2.774,0,4.876,0.638,6.308,1.914c1.431,1.274,2.148,3.065,2.148,5.369V49.273z"/>
        <path d="M202.623,12.634h-6.811c-0.381,0-0.705,0.128-0.973,0.386c-0.269,0.257-0.403,0.565-0.403,0.923v30.868
            c0,4.407-0.716,7.432-2.147,9.076c-1.431,1.645-3.825,2.466-7.18,2.466c-3.579,0-6.035-0.9-7.365-2.701s-1.996-4.748-1.996-8.841
            V13.943c0-0.358-0.134-0.666-0.402-0.923c-0.268-0.257-0.593-0.386-0.974-0.386h-6.811c-0.38,0-0.704,0.128-0.973,0.386
            c-0.269,0.257-0.402,0.565-0.402,0.923v30.868c0,12.952,6.308,19.427,18.923,19.427c12.593,0,18.89-6.476,18.89-19.427V13.943
            c0-0.358-0.134-0.666-0.403-0.923C203.328,12.763,203.003,12.634,202.623,12.634z"/>
        <path d="M242.987,55.313h-21.139c-0.425,0-0.638-0.135-0.638-0.402c0-0.269,0.09-0.526,0.269-0.772l21.441-32.076
            c0.648-0.962,0.973-1.901,0.973-2.819v-3.992c0-0.806-0.331-1.444-0.991-1.913c-0.66-0.47-1.549-0.704-2.667-0.704h-27.68
            c-0.873,0-1.31,0.436-1.31,1.309v5.771c0,0.827,0.437,1.241,1.31,1.241h19.092c0.469,0,0.703,0.191,0.703,0.57
            c0,0.202-0.066,0.403-0.2,0.605l-21.777,32.646c-0.603,0.895-0.905,1.767-0.905,2.617v3.758c0,1.7,1.163,2.55,3.49,2.55h30.03
            c0.38,0,0.705-0.134,0.973-0.402c0.269-0.269,0.403-0.593,0.403-0.973v-5.771C244.363,55.728,243.904,55.313,242.987,55.313z"/>
        <path d="M283.385,55.313h-21.138c-0.426,0-0.638-0.135-0.638-0.402c0-0.269,0.089-0.526,0.268-0.772l21.441-32.076
            c0.648-0.962,0.972-1.901,0.972-2.819v-3.992c0-0.806-0.33-1.444-0.989-1.913c-0.66-0.47-1.549-0.704-2.668-0.704h-27.681
            c-0.872,0-1.308,0.436-1.308,1.309v5.771c0,0.827,0.436,1.241,1.308,1.241h19.091c0.47,0,0.705,0.191,0.705,0.57
            c0,0.202-0.067,0.403-0.202,0.605l-21.776,32.646c-0.604,0.895-0.906,1.767-0.906,2.617v3.758c0,1.7,1.163,2.55,3.49,2.55h30.03
            c0.379,0,0.704-0.134,0.973-0.402s0.403-0.593,0.403-0.973v-5.771C284.76,55.728,284.302,55.313,283.385,55.313z"/>
        <path d="M309.724,12.097c-5.167,0-8.354,2.337-9.562,7.012l-11.274,43.082c-0.045,0.18-0.067,0.291-0.067,0.336
            c0,0.783,0.414,1.174,1.242,1.174h7.281c0.267,0,0.52-0.095,0.754-0.286c0.235-0.189,0.381-0.368,0.437-0.536
            c0.055-0.168,0.463-1.839,1.224-5.017l2.048-8.388h15.803l3.154,13.086c0.178,0.761,0.615,1.141,1.308,1.141h7.282
            c0.827,0,1.241-0.391,1.241-1.174l-11.341-43.418C318.044,14.435,314.868,12.097,309.724,12.097z M303.651,41.657l5.099-20.937
            c0.112-0.379,0.437-0.57,0.974-0.57c0.357,0,0.604,0.089,0.738,0.268c0.134,0.18,0.727,2.416,1.778,6.711l3.523,14.528H303.651z"
            />
        <path d="M363.241,42.261c6.173-2.461,9.26-7.135,9.26-14.025v-0.604c0-5.1-1.706-8.964-5.117-11.592
            c-3.411-2.628-8.293-3.942-14.645-3.942c-3.109,0-6.236,0.134-9.378,0.402c-3.143,0.269-4.977,0.576-5.502,0.923
            c-0.526,0.347-0.788,0.889-0.788,1.627v47.276c0,0.38,0.134,0.705,0.402,0.973c0.269,0.269,0.592,0.402,0.973,0.402h6.845
            c0.379,0,0.693-0.134,0.939-0.402c0.246-0.269,0.369-0.593,0.369-0.973V43.704c2.84,0.18,4.887,0.269,6.14,0.269h0.939
            l8.791,16.34c1.028,1.857,1.622,2.886,1.778,3.086c0.156,0.202,0.392,0.302,0.705,0.302h8.388c0.559,0,0.838-0.279,0.838-0.838
            c0-0.224-0.056-0.403-0.168-0.537L363.241,42.261z M363.038,28.236c0,2.864-0.771,4.91-2.314,6.141
            c-1.543,1.229-4.206,1.846-7.986,1.846c-1.521,0-3.568-0.067-6.14-0.202V20.552c1.901-0.178,3.948-0.269,6.14-0.269
            c3.467,0,6.05,0.587,7.751,1.762c1.7,1.174,2.549,3.036,2.549,5.586V28.236z"/>
        <path d="M423.602,13.457c-0.538-0.549-1.187-0.822-1.946-0.822h-5.604c-0.425,0-0.821,0.095-1.191,0.285
            c-0.369,0.19-0.659,0.414-0.873,0.671c-0.212,0.257-1.034,1.828-2.466,4.714l-8.556,17.28c-0.247,0.469-0.448,0.705-0.604,0.705
            c-0.135,0-0.269-0.113-0.403-0.336c-0.134-0.223-1.353-2.672-3.656-7.348l-7.08-14.327c-0.537-1.096-1.388-1.644-2.551-1.644
            h-5.604c-0.76,0-1.409,0.268-1.946,0.805c-0.536,0.536-0.806,1.185-0.806,1.946v47.276c0,0.693,0.381,1.04,1.141,1.04h6.946
            c0.291,0,0.547-0.139,0.771-0.419s0.335-0.598,0.335-0.957V30.383c0-0.47,0.068-0.704,0.202-0.704
            c0.089,0,0.739,1.186,1.946,3.556l5.067,9.999c0.424,0.783,1.163,1.174,2.214,1.174h6.912c1.074,0,1.856-0.481,2.349-1.443
            l5.57-11.072c0.738-1.476,1.152-2.214,1.241-2.214c0.134,0,0.201,0.234,0.201,0.704v31.942c0,0.359,0.112,0.677,0.336,0.957
            c0.223,0.28,0.48,0.419,0.771,0.419h6.945c0.761,0,1.141-0.346,1.141-1.04V15.385C424.407,14.647,424.138,14.004,423.602,13.457z" />
</svg>