<?xml version="1.0" encoding="utf-8"?>
<!-- Generator: Adobe Illustrator 16.0.0, SVG Export Plug-In . SVG Version: 6.00 Build 0)  -->
<!DOCTYPE svg PUBLIC "-//W3C//DTD SVG 1.1//EN" "http://www.w3.org/Graphics/SVG/1.1/DTD/svg11.dtd">
<svg version="1.1" id="Capa_1" xmlns="http://www.w3.org/2000/svg" xmlns:xlink="http://www.w3.org/1999/xlink" x="0px" y="0px"
	 width="72px" height="72px" viewBox="0 0 45.701 45.7" enable-background="new 0 0 45.701 45.7" xml:space="preserve">
<g>
	
		<image overflow="visible" opacity="0.1" width="77" height="65" xlink:href="E0B4ACEE58CDEBCF.png"  transform="matrix(1 0 0 1 -8.6494 -2.6499)">
	</image>
	<g>
		<g>
			<g>
				<linearGradient id="SVGID_1_" gradientUnits="userSpaceOnUse" x1="22.8501" y1="5.814" x2="22.8501" y2="39.8857">
					<stop  offset="0" style="stop-color:#63DB60"/>
					<stop  offset="1" style="stop-color:#5CBC6C"/>
				</linearGradient>
				<path fill="url(#SVGID_1_)" d="M20.687,38.333c-2.072,2.071-5.434,2.071-7.505,0L1.554,26.704c-2.072-2.07-2.072-5.433,0-7.503
					c2.071-2.072,5.433-2.072,7.505,0l6.928,6.927c0.523,0.521,1.372,0.521,1.896,0L36.642,7.368c2.071-2.072,5.434-2.072,7.506,0
					c0.994,0.995,1.554,2.345,1.554,3.752c0,1.407-0.56,2.757-1.554,3.752L20.687,38.333z"/>
			</g>
		</g>
	</g>
</g>
</svg>
