<?xml version="1.0" encoding="utf-8"?>
<!-- Generator: Adobe Illustrator 16.0.0, SVG Export Plug-In . SVG Version: 6.00 Build 0)  -->
<!DOCTYPE svg PUBLIC "-//W3C//DTD SVG 1.1//EN" "http://www.w3.org/Graphics/SVG/1.1/DTD/svg11.dtd">
<svg version="1.1" fill="#fff" xmlns="http://www.w3.org/2000/svg" xmlns:xlink="http://www.w3.org/1999/xlink" x="0px" y="0px"
	 width="25px" height="25px" viewBox="-13.711 37.56 595.291 599.398"
	 enable-background="new -13.711 37.56 595.291 599.398" xml:space="preserve">
<g>
	<path d="M543.29,118.467c26.104,0,38.29,15.663,38.29,34.802v162.684c0,18.27-13.925,33.057-32.194,34.79l-351.473,39.159
		c-28.699,3.482-32.193,40.879,1.751,40.879h333.202c38.254,0,38.254,56.554,0,56.554H192.693
		c-76.573,0-105.268-84.372-45.249-128.751l30.45-22.622L70.031,100.203H16.972c-40.91,0-40.91-62.644,0-62.644h61.774
		c31.289,0,40.004,14.805,49.559,37.415l21.771,43.499H543.29V118.467z M168.333,583.029c0,29.574-23.479,53.929-54.804,53.929
		c-29.574,0-53.929-24.354-53.929-53.929c0-30.443,24.354-54.81,53.929-54.81C144.855,528.226,168.333,552.586,168.333,583.029z
		 M199.657,226.342H287.5l-19.108-59.161h-95.719L199.657,226.342z M317.95,328.133l-22.609-70.466h-82.664l35.694,77.431
		L317.95,328.133z M299.68,167.187l18.271,59.161h86.122l-13.889-59.161H299.68z M426.712,316.828l-17.389-59.162h-82.664
		l21.734,66.983L426.712,316.828z M533.699,167.187H421.497l13.024,59.161h99.178V167.187z M536.325,583.029
		c0,29.574-23.485,53.929-53.935,53.929c-30.444,0-54.804-24.354-54.804-53.929c0-30.443,24.354-54.81,54.804-54.81
		C512.84,528.226,536.325,552.586,536.325,583.029z M533.699,257.667h-92.218l13.93,54.81l78.288-7.822V257.667z"/>
</g>
</svg>
