<?xml version="1.0" encoding="utf-8"?>
<!-- Generator: Adobe Illustrator 16.0.0, SVG Export Plug-In . SVG Version: 6.00 Build 0)  -->
<!DOCTYPE svg PUBLIC "-//W3C//DTD SVG 1.1//EN" "http://www.w3.org/Graphics/SVG/1.1/DTD/svg11.dtd">
<svg version="1.1" id="Layer_1" fill="#fff" xmlns="http://www.w3.org/2000/svg" xmlns:xlink="http://www.w3.org/1999/xlink" x="0px" y="0px"
	 width="17" height="17" viewBox="7.667 8.075 48.666 47.851" enable-background="new 7.667 8.075 48.666 47.851"
	 xml:space="preserve">
<path d="M48,39.26c-2.377,0-4.516,1-6.033,2.596L24.23,33.172c0.061-0.408,0.103-0.821,0.103-1.246c0-0.414-0.04-0.818-0.098-1.215
	l17.71-8.589c1.52,1.609,3.668,2.619,6.055,2.619c4.602,0,8.333-3.731,8.333-8.333c0-4.603-3.731-8.333-8.333-8.333
	s-8.333,3.73-8.333,8.333c0,0.414,0.04,0.817,0.099,1.215l-17.711,8.589c-1.519-1.609-3.666-2.619-6.054-2.619
	c-4.603,0-8.333,3.731-8.333,8.333c0,4.604,3.73,8.333,8.333,8.333c2.377,0,4.515-1,6.033-2.596l17.736,8.685
	c-0.061,0.406-0.103,0.82-0.103,1.245c0,4.603,3.731,8.333,8.333,8.333s8.333-3.73,8.333-8.333S52.602,39.26,48,39.26z"/>
</svg>
