<?xml version="1.0" encoding="utf-8"?>
<!-- Generator: Adobe Illustrator 16.0.0, SVG Export Plug-In . SVG Version: 6.00 Build 0)  -->
<!DOCTYPE svg PUBLIC "-//W3C//DTD SVG 1.1//EN" "http://www.w3.org/Graphics/SVG/1.1/DTD/svg11.dtd">
<svg version="1.1" id="Layer_1" xmlns="http://www.w3.org/2000/svg" xmlns:xlink="http://www.w3.org/1999/xlink" x="0px" y="0px"
	 width="58.25px" height="58.25px" viewBox="43.271 -49.248 58.25 58.25" enable-background="new 43.271 -49.248 58.25 58.25"
	 xml:space="preserve">
<g>
	<g>
		<linearGradient id="SVGID_1_" gradientUnits="userSpaceOnUse" x1="72.3955" y1="9.0029" x2="72.3955" y2="-49.2476">
			<stop  offset="0" style="stop-color:#00308F"/>
			<stop  offset="1" style="stop-color:#58A7EA"/>
		</linearGradient>
		<path fill="url(#SVGID_1_)" d="M72.396,9.003c-16.06,0-29.125-13.064-29.125-29.125c0-16.06,13.065-29.125,29.125-29.125
			c16.061,0,29.125,13.065,29.125,29.125C101.521-4.062,88.456,9.003,72.396,9.003z M72.396-46.248
			c-14.405,0-26.125,11.72-26.125,26.125c0,14.406,11.72,26.125,26.125,26.125c14.404,0,26.125-11.72,26.125-26.125
			C98.521-34.528,86.8-46.248,72.396-46.248z"/>
	</g>
	<g>
		<linearGradient id="SVGID_2_" gradientUnits="userSpaceOnUse" x1="72.3945" y1="-8.915" x2="72.3945" y2="-31.3301">
			<stop  offset="0" style="stop-color:#00308F"/>
			<stop  offset="1" style="stop-color:#58A7EA"/>
		</linearGradient>
		<path fill="url(#SVGID_2_)" d="M79.352-25.07c0,0.801-0.159,1.57-0.475,2.308c-0.316,0.738-0.728,1.449-1.233,2.134
			s-1.075,1.343-1.707,1.976c-0.633,0.632-1.255,1.232-1.866,1.802c-0.315,0.295-0.658,0.627-1.027,0.996s-0.723,0.742-1.059,1.121
			c-0.338,0.381-0.637,0.733-0.9,1.061c-0.265,0.327-0.428,0.596-0.49,0.806h9.421v3.952H65.408
			c-0.043-0.231-0.063-0.527-0.063-0.886s0-0.611,0-0.759c0-1.012,0.163-1.938,0.49-2.781s0.754-1.629,1.28-2.355
			c0.527-0.727,1.123-1.407,1.787-2.039c0.663-0.633,1.322-1.265,1.976-1.896c0.506-0.485,0.979-0.943,1.423-1.376
			c0.442-0.432,0.832-0.854,1.17-1.264c0.337-0.412,0.6-0.822,0.79-1.233c0.188-0.412,0.284-0.828,0.284-1.25
			c0-0.927-0.264-1.581-0.79-1.96c-0.526-0.379-1.181-0.569-1.96-0.569c-0.57,0-1.102,0.089-1.597,0.269
			c-0.496,0.18-0.948,0.391-1.36,0.632c-0.41,0.243-0.764,0.485-1.059,0.728c-0.295,0.242-0.517,0.437-0.664,0.585l-2.34-3.289
			c0.928-0.864,2.008-1.575,3.241-2.134s2.556-0.838,3.968-0.838c1.285,0,2.392,0.147,3.319,0.443
			c0.928,0.295,1.691,0.711,2.292,1.249c0.602,0.538,1.044,1.191,1.328,1.96C79.209-26.909,79.352-26.039,79.352-25.07z"/>
	</g>
</g>
</svg>
