<?xml version="1.0" encoding="utf-8"?>
<!-- Generator: Adobe Illustrator 16.0.0, SVG Export Plug-In . SVG Version: 6.00 Build 0)  -->
<!DOCTYPE svg PUBLIC "-//W3C//DTD SVG 1.1//EN" "http://www.w3.org/Graphics/SVG/1.1/DTD/svg11.dtd">
<svg version="1.1" id="Layer_1" xmlns="http://www.w3.org/2000/svg" xmlns:xlink="http://www.w3.org/1999/xlink" x="0px" y="0px"
	 width="58.25px" height="58.251px" viewBox="42.573 -49.241 58.25 58.251" enable-background="new 42.573 -49.241 58.25 58.251"
	 xml:space="preserve">
<g>
	<g>
		<linearGradient id="SVGID_1_" gradientUnits="userSpaceOnUse" x1="71.6982" y1="9.0103" x2="71.6982" y2="-49.2407">
			<stop  offset="0" style="stop-color:#00308F"/>
			<stop  offset="1" style="stop-color:#58A7EA"/>
		</linearGradient>
		<path fill="url(#SVGID_1_)" d="M71.698,9.01c-16.061,0-29.125-13.064-29.125-29.126c0-16.06,13.064-29.125,29.125-29.125
			s29.125,13.065,29.125,29.125C100.823-4.054,87.759,9.01,71.698,9.01z M71.698-46.241c-14.406,0-26.125,11.72-26.125,26.125
			c0,14.406,11.719,26.126,26.125,26.126c14.404,0,26.125-11.72,26.125-26.126C97.823-34.521,86.103-46.241,71.698-46.241z"/>
	</g>
	<g>
		<linearGradient id="SVGID_2_" gradientUnits="userSpaceOnUse" x1="71.6982" y1="-8.9326" x2="71.6982" y2="-31.2974">
			<stop  offset="0" style="stop-color:#00308F"/>
			<stop  offset="1" style="stop-color:#58A7EA"/>
		</linearGradient>
		<path fill="url(#SVGID_2_)" d="M70.54-8.933c-0.556,0-1.143-0.036-1.761-0.108c-0.618-0.073-1.215-0.17-1.792-0.293
			c-0.576-0.124-1.102-0.257-1.575-0.402c-0.474-0.144-0.845-0.278-1.112-0.401l0.896-3.831c0.535,0.227,1.22,0.469,2.054,0.726
			s1.869,0.386,3.104,0.386c1.421,0,2.461-0.267,3.12-0.803s0.988-1.256,0.988-2.163c0-0.556-0.118-1.024-0.354-1.406
			c-0.237-0.38-0.562-0.689-0.974-0.926s-0.901-0.402-1.467-0.495c-0.567-0.092-1.169-0.139-1.808-0.139h-1.791v-3.707h2.038
			c0.453,0,0.891-0.041,1.313-0.124c0.422-0.082,0.798-0.221,1.127-0.417s0.592-0.463,0.788-0.803
			c0.195-0.34,0.293-0.767,0.293-1.282c0-0.391-0.082-0.73-0.247-1.019c-0.165-0.288-0.376-0.525-0.633-0.71
			c-0.258-0.186-0.557-0.325-0.896-0.417c-0.34-0.093-0.686-0.139-1.035-0.139c-0.886,0-1.704,0.134-2.456,0.401
			c-0.752,0.268-1.437,0.598-2.054,0.989l-1.638-3.367c0.329-0.206,0.716-0.422,1.158-0.649c0.442-0.226,0.932-0.432,1.468-0.618
			c0.535-0.186,1.106-0.34,1.714-0.463s1.251-0.185,1.931-0.185c1.256,0,2.343,0.149,3.26,0.447c0.916,0.298,1.673,0.72,2.271,1.265
			c0.597,0.545,1.039,1.183,1.328,1.912c0.288,0.73,0.433,1.527,0.433,2.39c0,0.843-0.237,1.661-0.711,2.453
			s-1.112,1.393-1.915,1.804c1.112,0.454,1.972,1.129,2.579,2.026c0.607,0.896,0.911,1.974,0.911,3.232
			c0,0.99-0.165,1.902-0.494,2.737c-0.329,0.835-0.845,1.557-1.544,2.165c-0.701,0.608-1.592,1.083-2.673,1.423
			C73.305-9.103,72.022-8.933,70.54-8.933z"/>
	</g>
</g>
<text transform="matrix(1 0 0 1 62.584 -8.958)" display="none" font-family="'Ubuntu-Bold'" font-size="32.2637">4</text>
<text transform="matrix(1 0 0 1 63.9883 -9.4131)" display="none" font-family="'Ubuntu-Bold'" font-size="31.6101">5</text>
</svg>
