<?xml version="1.0" encoding="utf-8"?>
<!-- Generator: Adobe Illustrator 16.0.0, SVG Export Plug-In . SVG Version: 6.00 Build 0)  -->
<!DOCTYPE svg PUBLIC "-//W3C//DTD SVG 1.1//EN" "http://www.w3.org/Graphics/SVG/1.1/DTD/svg11.dtd">
<svg version="1.1" id="Layer_1" xmlns="http://www.w3.org/2000/svg" xmlns:xlink="http://www.w3.org/1999/xlink" x="0px" y="0px"
	 width="58.25px" height="58.251px" viewBox="43.018 -49.253 58.25 58.251" enable-background="new 43.018 -49.253 58.25 58.251"
	 xml:space="preserve">
<g>
	<g>
		<linearGradient id="SVGID_1_" gradientUnits="userSpaceOnUse" x1="72.1426" y1="8.998" x2="72.1426" y2="-49.2529">
			<stop  offset="0" style="stop-color:#00308F"/>
			<stop  offset="1" style="stop-color:#58A7EA"/>
		</linearGradient>
		<path fill="url(#SVGID_1_)" d="M72.143,8.998c-16.061,0-29.125-13.064-29.125-29.126c0-16.06,13.064-29.125,29.125-29.125
			s29.125,13.065,29.125,29.125C101.268-4.066,88.203,8.998,72.143,8.998z M72.143-46.253c-14.406,0-26.125,11.72-26.125,26.125
			c0,14.406,11.719,26.126,26.125,26.126c14.404,0,26.125-11.72,26.125-26.126C98.268-34.533,86.547-46.253,72.143-46.253z"/>
	</g>
	<g>
		<linearGradient id="SVGID_2_" gradientUnits="userSpaceOnUse" x1="72.1416" y1="-8.9375" x2="72.1416" y2="-31.3174">
			<stop  offset="0" style="stop-color:#00308F"/>
			<stop  offset="1" style="stop-color:#58A7EA"/>
		</linearGradient>
		<path fill="url(#SVGID_2_)" d="M74.877-15.86c0-0.611-0.139-1.153-0.412-1.628c-0.273-0.474-0.748-0.869-1.422-1.186
			c-0.676-0.315-1.58-0.558-2.719-0.727s-2.57-0.253-4.299-0.253c0.232-1.96,0.422-3.951,0.568-5.975
			c0.148-2.023,0.264-3.92,0.348-5.689h11.854v3.951h-7.902c-0.041,0.759-0.09,1.491-0.141,2.196
			c-0.053,0.707-0.111,1.323-0.174,1.85c3.076,0.211,5.346,0.933,6.811,2.165c1.465,1.233,2.197,2.945,2.197,5.137
			c0,1.012-0.18,1.949-0.537,2.813c-0.359,0.864-0.896,1.612-1.611,2.244c-0.717,0.633-1.619,1.128-2.703,1.486
			c-1.086,0.357-2.355,0.537-3.809,0.537c-0.57,0-1.166-0.037-1.787-0.111c-0.621-0.073-1.223-0.168-1.801-0.284
			c-0.58-0.115-1.102-0.237-1.564-0.363c-0.465-0.127-0.822-0.253-1.076-0.379l0.854-3.889c0.527,0.232,1.223,0.459,2.086,0.68
			c0.865,0.222,1.896,0.332,3.098,0.332c1.455,0,2.508-0.289,3.162-0.869C74.549-14.4,74.877-15.08,74.877-15.86z"/>
	</g>
</g>
</svg>
