<?xml version="1.0" encoding="utf-8"?>
<!-- Generator: Adobe Illustrator 16.0.0, SVG Export Plug-In . SVG Version: 6.00 Build 0)  -->
<!DOCTYPE svg PUBLIC "-//W3C//DTD SVG 1.1//EN" "http://www.w3.org/Graphics/SVG/1.1/DTD/svg11.dtd">
<svg version="1.1" id="Layer_1" xmlns="http://www.w3.org/2000/svg" xmlns:xlink="http://www.w3.org/1999/xlink" x="0px" y="0px"
	 width="148px" height="18px" viewBox="0 0 366.855 42.158" enable-background="new 0 0 366.855 42.158"
	 xml:space="preserve">
<g>
	<path fill="#FFFFFF" d="M13.184,14.619l7.441-10.781c1.406-2.031,3.223-3.047,5.449-3.047c1.816,0,3.388,0.645,4.717,1.934
		c1.328,1.289,1.992,2.832,1.992,4.629c0,1.329-0.352,2.5-1.055,3.516l-6.709,9.756l8.203,10.4c0.82,1.036,1.23,2.246,1.23,3.633
		c0,1.836-0.645,3.413-1.934,4.731s-2.852,1.978-4.688,1.978c-2.012,0-3.545-0.654-4.6-1.963L13.184,26.865v6.914
		c0,1.973-0.342,3.506-1.025,4.6c-1.25,1.992-3.066,2.988-5.449,2.988c-2.168,0-3.848-0.732-5.039-2.197
		C0.557,37.822,0,36.035,0,33.809V8.174c0-2.109,0.566-3.848,1.699-5.215C2.89,1.514,4.531,0.791,6.621,0.791
		c1.992,0,3.652,0.723,4.98,2.168c0.742,0.801,1.211,1.611,1.406,2.432c0.117,0.508,0.176,1.455,0.176,2.842V14.619z"/>
	<path fill="#FFFFFF" d="M50.742,8.965v24.814c0,2.149-0.557,3.916-1.67,5.303c-1.191,1.523-2.842,2.285-4.951,2.285
		c-1.934,0-3.564-0.713-4.893-2.139c-1.113-1.191-1.67-3.007-1.67-5.449V8.965c0-2.773,0.557-4.785,1.67-6.035
		c1.27-1.425,2.9-2.139,4.893-2.139s3.623,0.703,4.893,2.109C50.166,4.189,50.742,6.211,50.742,8.965z"/>
	<path fill="#FFFFFF" d="M75.967,0c4.863-0.019,9.335,1.611,13.418,4.893c3.203,2.578,4.805,5.244,4.805,7.998
		c0,2.344-0.977,4.16-2.93,5.449c-1.113,0.743-2.325,1.113-3.633,1.113c-1.074,0-2.1-0.253-3.076-0.762
		c-0.41-0.215-1.426-1.201-3.047-2.959c-1.504-1.641-3.389-2.461-5.654-2.461c-2.188,0-4.019,0.757-5.493,2.271
		c-1.475,1.514-2.212,3.365-2.212,5.552c0,2.168,0.737,4.009,2.212,5.522c1.475,1.514,3.296,2.271,5.464,2.271
		c1.797,0,3.467-0.605,5.01-1.816c0.957-0.918,1.904-1.835,2.842-2.754c1.015-0.879,2.304-1.318,3.867-1.318
		c1.797,0,3.354,0.63,4.673,1.89s1.978,2.788,1.978,4.585c0,2.442-1.436,4.912-4.307,7.412c-4.024,3.516-8.672,5.273-13.945,5.273
		c-3.262,0-6.338-0.693-9.229-2.08c-3.652-1.758-6.558-4.34-8.716-7.749c-2.158-3.408-3.237-7.134-3.237-11.177
		c0-6.054,2.246-11.21,6.738-15.469C65.459,1.934,70.283,0.04,75.967,0z"/>
	<path fill="#FFFFFF" d="M111.943,14.619l7.441-10.781c1.406-2.031,3.223-3.047,5.449-3.047c1.816,0,3.389,0.645,4.717,1.934
		s1.992,2.832,1.992,4.629c0,1.329-0.352,2.5-1.055,3.516l-6.709,9.756l8.203,10.4c0.82,1.036,1.23,2.246,1.23,3.633
		c0,1.836-0.645,3.413-1.934,4.731s-2.852,1.978-4.688,1.978c-2.012,0-3.545-0.654-4.6-1.963l-10.049-12.539v6.914
		c0,1.973-0.342,3.506-1.025,4.6c-1.25,1.992-3.066,2.988-5.449,2.988c-2.168,0-3.848-0.732-5.039-2.197
		c-1.113-1.348-1.67-3.135-1.67-5.361V8.174c0-2.109,0.566-3.848,1.699-5.215c1.191-1.445,2.832-2.168,4.922-2.168
		c1.992,0,3.652,0.723,4.98,2.168c0.742,0.801,1.211,1.611,1.406,2.432c0.117,0.508,0.176,1.455,0.176,2.842V14.619z"/>
	<path fill="#5DBD6C" d="M141.123,25.957c1.465,0,3.027,0.645,4.688,1.934c2.07,1.622,3.486,2.432,4.248,2.432
		c1.133,0,1.699-0.586,1.699-1.758c0-0.645-0.332-1.191-0.996-1.641c-0.352-0.234-2.324-0.986-5.918-2.256
		c-5.879-2.07-8.818-5.898-8.818-11.484c0-4.219,1.553-7.548,4.658-9.99C143.398,1.065,146.758,0,150.762,0
		c3.457,0,6.465,0.825,9.023,2.476c2.559,1.651,3.838,3.775,3.838,6.372c0,1.563-0.483,2.867-1.45,3.911
		c-0.967,1.045-2.222,1.567-3.765,1.567c-1.621,0-3.418-0.771-5.391-2.314c-1.23-0.957-2.158-1.436-2.783-1.436
		c-1.074,0-1.611,0.527-1.611,1.582c0,0.996,1.328,1.904,3.984,2.725c3.672,1.153,6.514,2.559,8.525,4.219
		c2.676,2.227,4.014,5.352,4.014,9.375c0,4.375-1.504,7.793-4.512,10.254c-2.793,2.285-6.426,3.428-10.898,3.428
		s-8.174-1.191-11.104-3.574c-2.344-1.894-3.516-4.111-3.516-6.65c0-1.699,0.576-3.115,1.729-4.248
		C137.998,26.553,139.424,25.977,141.123,25.957z"/>
	<path fill="#5DBD6C" d="M176.396,13.359h-3.486c-1.934,0-3.535-0.527-4.805-1.582c-1.348-1.132-2.021-2.646-2.021-4.541
		c0-1.132,0.317-2.222,0.952-3.267c0.635-1.044,1.455-1.787,2.461-2.227s3.394-0.659,7.163-0.659h13.301
		c3.262,0,5.371,0.195,6.328,0.586c1.055,0.43,1.909,1.167,2.563,2.212c0.654,1.045,0.981,2.144,0.981,3.296
		c0,1.816-0.723,3.398-2.168,4.746c-1.035,0.957-2.725,1.436-5.068,1.436h-3.018v19.922c0,2.168-0.371,3.848-1.113,5.039
		c-1.25,1.992-3.057,2.988-5.42,2.988s-4.18-0.908-5.449-2.725c-0.801-1.132-1.201-2.852-1.201-5.156V13.359z"/>
	<path fill="#5DBD6C" d="M209.619,35.889c-0.625,1.484-1.27,2.588-1.934,3.311c-1.328,1.446-2.939,2.168-4.834,2.168
		c-2.324,0-4.131-0.938-5.42-2.812c-0.762-1.113-1.143-2.363-1.143-3.75c0-1.152,0.273-2.314,0.82-3.486l12.51-26.631
		c1.211-2.597,3.232-3.896,6.064-3.896c2.871,0,4.932,1.338,6.182,4.014l12.627,26.836c0.508,1.074,0.762,2.139,0.762,3.193
		c0,1.563-0.508,2.949-1.523,4.16c-1.328,1.582-3.027,2.373-5.098,2.373c-1.699,0-3.115-0.527-4.248-1.582
		c-0.84-0.781-1.68-2.08-2.52-3.896H209.619z"/>
	<path fill="#5DBD6C" d="M263.789,25.664l3.105,4.98c0.859,1.387,1.289,2.812,1.289,4.277c0,1.856-0.64,3.394-1.919,4.614
		c-1.279,1.221-2.847,1.831-4.702,1.831c-2.383,0-4.189-1.015-5.42-3.047l-5.508-9.023v5.42c0,1.856-0.61,3.428-1.831,4.717
		s-2.759,1.934-4.614,1.934c-2.266,0-3.984-0.81-5.156-2.432c-1.055-1.425-1.582-3.3-1.582-5.625V8.672
		c0-5.058,2.725-7.588,8.174-7.588h8.379c2.754,0,5.312,0.796,7.676,2.388c2.363,1.592,4.092,3.658,5.186,6.196
		c0.82,1.915,1.23,3.838,1.23,5.771C268.096,19.053,266.66,22.461,263.789,25.664z"/>
	<path fill="#5DBD6C" d="M279.463,13.359h-3.486c-1.934,0-3.535-0.527-4.805-1.582c-1.348-1.132-2.021-2.646-2.021-4.541
		c0-1.132,0.317-2.222,0.952-3.267c0.635-1.044,1.455-1.787,2.461-2.227s3.394-0.659,7.163-0.659h13.301
		c3.262,0,5.371,0.195,6.328,0.586c1.055,0.43,1.909,1.167,2.563,2.212c0.654,1.045,0.981,2.144,0.981,3.296
		c0,1.816-0.723,3.398-2.168,4.746c-1.035,0.957-2.725,1.436-5.068,1.436h-3.018v19.922c0,2.168-0.371,3.848-1.113,5.039
		c-1.25,1.992-3.057,2.988-5.42,2.988s-4.18-0.908-5.449-2.725c-0.801-1.132-1.201-2.852-1.201-5.156V13.359z"/>
	<path fill="#5DBD6C" d="M318.545,28.711h5.993c2.475,0,4.316,0.508,5.525,1.523c1.423,1.211,2.134,2.773,2.134,4.688
		c0,1.953-0.713,3.535-2.139,4.746c-1.113,0.938-2.939,1.406-5.479,1.406h-10.283c-2.422,0-4.082-0.186-4.98-0.557
		c-1.758-0.722-2.92-1.904-3.486-3.545c-0.352-1.055-0.527-2.783-0.527-5.186V10.049c0-1.816,0.059-3.037,0.176-3.662
		c0.215-1.27,0.732-2.344,1.553-3.223c0.938-0.996,2.129-1.63,3.574-1.904c0.684-0.117,2.07-0.176,4.16-0.176h7.881
		c2.148,0,3.398,0.02,3.75,0.059c1.406,0.137,2.559,0.547,3.457,1.23c1.602,1.211,2.402,2.793,2.402,4.746
		c0,2.109-0.702,3.721-2.104,4.834c-1.248,0.996-2.953,1.494-5.116,1.494h-6.49v2.725h5.171c1.52,0,2.776,0.4,3.77,1.201
		c1.051,0.86,1.577,2.041,1.577,3.545c0,3.184-1.938,4.775-5.814,4.775h-4.703V28.711z"/>
	<path fill="#5DBD6C" d="M362.461,25.664l3.105,4.98c0.859,1.387,1.289,2.812,1.289,4.277c0,1.856-0.64,3.394-1.919,4.614
		c-1.279,1.221-2.847,1.831-4.702,1.831c-2.383,0-4.189-1.015-5.42-3.047l-5.508-9.023v5.42c0,1.856-0.61,3.428-1.831,4.717
		s-2.759,1.934-4.614,1.934c-2.266,0-3.984-0.81-5.156-2.432c-1.055-1.425-1.582-3.3-1.582-5.625V8.672
		c0-5.058,2.725-7.588,8.174-7.588h8.379c2.754,0,5.312,0.796,7.676,2.388c2.363,1.592,4.092,3.658,5.186,6.196
		c0.82,1.915,1.23,3.838,1.23,5.771C366.768,19.053,365.332,22.461,362.461,25.664z"/>
</g>
</svg>
