<?xml version="1.0" encoding="utf-8"?>
<!-- Generator: Adobe Illustrator 16.0.0, SVG Export Plug-In . SVG Version: 6.00 Build 0)  -->
<!DOCTYPE svg PUBLIC "-//W3C//DTD SVG 1.1//EN" "http://www.w3.org/Graphics/SVG/1.1/DTD/svg11.dtd">
<svg version="1.1" id="Layer_1" xmlns="http://www.w3.org/2000/svg" xmlns:xlink="http://www.w3.org/1999/xlink" x="0px" y="0px"
	 width="1920px" height="1080px" viewBox="0 0 1920 1080" enable-background="new 0 0 1920 1080" xml:space="preserve">
<path d="M1196.511,123.012c-15.912-11.988-38.475-8.748-50.399,7.056c-11.952,15.876-8.784,38.448,7.092,50.4
	c81.909,61.668,128.88,155.412,128.88,257.256c0,177.66-144.504,322.093-322.128,322.093c-177.66,0-322.164-144.505-322.164-322.093
	c0-102.239,46.98-196.2,128.916-257.868c15.876-11.952,19.044-34.524,7.092-50.4c-11.952-15.768-34.488-19.044-50.399-7.056
	c-98.667,74.268-157.563,192.168-157.563,315.405c0,217.323,176.832,394.155,394.164,394.155s394.164-176.823,394.164-394.155
	C1354.092,313.164,1296.744,198.396,1196.511,123.012L1196.511,123.012z"/>
<path d="M963.24,392.076c19.872,0,36-16.092,36-36v-288c0-19.872-16.119-36-36-36c-19.872,0-36,16.128-36,36v288
	C927.24,375.984,943.368,392.076,963.24,392.076z"/>
</svg>
