<svg id="signal-icon" class="signal-icon" xmlns="http://www.w3.org/2000/svg" x="0px" y="0px"
	 width="286px" height="287px" viewBox="163.5 219.5 286 287" enable-background="new 163.5 219.5 286 287" xml:space="preserve">
<path d="M306,223.875c-75.928,0-137.7,61.772-137.7,137.7c0,75.928,61.772,137.7,137.7,137.7s137.699-61.772,137.699-137.7
	C443.699,285.647,381.928,223.875,306,223.875z M424.513,359.022h-48.344c-0.564-15.618-6.243-29.947-15.42-41.362l17.323-17.323
	c2.99-2.991,2.99-7.843,0-10.837c-2.991-2.994-7.847-2.991-10.838,0l-17.322,17.322c-11.415-9.176-25.744-14.855-41.362-15.417
	v-48.343C371.892,244.409,423.166,295.68,424.513,359.022z M308.553,296.515c14.208,0.551,27.256,5.676,37.727,13.943
	l-37.727,37.727V296.515z M303.447,353.294l-2.864,2.864c-0.834,0.834-1.413,1.82-1.778,2.864h-57.861
	c1.313-33.88,28.625-61.191,62.504-62.505V353.294z M298.801,364.131c0.371,1.041,0.947,2.027,1.781,2.864
	c0.835,0.834,1.817,1.41,2.862,1.779v57.862c-33.88-1.316-61.188-28.626-62.505-62.505L298.801,364.131L298.801,364.131z
	 M308.553,368.774c1.044-0.369,2.029-0.945,2.864-1.779l2.863-2.864h56.776c-1.311,33.88-28.622,61.188-62.504,62.505V368.774
	L308.553,368.774z M319.39,359.022l37.725-37.727c8.268,10.468,13.393,23.519,13.943,37.727H319.39z M303.447,243.062v48.347
	c-36.696,1.319-66.294,30.916-67.613,67.613h-48.346C188.834,295.68,240.105,244.409,303.447,243.062z M187.488,364.131h48.346
	c1.319,36.697,30.917,66.292,67.613,67.613v48.344C240.105,478.741,188.834,427.47,187.488,364.131z M308.553,480.088v-48.344
	c36.696-1.319,66.291-30.916,67.616-67.613h48.344C423.166,427.47,371.892,478.741,308.553,480.088z"/>
<circle cx="328.122" cy="277.204" r="7.235"/>
<circle cx="287.898" cy="326.792" r="6.172"/>
<circle cx="224.052" cy="315.511" r="11.278"/>
</svg>
