<svg xmlns="http://www.w3.org/2000/svg" viewBox="0 0 1920 1080" class="touch-icon">
	<path d="M880.599,25.929c-75.522,0-136.962,61.413-136.962,136.961c0,57.836,36.072,107.274,86.841,127.345v-44.919
		c-27.804-16.978-46.475-47.52-46.475-82.434c0-53.257,43.321-96.613,96.596-96.613s96.604,43.356,96.604,96.613
		c0,34.655-18.403,65.007-45.896,82.062v45.066c50.483-20.218,86.244-69.552,86.244-127.129
		C1017.56,87.342,956.112,25.929,880.599,25.929z"/>
	<path d="M1174.212,394.831c-10.559,0-20.59,2.393-29.549,6.635c-4.968-33.255-33.705-58.847-68.308-58.847
		c-10.705,0-20.857,2.454-29.93,6.817c-5.857-32.201-34.085-56.662-67.937-56.662c-10.281,0-20.01,2.272-28.754,6.282V162.622
		c0-38.111-31.034-69.137-69.137-69.137c-38.111,0-69.12,31.026-69.12,69.137v246.499l-1.771-4.164
		c-10.705-26.016-35.778-42.837-63.936-42.837c-9.021,0-17.851,1.762-26.248,5.21c-35.261,14.463-52.135,54.95-37.628,90.175
		L781.99,700.911l0.519,1.141c41.031,84.146,124.641,136.443,218.194,136.443c133.765,0,242.594-108.821,242.594-242.629V463.942
		C1243.314,425.84,1212.314,394.831,1174.212,394.831z M1202.939,595.857c0,111.543-90.686,202.263-202.219,202.263
		c-77.804,0-147.33-43.355-181.639-113.185l-99.879-242.731c-2.92-7.137-2.886-14.956,0.061-22.05
		c2.946-7.076,8.502-12.605,15.612-15.518c3.508-1.442,7.18-2.194,10.912-2.194c11.725,0,22.153,7.016,26.689,18.058l79.384,187.333
		V162.622c0-15.88,12.9-28.78,28.754-28.78c15.854,0,28.763,12.899,28.763,28.78V465.1c0,11.129,9.029,20.148,20.175,20.148
		c11.154,0,20.2-9.02,20.2-20.148V361.903c0-15.871,12.874-28.754,28.754-28.754c15.828,0,28.754,12.874,28.754,28.754V500.68l0,0
		l0,0c0,11.162,9.003,20.183,20.157,20.183s20.157-9.021,20.157-20.183l0,0l0,0V411.73c0-15.846,12.934-28.754,28.797-28.754
		c15.829,0,28.728,12.899,28.728,28.754v124.528h0.044c0,0.034-0.026,0.112-0.026,0.164c0,11.129,9.021,20.157,20.191,20.157
		c11.129,0,20.158-9.028,20.158-20.157c0-0.052,0-0.13,0-0.164l0,0v-72.316c0-15.863,12.907-28.763,28.762-28.763
		c15.881,0,28.729,12.899,28.729,28.763v131.915H1202.939z"/>
</svg>
