<svg id="battery-icon" class="battery-icon" xmlns="http://www.w3.org/2000/svg" x="0px" y="0px" 
	 viewBox="231.532 225.625 146.339 273.073"
	 enable-background="new 231.532 225.625 146.339 273.073" xml:space="preserve">
	<path d="M265.81,237.29l-0.06,17.136l-9.872-0.034c-13.026-0.045-23.626,10.478-23.671,23.501l-0.676,196.803
		c-0.044,13.028,10.483,23.621,23.509,23.666l98.49,0.338c13.023,0.044,23.62-10.476,23.665-23.504l0.675-196.801
		c0.045-13.023-10.479-23.618-23.503-23.663l-10.326-0.035l0.059-17.136c0.022-6.515-5.244-11.817-11.752-11.839l-54.693-0.188
		C271.135,225.51,265.833,230.775,265.81,237.29z M354.289,278.313l-0.675,196.801l-98.492-0.338l0.676-196.801L354.289,278.313
		L354.289,278.313z"/>
	<rect x="292.573" y="413.279" transform="matrix(-0.0034 1 -1 -0.0034 750.3535 141.893)" width="23.803" height="63.108"/>
	<rect x="292.719" y="369.086" transform="matrix(-0.0034 1 -1 -0.0034 706.3138 97.3963)" width="23.814" height="63.109"/>
	<rect x="292.878" y="324.893" transform="matrix(-0.0034 1 -1 -0.0034 662.2617 52.8854)" width="23.8" height="63.109"/>
</svg>
