<svg id="touch-icon" class="touch-icon" xmlns="http://www.w3.org/2000/svg" x="0px" y="0px"
	 width="183.545px" height="268.559px" viewBox="211.5 227.5 183.545 268.559" enable-background="new 211.5 227.5 183.545 268.559"
	 xml:space="preserve">
<path d="M305.465,237.018"/>
<path d="M265.224,366.844c-1.321,0-2.638-0.504-3.641-1.512c-11.719-11.727-18.171-27.312-18.171-43.879
	c0-34.219,27.835-62.053,62.053-62.053c2.843,0,5.147,2.305,5.147,5.147c0,2.845-2.305,5.147-5.147,5.147
	c-28.542,0-51.761,23.219-51.761,51.761c0,13.822,5.387,26.819,15.158,36.606c2.008,2.008,2.008,5.266-0.003,7.279
	C267.857,366.34,266.537,366.844,265.224,366.844z"/>
<path d="M248.557,388.964c-1.236,0-2.481-0.446-3.467-1.344c-18.557-16.94-29.203-41.057-29.203-66.165
	c0-49.398,40.183-89.579,89.578-89.579c2.843,0,5.147,2.302,5.147,5.145c0,2.839-2.305,5.147-5.147,5.147
	c-43.719,0-79.29,35.568-79.29,79.291c0,22.222,9.424,43.568,25.854,58.561c2.096,1.922,2.244,5.172,0.33,7.273
	C251.347,388.396,249.953,388.964,248.557,388.964z"/>
<path d="M370.996,372.511c-6.758,0-7.57,5.211-7.606,7.453v21.013c0,1.693-1.377,3.063-3.07,3.063c-1.688,0-3.06-1.369-3.06-3.063
	v-20.858c-0.042-2.396-0.852-7.606-7.609-7.606c-6.747,0-7.571,5.205-7.615,7.447v21.018c0,1.693-1.371,3.063-3.06,3.063
	c-1.693,0-3.065-1.369-3.065-3.063v-20.858c-0.035-2.398-0.854-7.606-7.604-7.606c-2.459,0-4.263,0.623-5.524,1.897
	c-2.12,2.162-2.093,5.604-2.09,5.643v17.538l-0.337,3.672c-0.151,1.629-1.605,2.811-3.194,2.775c-1.633-0.077-2.922-1.43-2.922-3.06
	v-73.202c0.188-2.55-0.044-9.286-3.203-12.702c-1.404-1.512-3.261-2.245-5.681-2.245c-2.342,0-4.17,0.722-5.594,2.201
	c-3.806,3.955-3.61,11.917-3.607,11.996c0,0.97-0.275,84.204,0,93.738c0.195,6.539-0.746,10.779-2.884,12.982
	c-1.077,1.107-2.426,1.693-3.905,1.693c-3.418,0-6.868-3.098-10.553-9.468c-2.223-4.079-8.221-14.995-9.749-17.295
	c0,0-0.227-0.337-0.227-0.341c-1.462-2.215-5.91-8.945-11.36-8.945c-1.814,0-3.718,0.766-5.659,2.258
	c-8.171,6.307,0.551,18.973,0.636,19.102l42.393,75.309h77.437c5.952,0,6.323-10.168,6.323-10.272V380.118
	c0-0.102,0.03-3.55-2.093-5.707C375.255,373.134,373.448,372.511,370.996,372.511z"/>
<path d="M276.761,321.452c0-15.827,12.881-28.705,28.705-28.705c15.829,0,28.705,12.878,28.705,28.705
	c0,10.366-5.547,19.443-13.812,24.489l0.003,11.534c14.134-5.863,24.095-19.795,24.095-36.022c0-21.503-17.491-38.997-38.994-38.997
	s-38.996,17.493-38.996,38.997c0,15.987,9.677,29.741,23.475,35.752c0.011-4.128,0.021-8.053,0.027-11.627
	C282.043,340.466,276.761,331.573,276.761,321.452z"/>
<path d="M338.99,371.049c1.854-2.346,4.773-4.092,8.97-4.497c12.011-11.322,19.563-27.331,19.563-45.097
	c0.006-15.53-5.756-30.39-16.238-41.847c-1.919-2.104-5.172-2.253-7.265-0.325c-2.102,1.914-2.247,5.169-0.325,7.271
	c8.733,9.557,13.544,21.95,13.533,34.901c0,19.394-10.732,36.301-26.554,45.169C334.52,367.147,337.236,368.84,338.99,371.049z"/>
<path d="M380.705,369.978c9.055-13.993,14.34-30.652,14.34-48.525c0-25.103-10.64-49.22-29.19-66.173
	c-2.101-1.919-5.361-1.771-7.272,0.325c-1.917,2.098-1.773,5.354,0.327,7.271c16.42,15.009,25.844,36.358,25.844,58.578
	c0,16.692-5.211,32.169-14.057,44.962c0.104-0.003,0.185-0.033,0.295-0.033C375.034,366.384,378.284,367.609,380.705,369.978z"/>
</svg>
