<svg version="1.1" id="Слой_1" xmlns="http://www.w3.org/2000/svg" xmlns:xlink="http://www.w3.org/1999/xlink" x="0px" y="0px"
	 width="138.234px" height="254.125px" viewBox="236 271 138.234 254.125" enable-background="new 236 271 138.234 254.125"
	 xml:space="preserve">

	<path d="M271.401,471.105c0-2.885,1.1-5.768,3.303-7.968c17.935-17.935,27.813-41.775,27.813-67.14
		c0-25.361-9.875-49.209-27.81-67.143c-4.403-4.401-4.403-11.535,0-15.936c4.397-4.4,11.53-4.4,15.932,0
		c22.188,22.191,34.408,51.696,34.408,83.078c0,31.381-12.223,60.885-34.411,83.075c-4.4,4.399-11.533,4.399-15.932,0
		C272.502,476.875,271.401,473.989,271.401,471.105z"/>

	<path d="M305.915,508.662c0-2.884,1.1-5.771,3.301-7.968c27.969-27.964,43.368-65.148,43.368-104.696
		s-15.398-76.732-43.365-104.696c-4.401-4.397-4.401-11.534,0-15.932c4.396-4.401,11.533-4.401,15.932,0
		c32.222,32.216,49.968,75.058,49.968,120.628s-17.746,88.412-49.968,120.63c-4.401,4.401-11.534,4.401-15.935,0
		C307.018,514.429,305.915,511.545,305.915,508.662z"/>

	<path d="M236.884,360.948c0-2.884,1.1-5.767,3.297-7.968c4.403-4.4,11.534-4.4,15.936,0c12.161,12.16,18.858,28.326,18.858,45.521
		s-6.697,33.359-18.858,45.521c-4.4,4.4-11.534,4.4-15.936-0.004c-4.396-4.399-4.397-11.532,0.003-15.932
		c7.904-7.9,12.255-18.413,12.255-29.586c0-11.178-4.351-21.688-12.255-29.589C237.984,366.715,236.884,363.832,236.884,360.948z"/>
</svg>
