<?xml version="1.0" encoding="utf-8"?>
<!-- Generator: Adobe Illustrator 16.0.0, SVG Export Plug-In . SVG Version: 6.00 Build 0)  -->
<!DOCTYPE svg PUBLIC "-//W3C//DTD SVG 1.1//EN" "http://www.w3.org/Graphics/SVG/1.1/DTD/svg11.dtd">
<svg version="1.1" id="Layer_1" xmlns="http://www.w3.org/2000/svg" xmlns:xlink="http://www.w3.org/1999/xlink" x="0px" y="0px"
	 width="19px" height="32px" viewBox="30.958 48.376 19 32" enable-background="new 30.958 48.376 19 32" xml:space="preserve">
<g>
	<path fill="none" stroke="#000000" stroke-width="2" stroke-miterlimit="10" d="M48.958,70.438c0,4.937-3.806,8.938-8.5,8.938l0,0
		c-4.694,0-8.5-4.001-8.5-8.938V58.314c0-4.937,3.806-8.938,8.5-8.938l0,0c4.694,0,8.5,4.001,8.5,8.938V70.438z"/>
	<path d="M41.558,60.532c0,0.512-0.443,0.927-0.989,0.927l0,0c-0.546,0-0.989-0.415-0.989-0.927v-4.875
		c0-0.512,0.443-0.927,0.989-0.927l0,0c0.547,0,0.989,0.415,0.989,0.927V60.532z"/>
</g>
</svg>
